<svg width="48" height="48" viewBox="0 0 48 48" fill="none" xmlns="http://www.w3.org/2000/svg">
<g clip-path="url(#clip0)">
<path d="M24 48.0002C25.1169 48.0002 26.2087 47.669 27.1373 47.0485C28.066 46.428 28.7898 45.546 29.2172 44.5142C29.6446 43.4823 29.7564 42.3469 29.5386 41.2514C29.3207 40.156 28.7828 39.1498 27.9931 38.36C27.2033 37.5703 26.1971 37.0325 25.1017 36.8146C24.0063 36.5967 22.8708 36.7085 21.839 37.1359C20.8071 37.5633 19.9252 38.2871 19.3046 39.2158C18.6841 40.1444 18.3529 41.2362 18.3529 42.3531C18.3529 43.8508 18.9479 45.2872 20.0069 46.3462C21.066 47.4052 22.5023 48.0002 24 48.0002Z" fill="#1C1C1C"/>
<path d="M30.1271 0H17.8447L0.705887 47.2941H11.0824L24 11.6824L36.8894 47.2941H47.2941L30.1271 0Z" fill="#1C1C1C"/>
</g>
<defs>
<clipPath id="clip0">
<rect width="48" height="48" fill="white"/>
</clipPath>
</defs>
</svg>
