<svg width="48" height="48" viewBox="0 0 48 48" fill="none" xmlns="http://www.w3.org/2000/svg">
    <g clip-path="url(#clip0_819_125)">
        <path d="M20.1755 25.5459C19.7271 26.2695 19.2988 27.0046 18.8676 27.7382L13.9492 35.9798C13.1864 36.857 12.2163 37.1778 11.0858 36.9018C9.96321 36.6278 9.29184 35.8814 9.05453 34.7791C8.9123 34.1187 9.04879 33.4956 9.39226 32.9152C11.3233 29.6529 13.2556 26.3917 15.189 23.1316C15.4071 22.7644 15.5924 22.3745 15.9096 22.0693C16.7334 21.2761 17.713 21.0169 18.8049 21.3713C19.8968 21.7257 20.5145 22.5053 20.6735 23.6112C20.7764 24.3164 20.5473 24.9455 20.1755 25.5459Z" fill="url(#paint0_linear_819_125)"/>
        <path d="M36.7589 36.9429C36.0621 37.0776 35.3887 36.9829 34.7857 36.5685C34.2427 36.1957 33.7508 35.7633 33.2561 35.3357C32.0462 34.291 30.6329 33.595 29.1455 33.0238C27.8533 32.5294 26.4938 32.2227 25.1103 32.1135C23.3917 31.9755 21.6618 32.1519 20.0095 32.6335C17.8921 33.243 15.9998 34.2682 14.2693 35.5921C14.1303 35.6985 14.0603 35.8529 13.9504 35.9797L18.8688 27.7401C18.7809 27.8902 18.6925 28.0399 18.6037 28.1893C18.5825 28.2161 18.5671 28.2467 18.5582 28.2794C18.5494 28.3121 18.5473 28.3462 18.552 28.3797C20.3034 27.6269 22.1035 27.1757 24.0135 27.1761C25.9235 27.1765 27.7089 27.6245 29.4386 28.3633C29.4869 28.2897 29.4353 28.2497 29.4107 28.2077C27.9841 25.799 26.5569 23.3905 25.1292 20.9824C23.948 18.9889 22.7474 17.0058 21.5924 14.9979C20.5526 13.19 21.931 10.9937 23.9738 10.9981C25.0956 11.0013 25.9186 11.4948 26.474 12.4284C28.5078 15.8554 30.5393 19.2837 32.5687 22.7131C34.5869 26.1183 36.605 29.5233 38.6229 32.9282C38.8467 33.3008 38.9755 33.7203 38.9986 34.1516C39.0218 34.5828 38.9385 35.0132 38.7559 35.4065C38.5733 35.7998 38.2966 36.1446 37.9491 36.412C37.6016 36.6793 37.1934 36.8614 36.7589 36.9429Z" fill="url(#paint1_linear_819_125)"/>
    </g>
    <defs>
        <linearGradient id="paint0_linear_819_125" x1="9.00001" y1="29.107" x2="20.6989" y2="29.107" gradientUnits="userSpaceOnUse">
            <stop stop-color="#235DF4"/>
            <stop offset="1" stop-color="#235DF4"/>
        </linearGradient>
        <linearGradient id="paint1_linear_819_125" x1="11.3682" y1="30.5935" x2="19.4424" y2="27.6082" gradientUnits="userSpaceOnUse">
            <stop/>
            <stop offset="1" stop-color="#235DF4"/>
        </linearGradient>
        <clipPath id="clip0_819_125">
            <rect width="30" height="26" fill="white" transform="translate(9 11)"/>
        </clipPath>
    </defs>
</svg>
