<svg width="48" height="48" viewBox="0 0 48 48" fill="none" xmlns="http://www.w3.org/2000/svg">
    <g clip-path="url(#clip0_819_233)">
        <path d="M22.4709 34.146C24.5612 34.146 26.6525 34.146 28.7446 34.146C29.9567 34.146 29.9807 34.1087 29.368 33.0206C28.3237 31.1699 27.2368 29.3377 26.2085 27.487C25.9074 26.9536 25.4732 26.7856 24.8924 26.7936C23.4326 26.8096 21.962 26.7936 20.5128 26.7936C19.7136 26.7936 19.4472 26.5269 19.8948 25.7855C21.0669 23.7828 22.2391 21.7853 23.3873 19.7586C23.7736 19.0838 24.0799 19.2945 24.3703 19.7959C25.0576 20.9693 25.7742 22.1293 26.387 23.3428C26.7839 24.1428 27.306 24.4388 28.1878 24.4095C30.1778 24.3561 32.1678 24.4095 34.1605 24.3855C35.0823 24.3855 35.1728 24.2121 34.7093 23.4041C31.5338 17.8856 28.3574 12.3679 25.1802 6.85116C24.9324 6.41914 24.6713 5.99511 24.4476 5.55242C24.1412 4.94172 23.8881 4.89906 23.5258 5.53109C22.4362 7.42986 21.2987 9.30197 20.2038 11.1981C16.5168 17.5753 12.8343 23.9561 9.15618 30.3405C7.82418 32.6393 6.47353 34.9194 5.16018 37.2315C4.74992 37.9542 4.45688 37.9916 3.99601 37.2822C1.5993 33.6677 0.229942 29.4687 0.0346312 25.1348C-0.231769 19.5745 1.2361 14.5476 4.46487 10.054C8.16783 4.89905 13.1548 1.63487 19.4019 0.453473C30.9264 -1.73332 41.5558 4.24835 46.0233 14.6169C48.4875 20.3452 48.666 26.2736 46.5002 32.2179C45.844 34.0291 44.9738 35.7552 43.9081 37.3595C43.3487 38.1969 43.2021 38.2022 42.7146 37.3595C40.983 34.338 39.2274 31.3245 37.5571 28.2684C37.0057 27.2576 36.3983 26.7189 35.1595 26.7909C33.2947 26.9029 31.4459 26.8176 29.5864 26.8229C28.4595 26.8229 28.4249 26.8603 28.9684 27.8043C30.6227 30.6818 32.2957 33.546 33.958 36.4208C35.1036 38.4023 36.2118 40.405 37.3973 42.3651C37.9301 43.2345 37.7782 43.6692 36.9018 44.2319C32.9783 46.743 28.4107 48.0589 23.7541 48.0196C19.0975 47.9803 14.5526 46.5875 10.672 44.0106C9.95538 43.5279 9.85681 43.1358 10.291 42.4105C11.7855 39.9037 13.2401 37.3729 14.684 34.8341C14.9957 34.282 15.4352 34.162 16.016 34.1647C18.1578 34.154 20.3157 34.1487 22.4709 34.146Z" fill="#739574"/>
    </g>
    <defs>
        <clipPath id="clip0_819_233">
            <rect width="48" height="48" fill="white"/>
        </clipPath>
    </defs>
</svg>
