<svg width="48" height="48" viewBox="0 0 48 48" fill="none" xmlns="http://www.w3.org/2000/svg">
<path d="M44.5 24C44.5 35.3218 35.3218 44.5 24 44.5V47.5C36.9787 47.5 47.5 36.9787 47.5 24H44.5ZM24 44.5C12.6782 44.5 3.5 35.3218 3.5 24H0.5C0.5 36.9787 11.0213 47.5 24 47.5V44.5ZM3.5 24C3.5 12.6782 12.6782 3.5 24 3.5V0.5C11.0213 0.5 0.5 11.0213 0.5 24H3.5ZM24 3.5C35.3218 3.5 44.5 12.6782 44.5 24H47.5C47.5 11.0213 36.9787 0.5 24 0.5V3.5Z" fill="#222326"/>
<path fill-rule="evenodd" clip-rule="evenodd" d="M28.3392 35.0799C28.3984 35.2896 28.4495 35.4707 28.566 35.5868H35V35.1735C34.7925 34.7603 34.5849 33.9339 34.3774 33.1075C34.1698 32.2811 34.1698 31.248 34.1698 30.0082V19.6777C34.1698 18.2314 33.7547 16.9918 33.3396 15.9587C32.9245 14.9256 32.0944 13.8926 31.2642 13.2727C30.2264 12.4463 29.1887 12.0331 27.9434 11.6199C26.6981 11.2066 25.4528 11 24 11C22.3396 11 20.8868 11.2066 19.6415 11.6199C18.3962 12.0331 17.3585 12.6529 16.5283 13.2727C15.4905 14.0992 14.8679 14.9256 14.4528 15.752C14.0377 16.5785 13.8302 17.6116 13.8302 18.6446H20.0566C20.0566 17.8182 20.2642 17.1984 20.8868 16.5785C21.5095 15.9587 22.3396 15.752 23.5849 15.752C25.0377 15.752 26.0755 16.1653 26.9056 16.7851C27.5283 17.405 27.9434 18.2314 27.9434 19.4711V20.9173H24.4151C20.6793 20.9173 17.7736 21.5372 15.9056 22.9835C14.0377 24.2231 13 26.2893 13 28.7686C13 29.8016 13.2075 30.8347 13.6226 31.6612C14.0377 32.4876 14.4528 33.3141 15.283 33.9339C16.1132 34.5537 16.9434 34.9669 17.9811 35.3801C19.0189 35.7934 20.0566 36 21.3019 36C21.9245 36 22.7547 36 23.3774 35.7934C23.9308 35.6556 24.2998 35.5179 24.6688 35.3801C24.8533 35.3113 25.0377 35.2425 25.2453 35.1735C25.3433 35.1248 25.4528 35.076 25.5685 35.0245C25.9428 34.8579 26.381 34.6628 26.6981 34.3471C26.9056 34.1405 27.1132 33.9855 27.3207 33.8306C27.5283 33.6756 27.7358 33.5207 27.9434 33.3141C27.9434 33.5207 27.9953 33.7273 28.0472 33.9339C28.099 34.1405 28.1509 34.3471 28.1509 34.5537C28.2419 34.7349 28.293 34.9161 28.3392 35.0799ZM24.2075 31.0413C23.7925 31.248 23.1698 31.248 22.5472 31.248C21.5095 31.248 20.4717 31.0413 19.8491 30.4215C19.2264 29.8016 19.0189 29.1818 19.0189 28.3554C19.0189 27.9422 19.0189 27.3223 19.2264 26.9091C19.3803 26.4494 19.6484 26.217 19.946 25.959C20.0497 25.8691 20.1569 25.7762 20.2642 25.6694C20.6793 25.2562 21.3019 25.0496 21.9245 24.843C22.5472 24.6364 23.3774 24.6364 24.4151 24.6364H27.5283V28.7686L26.6981 29.595C26.4905 30.0082 26.0755 30.2149 25.6604 30.4215C25.2453 30.6281 24.8302 30.8347 24.2075 31.0413Z" fill="#222326"/>
</svg>
