<svg width="48" height="48" viewBox="0 0 48 48" fill="none" xmlns="http://www.w3.org/2000/svg">
<path d="M32.2951 22.4465L34.6444 20.6845L24.0723 12.6064L13.5002 20.6845L15.7049 22.5912V33.1632L6.25641 40.1602C10.6487 44.9781 16.9732 47.9999 24.0042 47.9999C31.0778 47.9999 37.4364 44.944 41.8287 40.0751L32.3036 33.0185V22.4465H32.2951ZM28.8476 25.2384V30.6692L24.0042 27.0005L19.1608 30.6692V25.2384C19.1608 22.4465 21.3655 20.2418 24.0042 20.2418H24.1489C26.7877 20.2418 28.9923 22.4465 28.8476 25.2384Z" fill="white"/>
<path d="M44.7824 11.9766C42.2969 7.69496 38.5345 4.25606 34.0145 2.17911C30.9672 0.783116 27.5794 0 24.0043 0C20.4292 0 17.0413 0.783116 13.994 2.17911C9.47402 4.25606 5.70314 7.70348 3.2261 11.9766C1.17467 15.5091 0 19.6205 0 23.9957C0 28.3794 1.17467 32.4823 3.2261 36.0148C4.09434 37.5044 5.10729 38.8919 6.26494 40.1602L15.7134 33.1632V22.5912L13.5088 20.6845L24.0724 12.6065L34.6444 20.6845L32.2951 22.4465V33.0185L41.8202 40.0751C42.9438 38.8323 43.9312 37.4704 44.7739 36.0148C46.8253 32.4823 48 28.3709 48 23.9957C48 19.6205 46.8338 15.5176 44.7824 11.9766Z" fill="#FF4339"/>
<path d="M24.149 20.2417H24.0043C21.357 20.2417 19.1609 22.4463 19.1609 25.2383V30.6691L24.0043 27.0003L28.8477 30.6691V25.2383C28.9924 22.4463 26.7877 20.2417 24.149 20.2417Z" fill="#FF4339"/>
</svg>
