<svg width="48" height="48" viewBox="0 0 48 48" fill="none" xmlns="http://www.w3.org/2000/svg">
    <path d="M24 48C37.2548 48 48 37.2548 48 24C48 10.7452 37.2548 0 24 0C10.7452 0 0 10.7452 0 24C0 37.2548 10.7452 48 24 48Z" fill="black"/>
    <path d="M41.6145 20.3083C41.3773 19.156 41.0266 18.03 40.5675 16.9468C40.1151 15.8799 39.5616 14.8587 38.9145 13.8973C38.2729 12.9475 37.541 12.0618 36.729 11.2528C35.9195 10.4407 35.0333 9.70884 34.083 9.06729C33.1202 8.42346 32.0998 7.8701 31.035 7.41429C28.8329 6.48033 26.4654 5.99902 24.0735 5.99902C21.6816 5.99902 19.3141 6.48033 17.112 7.41429C14.9827 8.31243 13.0487 9.61672 11.418 11.2543C10.6061 12.0629 9.87421 12.948 9.2325 13.8973C8.58859 14.8606 8.03523 15.8815 7.5795 16.9468C6.64554 19.1489 6.16424 21.5163 6.16424 23.9083C6.16424 26.3002 6.64554 28.6677 7.5795 30.8698C8.0205 31.9348 8.5905 32.9443 9.2325 33.9178C9.87418 34.868 10.6061 35.7542 11.418 36.5638C12.2275 37.3758 13.1137 38.1077 14.064 38.7493C15.018 39.3913 16.047 39.9433 17.112 40.4023C19.3141 41.3362 21.6816 41.8176 24.0735 41.8176C26.4654 41.8176 28.8329 41.3362 31.035 40.4023C32.1 39.9613 33.1095 39.3913 34.083 38.7493C35.0333 38.1077 35.9195 37.3758 36.729 36.5638C37.541 35.7543 38.2729 34.8681 38.9145 33.9178C39.5565 32.9638 40.1085 31.9348 40.5675 30.8698C41.9805 27.5372 42.3457 23.8534 41.6145 20.3083ZM24.09 39.5758C15.4395 39.5758 8.442 32.5588 8.442 23.9263C8.442 15.2938 15.459 8.27679 24.09 8.27679C32.7225 8.27679 39.7395 15.2938 39.7395 23.9263C39.7395 32.5588 32.724 39.5758 24.09 39.5758Z" fill="white"/>
    <path d="M24.3675 38.2167H24.7905C24.864 38.2167 24.936 38.2167 25.0095 38.1972H25.029C25.1025 38.1972 25.1565 38.1972 25.23 38.1792H25.2855C25.341 38.1792 25.3965 38.1792 25.4505 38.1612H25.506C25.5615 38.1612 25.617 38.1432 25.6905 38.1432H25.7265C25.8 38.1432 25.8735 38.1237 25.947 38.1237C26.0205 38.1237 26.076 38.1057 26.1495 38.0877H26.1855C26.241 38.0877 26.2965 38.0697 26.3505 38.0697H26.388C26.4615 38.0502 26.517 38.0502 26.5905 38.0322C26.736 38.0142 26.883 37.9767 27.012 37.9407H27.0495C27.1035 37.9227 27.177 37.9227 27.2325 37.9032H27.2505C27.3975 37.8672 27.5265 37.8297 27.6735 37.7937C26.2977 37.8373 24.922 37.7078 23.5785 37.4082C21.5565 36.9672 19.629 36.1782 17.994 34.8177C16.705 33.745 15.6706 32.3992 14.9655 30.8777C14.2604 29.3563 13.9023 27.6971 13.917 26.0202C13.9302 23.5185 14.8204 21.1007 16.4325 19.1877C18.5265 16.7082 21.5025 15.4032 24.5505 15.3297H24.9735V12.8877H24.4965C23.5692 12.9047 22.6461 13.0152 21.741 13.2177C20.8302 13.4236 19.9438 13.7253 19.0965 14.1177C18.2325 14.5227 17.424 15.0177 16.671 15.5877C15.8929 16.1792 15.1844 16.857 14.559 17.6082C13.9702 18.3034 13.4592 19.0609 13.035 19.8672C12.6154 20.6445 12.2766 21.4628 12.024 22.3092C11.7762 23.1425 11.6104 23.9981 11.529 24.8637L11.4735 25.6707V26.1477C11.4915 27.0852 11.6025 28.0032 11.8035 28.9032C12.006 29.8227 12.318 30.7032 12.7035 31.5492C13.164 32.5587 13.9905 34.0467 15.2205 35.1672C17.732 37.147 20.838 38.2215 24.036 38.2167H24.3675Z" fill="white"/>
    <path d="M28.371 35.8649C27.4651 35.8325 26.5627 35.7343 25.671 35.5709C21.888 34.8914 18.636 32.5769 17.4435 29.0879C15.9915 24.8444 18.2145 20.2529 22.4385 18.8579C23.2435 18.5881 24.087 18.4513 24.936 18.4529C26.0205 18.4529 27.1035 18.6734 28.0965 19.0769L29.124 16.8914C28.815 16.7675 28.5029 16.6515 28.188 16.5434C27.1356 16.2131 26.039 16.0457 24.936 16.0469C23.831 16.049 22.7334 16.2287 21.6855 16.5794C20.348 17.0205 19.1163 17.7334 18.0675 18.6734C17.5617 19.1239 17.1006 19.6222 16.6905 20.1614C16.2851 20.6944 15.9344 21.2667 15.6435 21.8699C15.0512 23.0825 14.7017 24.3992 14.6145 25.7459C14.523 27.1409 14.706 28.5359 15.165 29.8589C15.6327 31.2199 16.3843 32.4659 17.37 33.5144C18.27 34.4879 19.317 35.2229 20.583 35.9024C21.906 36.5999 23.541 36.9674 25.248 37.2074C26.3505 37.3529 27.8205 37.3904 28.683 37.3904C29.436 37.1144 29.748 36.9854 30.153 36.8204C30.5025 36.6554 30.8505 36.4904 31.2 36.2879C31.5495 36.0854 31.605 36.0479 32.1915 35.6639C32.2437 35.6314 32.2929 35.5942 32.3385 35.5529C30.318 35.9024 29.8035 35.8829 28.371 35.8649Z" fill="white"/>
    <path d="M32.8905 33.129C32.3205 33.165 31.512 33.219 30.594 33.219C28.959 33.219 26.9565 33.0735 25.2495 32.5035C22.6035 31.623 20.106 29.364 20.106 26.571C20.1054 25.9099 20.2352 25.2553 20.4879 24.6444C20.7406 24.0336 21.1112 23.4786 21.5787 23.0111C22.0461 22.5437 22.6011 22.173 23.2119 21.9204C23.8228 21.6677 24.4775 21.5379 25.1385 21.5385C27.03 21.5385 28.665 22.5855 29.529 24.1095L31.7145 23.0265C31.3718 22.3813 30.9316 21.7929 30.4095 21.282C29.7176 20.5889 28.8959 20.0391 27.9913 19.6639C27.0867 19.2888 26.117 19.0957 25.1377 19.0957C24.1585 19.0957 23.1888 19.2888 22.2842 19.6639C21.3796 20.0391 20.5579 20.5889 19.866 21.282C19.1732 21.9738 18.6235 22.7955 18.2485 23.6999C17.8735 24.6044 17.6805 25.5739 17.6805 26.553C17.6854 27.5791 17.9051 28.5929 18.3255 29.529C18.7095 30.3735 19.2435 31.164 19.923 31.899C21.117 33.183 22.7505 34.212 24.4965 34.8C26.1675 35.3505 28.629 35.553 31.017 35.388C31.677 35.3325 32.1735 35.277 33.018 35.094C33.833 34.4509 34.5727 33.7177 35.223 32.9085C34.653 32.964 33.606 33.0735 32.8905 33.129Z" fill="white"/>
</svg>
