<svg width="48" height="48" viewBox="0 0 48 48" fill="none" xmlns="http://www.w3.org/2000/svg">
    <path d="M24 48C37.2548 48 48 37.2548 48 24C48 10.7452 37.2548 0 24 0C10.7452 0 0 10.7452 0 24C0 37.2548 10.7452 48 24 48Z" fill="#000403"/>
    <g clip-path="url(#clip0_819_143)">
        <path d="M18.0492 25.5539C18.233 26.6514 18.4019 27.6729 18.5758 28.6929C18.6427 29.0824 18.5252 29.4569 18.4995 29.8382C18.4154 31.0618 18.5786 32.2407 19.1094 33.3346C19.6455 34.4725 20.4837 35.4243 21.5235 36.0759C22.583 36.7354 23.7323 37.0824 24.9678 37.0302C26.6885 36.9556 28.1606 36.284 29.3647 34.9708C30.6914 33.5226 31.2436 31.7901 31.0926 29.8225C30.9458 27.9139 30.1171 26.3679 28.675 25.1763C27.4523 24.1668 26.0579 23.7162 24.5224 23.7833C23.2086 23.8408 22.0016 24.2713 20.9599 25.1472C20.8779 25.2166 20.7853 25.2711 20.652 25.3644C20.5302 24.6667 20.4119 23.9974 20.2958 23.3274C20.2808 23.2386 20.3385 23.2006 20.4034 23.1581C21.5434 22.4119 22.7775 21.9523 24.1199 21.8538C25.3347 21.7658 26.5282 21.8963 27.6739 22.3664C28.9565 22.8811 30.0987 23.7179 31 24.8033C31.9108 25.8807 32.5354 27.1899 32.8112 28.5996C33.2387 30.8052 32.9359 32.904 31.8037 34.8418C30.705 36.7235 29.1396 37.9942 27.1253 38.6254C25.111 39.2566 23.1145 39.0858 21.2263 38.1255C19.4258 37.2092 18.0984 35.7737 17.2897 33.8337C16.4183 31.7446 16.3691 29.6203 17.0866 27.4774C17.3118 26.7885 17.6364 26.1398 18.0492 25.5539V25.5539Z" fill="#C9FC00"/>
        <path d="M19.9025 30.0659C19.408 30.0659 19.0546 29.7675 18.9235 29.2332C18.6962 28.311 18.6135 27.3619 18.4553 26.4263C18.1839 24.8229 17.9288 23.2179 17.668 21.6115C17.383 19.8466 17.098 18.0823 16.813 16.3184C16.5387 14.6381 16.2301 12.9608 16.0171 11.2738C15.9302 10.5851 16.2586 10.1024 16.86 10.0114C16.9978 9.99011 17.1382 9.9975 17.2733 10.0331C17.4083 10.0687 17.5354 10.1318 17.6471 10.2188C17.7589 10.3059 17.8532 10.4151 17.9246 10.5403C17.9961 10.6655 18.0432 10.8042 18.0635 10.9485C18.211 12.0237 18.4055 13.0906 18.5808 14.1606C18.8323 15.6924 19.076 17.225 19.3218 18.7575C19.5469 20.1568 19.7716 21.5555 19.9958 22.9538C20.2808 24.7311 20.5658 26.5084 20.8608 28.2842C20.9321 28.696 21.0653 29.096 20.8359 29.5041C20.6221 29.8794 20.3286 30.0853 19.9025 30.0659Z" fill="#C9FC00"/>
        <path d="M21.2171 27.8656C21.2114 27.2583 21.7329 26.7016 22.3193 26.689C22.6225 26.6891 22.9134 26.8146 23.1288 27.0382C23.3441 27.2617 23.4665 27.5653 23.4693 27.8828C23.4615 28.4797 22.9185 29.049 22.3528 29.0527C21.7871 29.0564 21.222 28.4722 21.2171 27.8656Z" fill="#1BD3CE"/>
        <path d="M27.8293 31.7417C28.4841 31.7417 28.9636 32.2267 28.9536 32.887C28.9529 33.0398 28.9235 33.1909 28.867 33.3317C28.8105 33.4726 28.7281 33.6004 28.6245 33.7079C28.5208 33.8154 28.398 33.9005 28.263 33.9582C28.1279 34.016 27.9833 34.0454 27.8375 34.0446C27.6916 34.0439 27.5473 34.0131 27.4128 33.954C27.2783 33.8948 27.1562 33.8085 27.0535 33.7C26.9509 33.5915 26.8697 33.4628 26.8145 33.3214C26.7593 33.18 26.7313 33.0286 26.732 32.8758C26.7377 32.2095 27.1887 31.7439 27.8293 31.7417Z" fill="#1BD3CE"/>
        <path d="M25.4815 34.2231C25.4886 34.858 24.9671 35.399 24.35 35.3982C24.0576 35.396 23.7772 35.2762 23.5667 35.0636C23.3562 34.851 23.2319 34.5619 23.2192 34.2559C23.2021 33.6523 23.7258 33.0949 24.318 33.0875C24.9435 33.08 25.4751 33.5971 25.4815 34.2231Z" fill="#1BD3CE"/>
        <path d="M22.7219 31.5679C22.7219 32.2462 22.2851 32.717 21.6481 32.7237C21.5005 32.7291 21.3533 32.703 21.2155 32.6471C21.0777 32.5911 20.9522 32.5065 20.8466 32.3983C20.741 32.2901 20.6574 32.1606 20.6009 32.0176C20.5444 31.8747 20.5163 31.7212 20.5181 31.5664C20.5181 30.9024 21.0047 30.4069 21.6467 30.4122C22.2887 30.4174 22.7219 30.8919 22.7219 31.5679Z" fill="#1BD3CE"/>
        <path d="M28.5375 30.344C27.9618 30.3343 27.3975 29.7657 27.4274 29.1763C27.458 28.5406 27.9354 27.9758 28.6073 28.0146C29.1916 28.0489 29.6975 28.5936 29.6761 29.2129C29.6599 29.5179 29.533 29.805 29.3213 30.0153C29.1097 30.2255 28.8292 30.3431 28.5375 30.344V30.344Z" fill="#1BD3CE"/>
        <path d="M23.988 30.3687C23.9846 30.2171 24.0104 30.0663 24.0639 29.9254C24.1175 29.7845 24.1977 29.6564 24.2997 29.5487C24.4017 29.441 24.5234 29.3561 24.6576 29.2989C24.7917 29.2417 24.9355 29.2135 25.0803 29.216C25.2254 29.2138 25.3694 29.2416 25.5042 29.2977C25.6389 29.3538 25.7618 29.4372 25.8658 29.5431C25.9699 29.649 26.0529 29.7752 26.1103 29.9147C26.1677 30.0542 26.1983 30.2042 26.2004 30.3561C26.2025 30.5079 26.1759 30.6587 26.1223 30.7999C26.0687 30.941 25.9891 31.0697 25.888 31.1786C25.7869 31.2875 25.6663 31.3745 25.5331 31.4347C25.3999 31.4948 25.2567 31.5268 25.1117 31.529C24.4654 31.5364 23.988 31.044 23.988 30.3687Z" fill="#1BD3CE"/>
        <path d="M26.9272 26.5283C26.9187 27.2095 26.4783 27.6646 25.8328 27.6594C25.685 27.661 25.5384 27.6313 25.4018 27.5722C25.2652 27.513 25.1414 27.4256 25.0379 27.3152C24.9343 27.2048 24.8531 27.0736 24.799 26.9296C24.745 26.7855 24.7193 26.6315 24.7234 26.4768C24.7275 26.3226 24.7608 26.1708 24.8214 26.0301C24.8819 25.8895 24.9685 25.7628 25.0761 25.6575C25.1838 25.5522 25.3103 25.4702 25.4483 25.4164C25.5864 25.3627 25.7333 25.3381 25.8805 25.3442C26.5111 25.3583 26.9386 25.8418 26.9272 26.5283Z" fill="#1BD3CE"/>
    </g>
    <defs>
        <clipPath id="clip0_819_143">
            <rect width="17" height="29" fill="white" transform="translate(16 10)"/>
        </clipPath>
    </defs>
</svg>
