<svg width="48" height="48" viewBox="0 0 48 48" fill="none" xmlns="http://www.w3.org/2000/svg">
<path fill-rule="evenodd" clip-rule="evenodd" d="M24 0C37.2667 0 48 10.7333 48 24C48 37.1333 37.4667 47.8 24.4 48H24V27.8L20.9333 30.8667L20.5333 38.4667L23.7333 48C21.8667 48 20.0667 47.7333 18.2667 47.2667L17.8 47.1333L16.2667 42.5333L11.9333 44.7333C10.3333 43.8 8.86667 42.7333 7.53333 41.4667L7.2 41.1333L15.2667 37.0667L15.5333 32.4667L10.9333 32.7333L6.86667 40.8C5.6 39.4667 4.46667 38 3.53333 36.4667L3.26667 36.0667L5.46667 31.7333L0.866667 30.2C0.4 28.4 0.133333 26.6 0.0666667 24.8V24.3333L9.66667 27.5333L17.2667 27.1333L20.3333 24.0667L17.2667 21L9.66667 20.6L0 23.7333C0 21.8667 0.266667 20 0.666667 18.2667L0.8 17.8L5.4 16.2667L3.2 11.9333C4.13333 10.3333 5.2 8.86667 6.46667 7.53333L6.8 7.2L10.8667 15.2667L15.4667 15.5333L15.2 10.9333L7.13333 6.86667C8.46667 5.6 9.93333 4.46667 11.4667 3.53333L11.8667 3.26667L16.2 5.46667L17.7333 0.866667C19.5333 0.4 21.3333 0.133333 23.1333 0.0666667H23.6L20.4 9.6L20.8 17.2L23.8667 20.2667C24 20.2 24 0 24 0ZM29.3333 6.13333V41.9333C37 39.6 42.6667 32.4667 42.6667 24C42.6667 15.6667 37.1333 8.6 29.6 6.2L29.3333 6.13333Z" fill="#FF00AF"/>
</svg>
