<svg width="48" height="48" viewBox="0 0 48 48" fill="none" xmlns="http://www.w3.org/2000/svg">
    <path d="M24 48C37.2548 48 48 37.2548 48 24C48 10.7452 37.2548 0 24 0C10.7452 0 0 10.7452 0 24C0 37.2548 10.7452 48 24 48Z" fill="white"/>
    <g clip-path="url(#clip0_819_323)">
        <path d="M22.514 11.0174C22.4903 11.0028 22.4632 10.9951 22.4356 10.9951H16L19.217 35.9951H22.4356L22.4218 35.8902L22.4909 35.9061L22.4356 35.9951H25.6542L35.9985 19.2384L22.514 11.0174ZM24.7934 27.3084L29.5859 19.4784H32.4786L25.296 30.977L24.7934 27.3084ZM25.0378 31.3855L22.5324 35.3959L22.0498 31.7877L24.5383 27.7232L25.0378 31.3855ZM24.7304 26.822L23.2133 15.6953L29.2893 19.3735L24.7304 26.822ZM32.7615 19.1605H29.5414L23.1549 15.2948L22.6323 11.464L35.2576 19.1605H32.7615ZM22.3096 11.3178L22.8229 15.0897L19.6597 13.1744L19.403 11.3178H22.3096ZM19.5429 13.4716L22.8783 15.4919L24.4706 27.2305L21.8577 31.5L19.5429 13.4716Z" fill="#2A1130"/>
    </g>
    <defs>
        <clipPath id="clip0_819_323">
            <rect width="20" height="25" fill="white" transform="translate(16 11)"/>
        </clipPath>
    </defs>
</svg>
