<svg width="48" height="48" viewBox="0 0 48 48" fill="none" xmlns="http://www.w3.org/2000/svg">
<g clip-path="url(#clip0_517_107)">
<path d="M24.5152 17.3885L24.5152 17.3884C24.3511 17.2919 24.1642 17.2409 23.9738 17.2409C23.7834 17.2409 23.5964 17.2919 23.4324 17.3884L23.4295 17.3901C22.6105 17.8648 21.7883 18.339 20.9667 18.8128L20.9649 18.8139C20.1439 19.2874 19.3234 19.7606 18.5063 20.2342C18.3446 20.3286 18.2105 20.4638 18.1176 20.6264C18.0246 20.7891 17.976 20.9734 17.9769 21.1609L17.9769 21.1631L17.9769 26.8331V26.8392H17.9769C17.9746 27.029 18.0235 27.2159 18.1184 27.3803C18.2134 27.5447 18.3509 27.6804 18.5164 27.7733L18.5227 27.7768L18.5226 27.7768L23.4295 30.6212L23.4339 30.6237L23.4339 30.6237C23.5973 30.7207 23.7838 30.7718 23.9738 30.7718C24.1638 30.7718 24.3502 30.7207 24.5136 30.6237L24.5183 30.621L24.5183 30.621L35.5096 24.261L36.26 23.8268V24.6937V29.3203C36.2697 29.8573 36.1349 30.3871 35.8696 30.8542C35.6037 31.3223 35.2166 31.71 34.749 31.9767C34.7485 31.977 34.748 31.9773 34.7475 31.9776L25.519 37.3097C25.5188 37.3097 25.5187 37.3098 25.5185 37.3099C25.0546 37.5798 24.5274 37.722 23.9906 37.722C23.4541 37.722 22.9271 37.5799 22.4633 37.3102C22.4629 37.31 22.4626 37.3098 22.4623 37.3097L13.2355 31.9796C13.2345 31.979 13.2334 31.9784 13.2324 31.9779C12.7614 31.714 12.3698 31.3289 12.0981 30.8624C11.8258 30.3949 11.684 29.863 11.6875 29.3221C11.6975 26.961 11.6942 24.6003 11.6909 22.2337C11.6892 21.0486 11.6875 19.862 11.6875 18.6732C11.6835 18.1338 11.8239 17.6031 12.0942 17.1363C12.3644 16.6696 12.7546 16.2838 13.2242 16.0187C13.225 16.0183 13.2258 16.0179 13.2266 16.0175L22.4505 10.703C22.9127 10.4249 23.4419 10.278 23.9813 10.278C24.5206 10.278 25.0498 10.4249 25.512 10.7029L34.7494 16.0198L34.7504 16.0203C35.8111 16.6339 36.3078 17.8013 36.3078 18.915C36.3078 20.0287 35.8111 21.1961 34.7504 21.8097L34.7495 21.8102L24.4821 27.7214C24.3336 27.8129 24.1625 27.8614 23.9878 27.8614C23.8131 27.8614 23.6419 27.8129 23.4933 27.7213L21.0165 26.2926C20.8648 26.2096 20.7381 26.0872 20.6499 25.9383C20.5605 25.7875 20.5138 25.6151 20.515 25.4398M24.5152 17.3885L20.515 25.4372C20.515 25.4381 20.515 25.4389 20.515 25.4398M24.5152 17.3885L24.5209 17.3917L26.5215 18.5336L21.0116 21.7064L24.5152 17.3885ZM20.515 25.4398V22.5714V25.4398ZM10.9441 4.46046C14.8087 1.87825 19.3521 0.5 24 0.5C30.2326 0.5 36.2099 2.97589 40.617 7.38299C45.0241 11.7901 47.5 17.7674 47.5 24C47.5 28.6479 46.1218 33.1913 43.5396 37.0559C40.9573 40.9205 37.2871 43.9325 32.9931 45.7112C28.699 47.4898 23.9739 47.9552 19.4154 47.0485C14.8568 46.1417 10.6695 43.9035 7.383 40.617C4.09647 37.3305 1.85831 33.1432 0.951557 28.5846C0.044804 24.0261 0.510182 19.301 2.28884 15.0069C4.0675 10.7129 7.07956 7.04268 10.9441 4.46046ZM27.1009 18.5333L27.1014 18.5325L27.1035 18.5289L27.1035 18.5288L27.2063 18.3488L27.1009 18.5333Z" fill="url(#paint0_linear_517_107)" stroke="black"/>
</g>
<defs>
<linearGradient id="paint0_linear_517_107" x1="-17.1037" y1="-25.3256" x2="64.2769" y2="72.3319" gradientUnits="userSpaceOnUse">
<stop stop-color="#273498"/>
<stop offset="0.53" stop-color="#0074C2"/>
<stop offset="1" stop-color="#00ABE7"/>
</linearGradient>
<clipPath id="clip0_517_107">
<rect width="48" height="48" fill="white"/>
</clipPath>
</defs>
</svg>
