<svg width="48" height="48" viewBox="0 0 48 48" fill="none" xmlns="http://www.w3.org/2000/svg">
    <path d="M24 48C37.2548 48 48 37.2548 48 24C48 10.7452 37.2548 0 24 0C10.7452 0 0 10.7452 0 24C0 37.2548 10.7452 48 24 48Z" fill="#353535"/>
    <path d="M34.2385 10.1103C31.7106 8.44801 28.7424 7.59871 25.726 7.67467C25.1408 6.35143 24.4501 5.85202 23.4865 6.03725C22.5027 6.22351 22.0199 6.90406 21.9317 8.26824C21.2217 8.5159 20.5118 8.85873 19.7562 9.00508C16.9376 9.55566 14.4578 10.7622 12.3248 12.6985C12.2751 12.7435 12.2234 12.7824 12.1737 12.8203C11.3623 12.4693 10.8897 12.5133 10.5124 12.9625C10.1351 13.4118 10.1503 13.8467 10.4931 14.4352C9.79026 15.7881 9.11782 17.0755 8.45349 18.367C8.3664 18.5515 8.29547 18.7432 8.24152 18.9401C8.13198 19.2942 8.05591 19.5839 7.56603 19.676C6.92098 19.7957 6.80028 20.6676 7.34391 21.0739C7.56806 21.2417 7.635 21.3809 7.59849 21.6521C7.14682 24.7566 7.66848 27.9258 9.09044 30.7163C9.11967 30.8003 9.13001 30.8897 9.12071 30.9783C9.11142 31.0668 9.08271 31.1521 9.03668 31.228C8.65431 31.7673 8.56303 32.324 8.89367 32.8992C9.21012 33.4508 9.70507 33.6637 10.3471 33.6156C10.4436 33.6178 10.5384 33.6416 10.6247 33.6853C10.711 33.729 10.7866 33.7915 10.8461 33.8683C13.3746 37.8115 16.9041 40.2011 21.5159 40.8601C22.6834 41.0293 23.8678 41.0451 25.0393 40.9072C26.9218 40.6759 28.8377 40.4375 30.643 39.8838C37.1027 37.8923 41.3595 31.5473 40.9761 24.7458C40.9122 23.6119 41.0014 22.4678 40.9071 21.3379C40.5967 17.6456 39.0703 14.5171 36.4597 11.9228C36.2061 11.672 36.0753 11.4919 36.2568 11.1102C36.4728 10.6445 36.2862 10.1973 35.8957 9.88212C35.5053 9.56692 35.058 9.55157 34.6198 9.81356C34.4872 9.90501 34.3598 10.0041 34.2385 10.1103ZM32.1309 34.7935C31.4869 35.2755 30.8783 35.7278 30.2728 36.1843C29.005 37.1391 27.583 37.5014 26.0059 37.4492C23.2888 37.3581 20.7785 36.6796 18.4508 35.21C14.7631 32.8818 12.5683 29.5691 11.7417 25.2944C11.7153 25.1572 11.8431 24.929 11.9658 24.8338C12.624 24.3222 12.6758 23.4942 12.0145 22.9733C11.7985 22.8024 11.7822 22.6602 11.836 22.4176C12.2782 20.4205 13.1283 18.5383 14.332 16.8913C15.184 15.7165 16.1506 14.6327 17.3585 13.8447C18.0898 13.3668 19.1517 13.419 19.5726 12.4283C20.7309 11.8726 21.8972 11.2934 23.2036 11.2576C25.6246 11.1892 28.0232 11.7424 30.1744 12.8653C30.4544 13.0096 30.6471 13.1099 30.5801 13.5295C30.4838 14.1589 31.1887 14.5866 31.7577 14.2981C31.8697 14.2331 31.9778 14.1613 32.0812 14.0831C33.9068 15.4228 35.8978 17.3017 36.4323 20.0188C36.5864 20.8007 36.7365 21.5846 36.838 22.3726C36.8597 22.6509 36.8019 22.9297 36.6716 23.176C36.4019 23.7091 36.2588 24.2853 36.552 24.7868C36.9049 25.3906 36.8197 25.9647 36.6666 26.548C36.4039 27.5479 36.1412 28.5539 35.774 29.5159C35.2778 30.8152 34.5624 32.0181 33.6593 33.0711C33.1238 32.8194 32.638 32.8081 32.2242 33.2226C31.7759 33.6729 31.8073 34.1907 32.1309 34.7935ZM40.686 22.3562C39.9953 19.8612 39.2397 18.2248 37.8887 16.4615C37.3644 15.7768 36.7822 15.1362 36.2568 14.4526C34.1959 11.7723 31.5649 9.94353 28.3163 9.05522C27.4299 8.8137 26.513 8.68271 25.5901 8.49645C25.5992 8.41765 25.6033 8.33476 25.6195 8.25493C25.6357 8.17511 25.6672 8.06663 25.6986 7.94792C28.6033 7.855 31.4678 8.65286 33.9139 10.2362C34.0153 10.3038 34.0853 10.5084 34.0884 10.6507C34.1097 11.5717 34.7314 12.0558 35.5955 11.8399C35.7507 11.801 36.0012 11.8481 36.1027 11.9576C36.7629 12.6811 37.4546 13.3903 38.0226 14.1824C39.7671 16.616 40.6404 19.3587 40.686 22.3562ZM18.8718 9.56385C18.6943 9.65186 18.5198 9.74601 18.3413 9.82891C14.9466 11.41 12.4435 13.8999 10.8836 17.3273C10.4779 18.2197 10.2183 19.1786 9.843 20.0904C8.79297 22.5755 8.42817 25.3006 8.78718 27.9777C8.88861 28.7125 9.04987 29.4391 9.18679 30.178C9.15535 30.1524 9.12086 30.1381 9.10869 30.1135C7.84501 27.4585 7.41676 24.477 7.88147 21.5692C7.90276 21.426 8.05895 21.2694 8.19283 21.1824C8.6746 20.8754 8.774 20.4189 8.49001 19.9144C8.39161 19.7356 8.36165 19.5266 8.40583 19.327C8.88136 17.7805 9.6143 16.327 10.5733 15.0287C10.7234 14.8241 10.8522 14.7299 11.1473 14.7811C12.0145 14.9295 12.6474 14.2438 12.4273 13.3903C12.3472 13.0771 12.4273 12.9165 12.6453 12.7507C13.3097 12.2574 13.9466 11.7222 14.6373 11.2719C15.9228 10.4257 17.3622 9.84577 18.8718 9.56589V9.56385ZM35.5164 34.3473C35.4841 34.4293 35.4468 34.5093 35.4049 34.5868C33.3439 37.44 30.6379 39.3762 27.2443 40.241C26.4329 40.4457 25.5201 40.2717 24.6458 40.2717C24.6265 39.7712 24.4927 39.3762 23.9896 39.2708C23.4176 39.1521 23.1214 39.5041 22.8902 40.1059L19.0776 38.6506C25.1154 39.41 30.5396 38.0172 35.5164 34.3473ZM40.7002 26.0895C40.6535 33.1683 35.0854 39.0446 28.862 40.066C28.8837 40.0406 28.9086 40.0182 28.936 39.9995C29.0588 39.9422 29.1825 39.8889 29.3062 39.8357C31.554 38.8842 33.5315 37.3827 35.06 35.4669C36.1047 34.161 37.1108 32.8245 38.1504 31.5145C38.2863 31.3607 38.4677 31.2552 38.6677 31.2137C39.2904 31.0878 39.5754 30.6129 39.3776 30.0112C39.3234 29.845 39.3234 29.6657 39.3776 29.4995C39.8208 28.3175 40.2884 27.1395 40.7002 26.0895ZM9.6219 21.5385C9.2162 25.2872 9.94848 28.7729 12.0733 31.8748C13.1038 33.3781 14.3462 34.7351 15.5136 36.1392C15.7296 36.3992 15.8514 36.611 15.6779 36.9272C14.119 36.2293 11.8116 34.3432 11.1483 33.2359C12.0378 31.8758 11.4526 30.8708 9.66449 30.7142C8.67865 27.6584 8.65228 24.5995 9.6219 21.5385ZM38.0206 22.2549C36.5205 18.366 34.775 14.6818 31.5294 11.9555C33.4768 12.7312 35.3166 13.7485 36.5793 15.435C38.0723 17.4327 38.7813 19.7926 38.9699 22.3286L38.0206 22.2549ZM17.7683 10.6384C18.9326 9.7061 20.2836 9.28958 21.7116 9.07876C21.8919 9.04886 22.0765 9.05999 22.252 9.11134C22.4275 9.16269 22.5894 9.25296 22.7259 9.37555C23.3283 9.86268 24.0241 9.86677 24.7199 9.51063C24.874 9.43081 25.0698 9.34177 25.227 9.37043C26.6639 9.63956 28.0442 10.1564 29.3073 10.8983C29.212 10.9152 29.1144 10.9124 29.0202 10.8902C27.5729 10.6087 26.1114 10.4808 24.6499 10.6855C23.0017 10.9147 21.3658 11.2228 19.7217 11.4807C19.5736 11.5042 19.3332 11.4663 19.2622 11.366C18.889 10.8431 18.4032 10.622 17.7683 10.6384ZM12.6819 32.2923C12.6382 32.2401 12.5916 32.19 12.553 32.1368C10.2578 28.8619 9.44136 25.2309 9.96471 21.2571C10.2284 19.2523 11.3603 17.7592 12.6017 16.1903C12.6088 16.2583 12.6088 16.3269 12.6017 16.395C11.7405 18.2854 11.2711 20.3335 11.2224 22.4135C11.2224 22.5578 11.0499 22.7472 10.9079 22.829C10.4891 23.0705 10.2365 23.4083 10.2477 23.8923C10.2453 24.1164 10.3124 24.3355 10.4398 24.5191C10.5671 24.7026 10.7482 24.8413 10.9576 24.9157L11.2437 25.0406C11.1564 27.5776 11.6646 29.9784 12.6819 32.2923ZM34.1127 34.5694C34.0813 34.2112 34.1127 33.8663 34.0113 33.5695C33.916 33.3014 33.9575 33.1448 34.1127 32.937C35.4836 31.1609 36.4285 29.0887 36.8735 26.8827C36.9556 26.4733 37.0317 26.0701 37.1098 25.6669L38.0916 26.0599C38.3745 29.6949 36.5489 32.28 34.1127 34.5694ZM11.5266 25.8931C12.4212 29.6335 14.4101 32.6413 17.4254 34.8887L15.9852 35.6552C15.3473 35.0718 14.5156 34.5346 13.9831 33.7813C12.3289 31.4449 11.5723 28.7749 11.5266 25.8931ZM38.122 29.6161C38.4212 28.5477 38.7478 27.467 39.0206 26.3618C39.1058 26.0169 39.2164 25.758 39.4973 25.5226C40.2793 24.8666 40.3817 23.6467 39.6697 22.9344C39.3178 22.5834 39.2295 22.2088 39.1859 21.7708C39.1687 21.602 39.1454 21.4331 39.121 21.2653C38.8918 19.6944 38.4111 18.2023 37.7772 16.7419C38.3777 17.6284 38.9198 18.5539 39.3999 19.5122C40.1099 20.9736 40.6414 22.5415 40.617 24.1584C40.5846 26.0742 39.9365 27.8805 39.047 29.5373L38.122 29.6161ZM11.5591 22.4524L11.3562 22.3961C11.6169 21.0514 11.8482 19.7005 12.1443 18.363C12.6616 16.0235 14.0714 14.3881 16.1384 13.2583C16.6638 12.9717 17.0005 12.9277 17.3423 13.4814C14.3523 15.7543 12.3948 18.7334 11.5591 22.4493V22.4524ZM11.2863 33.9328C12.5273 35.2586 13.9795 36.3655 15.5826 37.2077C15.7191 37.2996 15.8251 37.4308 15.8869 37.5843C16.323 38.493 17.181 38.8901 18.1537 38.6537C18.3717 38.596 18.6028 38.6148 18.8089 38.7069C20.0347 39.3889 21.3442 39.9051 22.7035 40.242C22.8892 40.287 23.0403 40.4805 23.2979 40.6708C19.3931 41.1989 13.0784 37.615 11.2863 33.9297V33.9328ZM25.3051 9.01122C26.8264 8.00318 33.8531 11.3517 35.2081 13.6789C34.4981 13.2409 33.7882 12.7282 33.0102 12.3342C31.4361 11.5359 29.8448 10.7663 28.2301 10.0541C27.298 9.64674 26.3092 9.36429 25.3051 9.01122ZM27.0587 37.7347C27.0062 37.7699 26.9509 37.8007 26.8934 37.8268C24.4379 38.6803 22.0423 38.2362 19.6639 37.4737C19.608 37.4507 19.5583 37.4147 19.5188 37.3686C19.4793 37.3226 19.4512 37.2678 19.4367 37.2087C19.4093 36.8484 19.4255 36.4851 19.4255 36.1096C21.7922 37.2956 24.4189 37.8548 27.0587 37.7347ZM24.6194 10.9771L24.6144 10.8339C25.871 10.9024 27.1378 10.8983 28.3813 11.0662C29.1926 11.1757 30.0669 11.3886 30.7525 11.8153C32.1786 12.7057 33.3155 13.9521 34.276 15.347C34.3663 15.477 34.4393 15.6172 34.5701 15.8372C33.775 15.1516 33.0579 14.5467 32.3611 13.9194C32.2597 13.8263 32.2303 13.6277 32.2039 13.4722C32.1136 12.9318 31.6562 12.6535 31.1268 12.7558C30.8802 12.7963 30.6274 12.7709 30.3935 12.6821C29.289 12.2789 28.2109 11.7918 27.0901 11.4448C26.294 11.1962 25.444 11.1245 24.6194 10.9771ZM16.2013 11.3425C14.6089 13.3156 12.8431 15.5046 11.0783 17.6947C12.1981 14.9561 14.0075 12.8029 16.1982 11.3405L16.2013 11.3425ZM29.5892 37.0081C30.4331 36.3705 31.2759 35.7309 32.1248 35.0995C32.2116 35.0317 32.3195 34.9976 32.4291 35.0033C32.7273 35.0514 33.0214 35.1322 33.3226 35.2018C32.2333 36.1751 30.9513 36.7134 29.5852 37.006L29.5892 37.0081ZM16.6364 12.6514L14.2286 14.2387L14.1271 14.1364L16.6354 11.364L16.6364 12.6514ZM22.9267 38.5503C21.5929 38.6129 20.2571 38.4802 18.961 38.1563L19.2714 37.7163L22.9267 38.5503ZM36.9049 31.8379C36.5367 33.2768 35.4667 34.1211 34.274 34.8917L36.9049 31.8379ZM37.1869 22.5548C37.0114 21.5907 36.837 20.6349 36.6625 19.678C37.0226 20.3944 37.2792 21.1578 37.5652 21.9049C37.7295 22.3204 37.5763 22.4964 37.1919 22.5548H37.1869ZM38.122 31.1113L37.0702 32.4489L37.0063 32.3998C37.2538 31.7683 37.5003 31.1369 37.7548 30.486L38.122 31.1113ZM38.3766 27.99L38.3005 27.9838C38.3309 27.4271 38.3431 26.8683 38.4019 26.3147C38.4161 26.1765 38.5835 26.0548 38.6808 25.9258L38.8401 26.0343L38.3766 27.99ZM19.4773 12.1581C19.5452 11.7641 19.8698 11.629 20.8536 11.5502L19.4773 12.1581ZM29.2981 37.3366L29.3275 37.4471L27.8538 37.8749L27.8143 37.7224L29.2981 37.3366Z" fill="white"/>
</svg>
