<svg width="48" height="48" viewBox="0 0 48 48" fill="none" xmlns="http://www.w3.org/2000/svg">
    <g clip-path="url(#clip0_819_224)">
        <path d="M0.00344494 23.99C-0.208001 10.8833 10.9075 -0.0739725 24.1246 -0.000117089C36.6799 0.0745971 47.9983 10.2976 48 24.0261C48 37.2642 37.2068 48.0446 23.9381 47.9999C10.1168 47.9535 -0.217456 36.5532 0.00344494 23.99ZM23.8986 35.192C27.837 35.1774 31.7754 35.1808 35.7138 35.0924C36.7057 35.07 37.6907 34.9876 38.6405 34.6956C38.9313 34.6122 39.1972 34.4591 39.4152 34.2495C39.6331 34.04 39.7965 33.7804 39.8911 33.4933C40.3209 32.3005 39.6444 31.3137 38.3887 31.2768C38.1308 31.2691 37.8729 31.2699 37.6151 31.2699C36.3688 31.2699 35.1224 31.2699 33.877 31.2648C33.7308 31.2648 33.4541 31.3738 33.5804 31.0071C34.0832 29.53 34.2732 28.0014 34.268 26.4487C34.268 26.1499 34.3592 26.0545 34.66 26.0588C35.8195 26.0734 36.9807 26.0683 38.1403 26.0588C38.3976 26.0591 38.6545 26.0364 38.9078 25.991C39.6247 25.8579 39.9453 25.4757 39.9573 24.7466C39.9651 24.2889 39.9573 23.8311 39.9573 23.3725C39.9573 22.4932 39.6857 22.1617 38.815 21.9985C38.5896 21.9598 38.3612 21.9409 38.1325 21.9418C37.0297 21.9367 35.9261 21.9178 34.8242 21.9504C34.3944 21.9633 34.3084 21.8199 34.3084 21.4188C34.3295 20.0003 34.1315 18.587 33.7214 17.2288C33.5727 16.7333 33.5606 16.7367 34.0832 16.7359H34.8139C36.0172 16.7359 37.2206 16.747 38.4239 16.729C39.2955 16.7153 39.7717 16.3546 39.9418 15.6126C40.0211 15.3059 40.0213 14.9842 39.9426 14.6774C39.8638 14.3707 39.7086 14.0888 39.4915 13.8581C39.0282 13.3351 38.3921 13.2123 37.7569 13.1032C36.4805 12.8816 35.1877 12.9315 33.9002 12.9014C26.5528 12.7537 19.2061 12.7608 11.8599 12.9229C10.9711 12.9435 10.0841 13.019 9.23573 13.3153C8.33752 13.6288 7.78913 14.5443 7.94643 15.4443C8.10372 16.3443 8.61859 16.7118 9.73341 16.7153C11.1803 16.7216 12.6269 16.7216 14.0732 16.7153C14.3233 16.7153 14.448 16.7341 14.3397 17.0416C13.8239 18.5015 13.6752 20.0224 13.6632 21.5588C13.6632 21.8628 13.5687 21.947 13.2713 21.9427C12.0971 21.9272 10.923 21.9427 9.74716 21.9349C9.46059 21.9316 9.17481 21.9656 8.89708 22.0363C8.26961 22.1986 7.98339 22.5516 7.96964 23.2025C7.95932 23.7032 7.96104 24.2047 7.96362 24.7054C7.96792 25.474 8.29282 25.8613 9.06125 25.9936C9.31522 26.0354 9.57227 26.0558 9.82967 26.0545C10.9325 26.0614 12.0352 26.0717 13.138 26.0545C13.4956 26.0468 13.6005 26.1524 13.5953 26.5105C13.5764 27.8039 13.7801 29.074 14.0672 30.3321C14.1334 30.6224 14.4187 30.9728 14.2718 31.1695C14.0999 31.3945 13.683 31.2467 13.3735 31.2502C12.0129 31.2656 10.6523 31.2459 9.29246 31.2837C8.55154 31.3043 8.11662 31.7302 7.95588 32.4516C7.75131 33.3757 8.32548 34.3779 9.23058 34.6604C9.94194 34.8848 10.6804 35.0122 11.4258 35.0391C15.5946 35.1722 19.7479 35.1697 23.902 35.192H23.8986Z" fill="#4A6DDA"/>
        <path d="M23.902 35.1911C19.7479 35.1697 15.5946 35.1722 11.443 35.0357C10.6975 35.0087 9.95912 34.8813 9.24776 34.657C8.34267 34.3744 7.7685 33.3688 7.97307 32.4482C8.1338 31.7268 8.56873 31.3008 9.30965 31.2802C10.6694 31.2424 12.0301 31.2622 13.3907 31.2467C13.7002 31.2467 14.1196 31.391 14.2889 31.166C14.4359 30.9694 14.1506 30.619 14.0844 30.3287C13.7973 29.0706 13.5936 27.8004 13.6125 26.5071C13.6177 26.149 13.5128 26.0434 13.1552 26.0511C12.0524 26.0726 10.9496 26.0623 9.84686 26.0511C9.58946 26.0524 9.33241 26.032 9.07843 25.9901C8.31001 25.8579 7.9851 25.4749 7.98081 24.702C7.98081 24.2013 7.97651 23.6998 7.98682 23.1991C8.00057 22.5498 8.2868 22.1952 8.91426 22.0329C9.19199 21.9622 9.47778 21.9281 9.76435 21.9315C10.9393 21.9315 12.1135 21.9238 13.2884 21.9392C13.5858 21.9435 13.6778 21.8594 13.6804 21.5554C13.6924 20.019 13.8446 18.499 14.3569 17.0382C14.4652 16.7307 14.3405 16.7101 14.0904 16.7118C12.6435 16.7187 11.1969 16.7187 9.75059 16.7118C8.63319 16.7118 8.12177 16.3365 7.96361 15.4408C7.80546 14.5451 8.35298 13.6254 9.25292 13.3119C10.1013 13.0156 10.9883 12.9401 11.8771 12.9194C19.2238 12.7511 26.5706 12.744 33.9173 12.898C35.2066 12.9246 36.496 12.8782 37.7741 13.0998C38.4093 13.2089 39.0453 13.3317 39.5086 13.8547C39.7268 14.0858 39.8827 14.3685 39.9616 14.6763C40.0405 14.9841 40.0399 15.3068 39.9599 15.6143C39.788 16.3537 39.3135 16.7144 38.4419 16.7307C37.2386 16.7488 36.0352 16.7367 34.8319 16.7376H34.1013C33.5787 16.7376 33.5907 16.7376 33.7394 17.2305C34.1495 18.5887 34.3476 20.002 34.3265 21.4205C34.3205 21.8216 34.4073 21.965 34.8422 21.9521C35.9441 21.9195 37.0478 21.9384 38.1506 21.9435C38.3793 21.9426 38.6076 21.9616 38.833 22.0002C39.7037 22.1634 39.9736 22.4949 39.9754 23.3743C39.9754 23.832 39.9754 24.2897 39.9754 24.7483C39.9633 25.474 39.6427 25.8596 38.9259 25.9927C38.6725 26.0381 38.4157 26.0608 38.1583 26.0605C36.9979 26.0674 35.8375 26.0726 34.678 26.0605C34.3772 26.0605 34.2861 26.1516 34.2861 26.4504C34.2861 28.004 34.097 29.5317 33.5985 31.0089C33.4721 31.3799 33.7489 31.2665 33.895 31.2665C35.1413 31.2751 36.3877 31.2708 37.6331 31.2716C37.891 31.2716 38.1488 31.2716 38.4067 31.2785C39.6625 31.3154 40.3372 32.3022 39.9092 33.495C39.8146 33.7821 39.6512 34.0417 39.4332 34.2513C39.2152 34.4608 38.9493 34.6139 38.6585 34.6973C37.7053 34.9893 36.7237 35.0718 35.7318 35.0941C31.7788 35.1808 27.8404 35.1774 23.902 35.1911ZM23.9819 21.9375C25.6563 21.9375 27.3307 21.9375 29.0051 21.9375C29.5827 21.9375 29.6128 21.9075 29.5784 21.3209C29.5526 20.8915 29.5251 20.4621 29.4718 20.0396C29.2999 18.6501 28.6742 17.5921 27.243 17.1996C25.0786 16.599 22.7887 16.6186 20.6349 17.2563C19.4995 17.5852 18.8617 18.4028 18.6305 19.5518C18.5104 20.1548 18.436 20.766 18.4079 21.3802C18.3829 21.8954 18.4276 21.9367 18.9597 21.9375C20.6341 21.9387 22.3081 21.9387 23.9819 21.9375ZM23.9819 26.0597C22.2629 26.0597 20.5438 26.0657 18.8247 26.0545C18.4525 26.0545 18.3013 26.1825 18.3382 26.5595C18.401 27.2002 18.4388 27.8408 18.5746 28.4729C18.8471 29.7318 19.606 30.5159 20.8464 30.8371C22.929 31.3773 25.0117 31.3455 27.0892 30.8113C28.2994 30.4996 29.0309 29.7181 29.3145 28.5046C29.4581 27.888 29.4864 27.2603 29.5294 26.6325C29.5638 26.1086 29.5242 26.0605 29.0042 26.0597C27.3316 26.058 25.6578 26.0585 23.9828 26.0614L23.9819 26.0597Z" fill="white"/>
        <path d="M23.9819 21.9376C22.3081 21.9376 20.634 21.9376 18.9597 21.9376C18.4276 21.9376 18.3829 21.8938 18.4078 21.3802C18.436 20.766 18.5104 20.1549 18.6305 19.5519C18.8617 18.4028 19.4995 17.5853 20.6349 17.2563C22.7887 16.6187 25.0786 16.599 27.243 17.1997C28.6742 17.5913 29.3016 18.6476 29.4735 20.0388C29.5268 20.4639 29.5543 20.8924 29.5801 21.3201C29.6145 21.9067 29.5801 21.9367 29.0068 21.9367C27.3313 21.9384 25.6563 21.9387 23.9819 21.9376Z" fill="#4A6DDA"/>
        <path d="M23.9828 26.0609C25.6572 26.0609 27.3321 26.0609 29.0077 26.0609C29.5234 26.0609 29.5672 26.1098 29.5328 26.6337C29.4924 27.2614 29.4615 27.8892 29.318 28.5058C29.0343 29.7193 28.3028 30.5007 27.0926 30.8125C25.0151 31.3466 22.9325 31.3784 20.8498 30.8382C19.6086 30.5171 18.8505 29.733 18.578 28.474C18.4422 27.842 18.4061 27.2013 18.3417 26.5607C18.3047 26.1837 18.456 26.0531 18.8282 26.0557C20.5464 26.0677 22.2646 26.0617 23.9828 26.0609Z" fill="#4A6DDA"/>
    </g>
    <defs>
        <clipPath id="clip0_819_224">
            <rect width="48" height="48" fill="white"/>
        </clipPath>
    </defs>
</svg>
