<svg width="48" height="48" viewBox="0 0 48 48" fill="none" xmlns="http://www.w3.org/2000/svg">
<g clip-path="url(#clip0_628_152)">
<path d="M33.0266 19.1005L36.9433 22.0748L39.4201 23.9527L36.6534 25.3639L31.0968 28.21L33.0033 29.528L35.6654 31.3825L32.7823 32.8755L15.1125 42.0198C18.0506 43.6419 21.3497 44.4925 24.7032 44.4925C35.6888 44.4925 44.5943 35.5582 44.5943 24.5352C44.6046 19.8617 42.9702 15.3345 39.9792 11.7517L33.0266 19.1005Z" fill="#091B26"/>
<path d="M15.5675 30.4563L11.6508 27.4704L9.17403 25.5925L11.9407 24.1812L17.4973 21.3348L15.5908 20.0056L12.9287 18.1507L15.8118 16.6577L34.4232 7.02348C31.271 5.03921 27.623 3.99177 23.9018 4.00252C12.9163 4.00252 4.01083 12.9369 4.01083 23.9599C4.01083 29.0802 5.9406 33.7575 9.10261 37.2917L15.5675 30.4563Z" fill="#091B26"/>
<path d="M7.59101 38.2922C4.08033 34.4315 1.94129 29.2994 1.94129 23.6774C1.94129 11.6988 11.6598 1.94777 23.5986 1.94777C28.0044 1.94777 32.294 3.28911 35.9095 5.81981L37.8393 4.81674C33.8876 1.79616 28.9461 0 23.5986 0C10.5904 0 0 10.6258 0 23.6774C0 29.859 2.37156 35.4812 6.24261 39.7029L7.59101 38.2916V38.2922Z" fill="#091B26"/>
<path d="M40.8856 10.2562C44.1058 14.0469 46.0588 18.969 46.0588 24.3226C46.0588 36.3013 36.3402 46.0523 24.4014 46.0523C20.356 46.0523 16.3918 44.9209 12.9741 42.7747L10.9861 43.8011C14.9271 46.5421 19.6118 48.0006 24.4014 48.0006C37.4097 48.0006 48.0001 37.3749 48.0001 24.3232C48.0001 18.4092 45.8263 12.9861 42.2342 8.83374L40.8858 10.2568L40.8856 10.2562Z" fill="#091B26"/>
<path d="M12.9585 26.0175L18.6082 30.3097L5.84402 43.8048L31.2213 30.6715L26.641 27.4873L35.0924 23.1483L29.4427 18.856L42.2069 5.3728L16.8297 18.5061L21.4099 21.691L12.9585 26.0175Z" fill="#23BEE2"/>
</g>
<defs>
<clipPath id="clip0_628_152">
<rect width="48" height="48" fill="white"/>
</clipPath>
</defs>
</svg>
