<svg xmlns="http://www.w3.org/2000/svg" width="48" height="48" viewBox="0 0 48 48" fill="none">
<g clip-path="url(#clip0_628_104)">
<path fill-rule="evenodd" clip-rule="evenodd" d="M9.20547 39.1483L24.2466 45.2305L39.2055 38.8195L45.2055 23.7784L38.7945 8.8195L23.7534 2.8195L8.79451 9.23046L2.79451 24.2716L9.20547 39.1483ZM24.2466 48.025C24.0822 48.025 23.9178 48.025 23.7534 47.9428L7.64383 41.4496C7.31506 41.2853 7.06848 41.0387 6.9041 40.7099L0.0821805 24.7647C-0.0822031 24.4359 -0.0822031 24.1072 0.0821805 23.6962L6.57533 7.66882C6.73972 7.34005 6.98629 7.09348 7.31506 6.92909L23.2603 0.107174C23.589 -0.0572092 23.9178 -0.0572092 24.3288 0.107174L40.4383 6.60032C40.6849 6.68252 40.9315 6.92909 41.0959 7.25786L47.9178 23.2031C48.0822 23.5318 48.0822 23.8606 47.9178 24.2716L41.4247 40.3811C41.2603 40.7099 41.0137 40.9565 40.6849 41.1209L24.7397 47.9428C24.6575 48.025 24.4109 48.025 24.2466 48.025Z" fill="black"/>
<path fill-rule="evenodd" clip-rule="evenodd" d="M27.452 23.7785L21.0411 30.847H31.2329V33.9702H16.8493V30.847L23.2603 23.7785L16.8493 17.1209V14.0798H31.2329V17.1209H21.2055L27.452 23.7785Z" fill="black"/>
</g>
<defs>
<clipPath id="clip0_628_104">
<rect width="48" height="48" fill="white"/>
</clipPath>
</defs>
</svg>