<svg width="48" height="48" viewBox="0 0 48 48" fill="none" xmlns="http://www.w3.org/2000/svg">
    <g clip-path="url(#clip0_819_206)">
        <path d="M24.0014 0.00830094C19.2542 0.00776247 14.6135 1.41496 10.6662 4.05194C6.71882 6.68891 3.64207 10.4372 1.82505 14.8229C0.00802681 19.2085 -0.467661 24.0344 0.458129 28.6904C1.38392 33.3464 3.6696 37.6233 7.02615 40.9802C10.3827 44.3372 14.6593 46.6233 19.3152 47.5496C23.9711 48.476 28.7971 48.0008 33.1829 46.1843C37.5688 44.3678 41.3174 41.2915 43.9548 37.3444C46.5923 33.3973 48 28.7568 48 24.0097C48 17.6446 45.4717 11.5402 40.9711 7.0391C36.4706 2.53805 30.3664 0.00902293 24.0014 0.00830094ZM36.424 31.5591C34.7606 31.0936 33.4293 31.8313 32.0844 32.5991C32.0517 32.5201 32.0191 32.4412 31.9809 32.3622C31.6651 31.6705 31.2869 31.0089 30.8511 30.3857C31.1439 30.3732 31.4364 30.4148 31.7141 30.5082C31.8868 30.5741 32.0484 30.6659 32.1933 30.7805C31.8327 30.2706 31.2879 29.9211 30.6742 29.8058C30.6962 29.6717 30.7071 29.5361 30.7068 29.4002C30.7068 28.4174 30.1623 27.6224 29.4681 27.6224C28.7739 27.6224 28.2294 28.4174 28.2294 29.4002C28.2294 30.383 28.7739 31.1779 29.4681 31.1779C29.6182 31.173 29.7653 31.1353 29.8993 31.0676C30.0334 30.9999 30.151 30.9038 30.244 30.7859C30.7699 31.3865 31.2324 32.0397 31.6243 32.7352L31.6842 32.8468C31.5291 32.9612 31.3549 33.0469 31.1696 33.1C30.4482 33.2225 29.9581 32.7896 29.4626 32.3813C25.9643 29.5172 22.6946 29.5227 19.1553 32.4031C18.8438 32.7076 18.4666 32.9367 18.0527 33.0728H18.0173H17.9683C17.9349 33.077 17.9011 33.077 17.8676 33.0728C17.7772 33.083 17.6858 33.083 17.5954 33.0728C17.385 33.0353 17.1853 32.9526 17.01 32.8305C17.0427 32.7652 17.0781 32.6998 17.1162 32.6345C17.4976 31.9675 17.9454 31.3409 18.4529 30.7641C18.546 30.882 18.6636 30.9781 18.7976 31.0459C18.9316 31.1136 19.0788 31.1512 19.2289 31.1562C19.9122 31.1562 20.4676 30.3585 20.4676 29.3784C20.4676 28.3983 19.9231 27.6006 19.2289 27.6006C18.5346 27.6006 17.9874 28.3956 17.9874 29.3784C17.9867 29.5144 17.9985 29.6502 18.0228 29.784C17.4084 29.8994 16.8628 30.2489 16.5009 30.7587C16.6459 30.6441 16.8074 30.5523 16.9801 30.4864C17.2587 30.3928 17.5522 30.3512 17.8458 30.3639C17.4138 30.9789 17.0392 31.6323 16.7269 32.3159C16.6833 32.4031 16.6452 32.4902 16.6098 32.5882C15.2949 31.8477 13.9826 31.1044 12.3464 31.5292C12.3369 31.4496 12.3369 31.3691 12.3464 31.2896C13.2231 27.7504 13.9255 27.1432 18.4339 26.577C22.4746 26.0418 26.5713 26.0913 30.5979 26.724C31.4748 26.8571 32.3306 27.1042 33.1434 27.459C33.3966 27.5707 33.7451 27.7503 33.9384 27.6605C35.1553 27.1024 35.3595 27.9681 35.6427 28.7822C35.9258 29.6833 36.3042 30.5872 36.424 31.5509V31.5591ZM10.8491 10.3319C10.928 10.4218 11.0124 10.4817 11.0015 10.5198C9.92887 15.0282 12.9944 17.8705 16.3131 19.0983C16.5309 19.18 16.8004 19.1963 16.9066 19.4631C15.6815 20.0267 14.9328 18.8125 13.8982 18.6137C13.9391 20.0403 13.5906 20.5412 12.6132 20.4596C11.252 20.3479 10.31 19.8116 9.78731 18.415C9.19653 16.8441 9.37621 15.2542 9.30271 13.6016C8.80722 14.1461 8.88072 14.7532 8.82355 15.3331C8.82233 15.3403 8.82233 15.3477 8.82355 15.3549C8.72009 18.5184 10.0051 20.9196 12.7249 22.5695C12.9073 22.6811 13.4381 22.7029 13.1768 23.1984C9.55045 21.4478 7.64199 17.7534 8.5758 14.3149C8.73915 12.6488 9.57767 11.3828 10.8491 10.3319ZM36.1028 22.5531C35.7733 22.7791 35.4085 22.9452 35.0573 23.1412C34.3631 22.8526 35.0573 22.7791 35.1499 22.7247C37.0556 21.5322 38.6537 20.0621 39.0403 17.7452C39.2527 16.463 39.4487 15.1371 39.0104 13.8684C38.9237 13.6246 38.8162 13.3887 38.6891 13.1633L38.7055 14.1216C38.8881 14.5475 38.9822 15.0059 38.9822 15.4692C38.9822 15.9326 38.8881 16.3911 38.7055 16.8169C38.3651 18.1427 38.3515 19.5394 36.5656 20.0838C34.6435 20.661 34.5101 20.7209 34.2379 18.7226C34.2379 18.6736 34.1235 18.6382 34.0446 18.5865C33.1462 19.0929 32.2613 19.6564 31.1805 19.7163C31.137 19.1147 31.6597 19.15 31.9973 19.0275C33.5874 18.4323 34.9865 17.4171 36.0456 16.09C37.4613 14.3939 37.4504 12.4092 37.0475 10.272C37.8171 10.6571 38.4201 11.3095 38.7436 12.107C40.8617 15.4747 39.7073 20.1029 36.1 22.5531H36.1028Z" fill="url(#paint0_linear_819_206)"/>
        <path d="M24.0014 1.729C19.5963 1.729 15.2901 3.03527 11.6274 5.48261C7.96467 7.92996 5.10994 11.4085 3.42418 15.4782C1.73842 19.548 1.29735 24.0263 2.15674 28.3468C3.01613 32.6672 5.13739 36.6358 8.25227 39.7507C11.3671 42.8656 15.3357 44.9868 19.6562 45.8462C23.9767 46.7056 28.4549 46.2645 32.5247 44.5788C36.5945 42.893 40.073 40.0383 42.5203 36.3756C44.9677 32.7129 46.274 28.4067 46.274 24.0016C46.274 21.0767 45.6979 18.1805 44.5786 15.4782C43.4593 12.776 41.8187 10.3207 39.7505 8.2525C37.6823 6.1843 35.227 4.54371 32.5247 3.4244C29.8225 2.3051 26.9262 1.729 24.0014 1.729ZM8.57309 14.3123C8.73916 12.6489 9.57768 11.3829 10.8464 10.332C10.9253 10.4219 11.0097 10.4818 10.9988 10.5199C9.92615 15.0283 12.9917 17.8706 16.3104 19.0984C16.5282 19.1801 16.7977 19.1964 16.9039 19.4632C15.6788 20.0268 14.9301 18.8126 13.8955 18.6138C13.9364 20.0404 13.5879 20.5413 12.6105 20.4596C11.2493 20.348 10.3073 19.8117 9.78459 18.4151C9.19381 16.8442 9.37349 15.2543 9.29999 13.6017C8.8045 14.1462 8.878 14.7533 8.82083 15.3332C8.81961 15.3404 8.81961 15.3478 8.82083 15.355C8.71737 18.5185 10.0024 20.9197 12.7221 22.5696C12.9045 22.6812 13.4354 22.703 13.1741 23.1985C9.54774 21.4452 7.63928 17.7617 8.57309 14.3123ZM36.424 31.551C34.7606 31.0855 33.4293 31.8233 32.0844 32.591C32.0517 32.5121 32.0191 32.4331 31.9809 32.3542C31.6651 31.6624 31.287 31.0008 30.8511 30.3776C31.1439 30.3652 31.4364 30.4067 31.7142 30.5001C31.8868 30.566 32.0484 30.6578 32.1933 30.7724C31.8327 30.2625 31.2879 29.913 30.6742 29.7977C30.6962 29.6637 30.7071 29.528 30.7068 29.3921C30.7068 28.4093 30.1623 27.6143 29.4681 27.6143C28.7739 27.6143 28.2294 28.4093 28.2294 29.3921C28.2294 30.3749 28.7739 31.1699 29.4681 31.1699C29.6182 31.1649 29.7653 31.1273 29.8994 31.0596C30.0334 30.9919 30.151 30.8957 30.244 30.7778C30.7699 31.3784 31.2324 32.0316 31.6243 32.7271L31.6842 32.8388C31.5291 32.9531 31.3549 33.0389 31.1697 33.0919C30.4482 33.2145 29.9581 32.7816 29.4627 32.3732C25.9643 29.5092 22.6946 29.5146 19.1554 32.395C18.8438 32.6995 18.4666 32.9286 18.0528 33.0647H18.0174H17.9684C17.9349 33.0689 17.9011 33.0689 17.8676 33.0647C17.7772 33.0749 17.6858 33.0749 17.5954 33.0647C17.385 33.0272 17.1854 32.9445 17.01 32.8224C17.0427 32.7571 17.0781 32.6917 17.1162 32.6264C17.4976 31.9595 17.9454 31.3328 18.453 30.7561C18.546 30.8739 18.6636 30.9701 18.7976 31.0378C18.9316 31.1055 19.0788 31.1431 19.2289 31.1481C19.9122 31.1481 20.4676 30.3504 20.4676 29.3703C20.4676 28.3902 19.9231 27.5925 19.2289 27.5925C18.5346 27.5925 17.9874 28.3875 17.9874 29.3703C17.9867 29.5063 17.9985 29.6421 18.0228 29.776C17.4084 29.8914 16.8628 30.2408 16.5009 30.7506C16.6459 30.636 16.8075 30.5442 16.9801 30.4784C17.2587 30.3847 17.5522 30.3432 17.8458 30.3558C17.4138 30.9708 17.0392 31.6243 16.7269 32.3079C16.6833 32.395 16.6452 32.4821 16.6098 32.5801C15.2949 31.8396 13.9826 31.0964 12.3464 31.5211C12.3369 31.4415 12.3369 31.3611 12.3464 31.2815C13.2231 27.7423 13.9255 27.1352 18.4339 26.5689C22.4746 26.0337 26.5713 26.0832 30.5979 26.7159C31.4748 26.849 32.3306 27.0962 33.1435 27.451C33.3966 27.5626 33.7451 27.7423 33.9384 27.6524C35.1554 27.0943 35.3595 27.9601 35.6427 28.7741C35.9258 29.6834 36.3042 30.5873 36.424 31.551ZM36.1001 22.5532C35.7706 22.7792 35.4058 22.9453 35.0546 23.1413C34.3604 22.8527 35.0546 22.7792 35.1472 22.7248C37.0529 21.5323 38.651 20.0622 39.0376 17.7453C39.25 16.4631 39.446 15.1372 39.0077 13.8685C38.921 13.6247 38.8135 13.3888 38.6864 13.1634L38.7027 14.1217C38.8853 14.5475 38.9795 15.006 38.9795 15.4693C38.9795 15.9327 38.8853 16.3911 38.7027 16.817C38.3624 18.1428 38.3488 19.5394 36.5629 20.0839C34.6408 20.6611 34.5074 20.721 34.2352 18.7227C34.2352 18.6737 34.1208 18.6383 34.0419 18.5866C33.1434 19.093 32.2586 19.6565 31.1778 19.7164C31.1343 19.1147 31.657 19.1501 31.9946 19.0276C33.5847 18.4324 34.9838 17.4172 36.0429 16.0901C37.4586 14.394 37.4477 12.4093 37.0448 10.2721C37.8144 10.6572 38.4174 11.3096 38.7409 12.1071C40.8617 15.4748 39.7073 20.103 36.1001 22.5532Z" fill="#FFECB9"/>
        <path d="M36.2579 23.6939C39.416 21.6657 40.9597 18.8616 40.6847 15.0229C40.6381 13.9728 40.3755 12.9437 39.9131 11.9998C39.4508 11.0559 38.7987 10.2175 37.9976 9.53706C37.5566 9.15047 37.0665 8.82377 36.4649 9.14775C35.787 9.51256 35.8686 10.136 36.032 10.7486C36.9985 14.4076 34.6953 16.6836 31.7114 18.0094C31.5018 18.1286 31.2594 18.1771 31.0201 18.1476C30.7808 18.1182 30.5573 18.0125 30.3828 17.8461C29.3736 17.0263 28.171 16.4789 26.8899 16.2561C26.5932 16.1962 26.1875 16.2561 26.1385 15.8096C25.986 14.4048 24.8889 14.492 23.9469 14.492C23.0648 14.492 22.0847 14.5383 21.9677 15.7797C21.9214 16.2643 21.5321 16.1908 21.2462 16.248C19.9645 16.4701 18.76 17.0134 17.7451 17.827C17.5739 17.9961 17.3528 18.1057 17.1146 18.1395C16.8763 18.1733 16.6335 18.1296 16.422 18.0149C13.1114 16.5474 11.154 14.2388 12.1041 10.6642C12.2648 10.0571 12.2675 9.52617 11.6767 9.17769C11.0859 8.82922 10.5877 9.13958 10.1439 9.51528C8.91053 10.5178 8.02847 11.8872 7.62566 13.4248C6.504 17.5657 8.2001 21.5323 12.115 23.8437C12.6595 24.1622 13.027 24.2929 12.488 25.0198C12.2931 25.3103 12.1967 25.6557 12.2129 26.0052C12.2291 26.3546 12.357 26.6896 12.5778 26.9609C12.9427 27.4047 12.8501 27.7178 12.6813 28.1452C12.4472 28.6897 12.2566 29.2777 12.0497 29.8495C11.2493 32.071 11.2928 34.2054 12.7221 36.1956C13.834 37.7048 15.3578 38.8609 17.1108 39.5252C19.3791 40.4176 21.812 40.8148 24.2464 40.6904C27.5134 40.7693 30.5789 40.3419 33.3367 38.6567C36.8215 36.525 37.8969 33.6119 36.6554 29.7623C36.4732 29.1414 36.2486 28.5338 35.983 27.9437C35.4385 26.7948 35.9667 25.5806 35.7107 24.4045C35.6236 24.0696 35.9803 23.8736 36.2579 23.6939ZM8.57308 14.3123C8.73915 12.6488 9.57767 11.3829 10.8463 10.332C10.9253 10.4219 11.0097 10.4818 10.9988 10.5199C9.92615 15.0283 12.9917 17.8706 16.3104 19.0984C16.5282 19.1801 16.7977 19.1964 16.9039 19.4632C15.6787 20.0268 14.9301 18.8126 13.8955 18.6138C13.9364 20.0404 13.5879 20.5413 12.6105 20.4596C11.2493 20.348 10.3073 19.8117 9.78458 18.4151C9.1938 16.8442 9.37349 15.2543 9.29998 13.6017C8.80449 14.1462 8.87799 14.7533 8.82082 15.3332C8.8196 15.3404 8.8196 15.3478 8.82082 15.355C8.71737 18.5185 10.0024 20.9197 12.7221 22.5696C12.9045 22.6812 13.4354 22.703 13.1741 23.1985C9.54773 21.4452 7.63927 17.7617 8.57308 14.3123ZM36.424 31.551C34.7606 31.0855 33.4293 31.8233 32.0844 32.591C32.0517 32.512 32.0191 32.4331 31.9809 32.3541C31.6651 31.6624 31.287 31.0008 30.8511 30.3776C31.1439 30.3652 31.4364 30.4067 31.7141 30.5001C31.8868 30.566 32.0484 30.6578 32.1933 30.7724C31.8327 30.2625 31.2879 29.913 30.6742 29.7977C30.6962 29.6636 30.7071 29.528 30.7068 29.3921C30.7068 28.4093 30.1623 27.6143 29.4681 27.6143C28.7739 27.6143 28.2294 28.4093 28.2294 29.3921C28.2294 30.3749 28.7739 31.1699 29.4681 31.1699C29.6182 31.1649 29.7653 31.1273 29.8994 31.0596C30.0334 30.9918 30.151 30.8957 30.244 30.7778C30.7699 31.3784 31.2324 32.0316 31.6243 32.7271L31.6842 32.8388C31.5291 32.9531 31.3549 33.0389 31.1696 33.0919C30.4482 33.2145 29.9581 32.7816 29.4626 32.3732C25.9643 29.5092 22.6946 29.5146 19.1554 32.395C18.8438 32.6995 18.4666 32.9286 18.0527 33.0647H18.0173H17.9683C17.9349 33.0689 17.9011 33.0689 17.8676 33.0647C17.7772 33.0749 17.6858 33.0749 17.5954 33.0647C17.385 33.0272 17.1853 32.9445 17.01 32.8224C17.0427 32.7571 17.0781 32.6917 17.1162 32.6264C17.4976 31.9595 17.9454 31.3328 18.4529 30.7561C18.546 30.8739 18.6636 30.9701 18.7976 31.0378C18.9316 31.1055 19.0788 31.1431 19.2289 31.1481C19.9122 31.1481 20.4676 30.3504 20.4676 29.3703C20.4676 28.3902 19.9231 27.5925 19.2289 27.5925C18.5346 27.5925 17.9874 28.3875 17.9874 29.3703C17.9867 29.5063 17.9985 29.6421 18.0228 29.776C17.4084 29.8914 16.8628 30.2408 16.5009 30.7506C16.6459 30.636 16.8074 30.5442 16.9801 30.4784C17.2587 30.3847 17.5522 30.3432 17.8458 30.3558C17.4138 30.9708 17.0392 31.6243 16.7269 32.3079C16.6833 32.395 16.6452 32.4821 16.6098 32.5801C15.2949 31.8396 13.9826 31.0964 12.3464 31.5211C12.3369 31.4415 12.3369 31.3611 12.3464 31.2815C13.2231 27.7423 13.9255 27.1352 18.4339 26.5689C22.4746 26.0337 26.5713 26.0832 30.5979 26.7159C31.4748 26.849 32.3306 27.0961 33.1434 27.451C33.3966 27.5626 33.7451 27.7423 33.9384 27.6524C35.1553 27.0943 35.3595 27.9601 35.6427 28.7741C35.9258 29.6834 36.3042 30.5873 36.424 31.551ZM35.0628 23.1413C34.3686 22.8527 35.0628 22.7792 35.1553 22.7247C37.0611 21.5323 38.6592 20.0622 39.0458 17.7453C39.2581 16.4631 39.4541 15.1372 39.0158 13.8685C38.9291 13.6247 38.8217 13.3888 38.6946 13.1634L38.7109 14.1217C38.8935 14.5475 38.9877 15.006 38.9877 15.4693C38.9877 15.9327 38.8935 16.3911 38.7109 16.817C38.3706 18.1428 38.357 19.5394 36.571 20.0839C34.649 20.6611 34.5156 20.721 34.2433 18.7227C34.2433 18.6737 34.129 18.6383 34.05 18.5866C33.1516 19.093 32.2668 19.6565 31.186 19.7164C31.1424 19.1147 31.6651 19.1501 32.0027 19.0276C33.5929 18.4323 34.9919 17.4172 36.051 16.0901C37.4667 14.394 37.4558 12.4093 37.0529 10.2721C37.8226 10.6572 38.4256 11.3096 38.749 12.1071C40.8698 15.4666 39.7046 20.0948 36.1082 22.5451C35.7706 22.7792 35.4058 22.9453 35.0546 23.1495L35.0628 23.1413Z" fill="#221E20"/>
        <path d="M35.3514 35.9831C34.4885 37.1674 33.3157 38.0906 31.9619 38.6512C26.9035 40.6849 21.8179 40.674 16.7596 38.6512C15.4469 38.1018 14.305 37.2117 13.4518 36.073C12.4036 34.7281 11.9544 33.2361 12.3138 31.5373C13.9473 31.1126 15.2622 31.8559 16.5772 32.5964C16.6126 32.5092 16.6507 32.4221 16.6942 32.3241C16.8301 32.4206 16.9601 32.5251 17.0835 32.6372C17.0454 32.7025 17.01 32.7679 16.9774 32.8332C17.1527 32.9553 17.3524 33.038 17.5627 33.0755C17.6532 33.0857 17.7445 33.0857 17.835 33.0755C17.8684 33.0797 17.9022 33.0797 17.9357 33.0755H17.9847H18.0201C18.4339 32.9394 18.8111 32.7103 19.1227 32.4058C22.6619 29.5254 25.9289 29.52 29.43 32.384C29.9255 32.7924 30.4155 33.2253 31.137 33.1027C31.3222 33.0497 31.4965 32.9639 31.6515 32.8496L31.5916 32.7379C31.7014 32.6069 31.8206 32.4841 31.9483 32.3704C31.9864 32.4493 32.0191 32.5283 32.0517 32.6073C33.3857 31.8395 34.7279 31.1017 36.3914 31.5673C36.7834 33.2035 36.3424 34.6627 35.3514 35.9831Z" fill="#F9FAFA"/>
        <path d="M20.4295 29.3862C20.4295 30.3663 19.885 31.164 19.1907 31.164C19.0407 31.1591 18.8935 31.1214 18.7595 31.0537C18.6255 30.986 18.5079 30.8899 18.4148 30.772C17.9073 31.3488 17.4595 31.9754 17.0781 32.6423C17.04 32.7077 17.0046 32.773 16.9719 32.8384C16.8821 32.7812 16.8004 32.724 16.716 32.6723C16.6976 32.6604 16.6785 32.6495 16.6588 32.6396L16.5717 32.5906C16.6071 32.5035 16.6452 32.4164 16.6888 32.3184C17.0011 31.6347 17.3757 30.9813 17.8077 30.3663C17.5141 30.3537 17.2206 30.3952 16.942 30.4889C16.7693 30.5547 16.6078 30.6465 16.4628 30.7611C16.8246 30.2513 17.3703 29.9019 17.9847 29.7865C17.9604 29.6526 17.9486 29.5168 17.9493 29.3808C17.9493 28.398 18.4938 27.603 19.1907 27.603C19.8877 27.603 20.4295 28.4034 20.4295 29.3862Z" fill="#F5A328"/>
        <path d="M36.424 31.5509C34.7606 31.0853 33.4293 31.8231 32.0844 32.5908C32.0517 32.5119 32.0191 32.4329 31.9809 32.354C31.6651 31.6622 31.287 31.0006 30.8511 30.3775C31.1439 30.365 31.4364 30.4065 31.7141 30.5C31.8868 30.5658 32.0484 30.6576 32.1933 30.7722C31.8327 30.2624 31.2879 29.9128 30.6742 29.7976C30.6962 29.6635 30.7071 29.5278 30.7068 29.3919C30.7068 28.4091 30.1623 27.6142 29.4681 27.6142C28.7739 27.6142 28.2294 28.4091 28.2294 29.3919C28.2294 30.3747 28.7739 31.1697 29.4681 31.1697C29.6182 31.1648 29.7653 31.1271 29.8994 31.0594C30.0334 30.9917 30.151 30.8955 30.244 30.7777C30.7699 31.3783 31.2324 32.0315 31.6243 32.727L31.6842 32.8386C31.5291 32.953 31.3549 33.0387 31.1696 33.0918C30.4482 33.2143 29.9581 32.7814 29.4627 32.373C25.9643 29.509 22.6946 29.5144 19.1554 32.3948C18.8438 32.6993 18.4666 32.9284 18.0527 33.0646H18.0174H17.9684C17.9349 33.0687 17.9011 33.0687 17.8676 33.0646C17.7772 33.0747 17.6858 33.0747 17.5954 33.0646C17.385 33.027 17.1854 32.9444 17.01 32.8223C17.0427 32.7569 17.0781 32.6916 17.1162 32.6262C17.4976 31.9593 17.9454 31.3327 18.453 30.7559C18.546 30.8738 18.6636 30.9699 18.7976 31.0376C18.9316 31.1053 19.0788 31.143 19.2289 31.1479C19.9122 31.1479 20.4676 30.3502 20.4676 29.3701C20.4676 28.39 19.9231 27.5924 19.2289 27.5924C18.5346 27.5924 17.9874 28.3873 17.9874 29.3701C17.9867 29.5062 17.9985 29.642 18.0228 29.7758C17.4084 29.8912 16.8628 30.2406 16.5009 30.7504C16.6459 30.6358 16.8075 30.544 16.9801 30.4782C17.2587 30.3845 17.5522 30.343 17.8458 30.3557C17.4138 30.9707 17.0392 31.6241 16.7269 32.3077C16.6833 32.3948 16.6452 32.4819 16.6098 32.58C15.2949 31.8394 13.9826 31.0962 12.3464 31.5209C12.3369 31.4413 12.3369 31.3609 12.3464 31.2813C13.2231 27.7421 13.9255 27.135 18.4339 26.5687C22.4746 26.0335 26.5713 26.083 30.5979 26.7157C31.4748 26.8489 32.3306 27.096 33.1434 27.4508C33.3966 27.5624 33.7451 27.7421 33.9384 27.6523C35.1554 27.0941 35.3595 27.9599 35.6427 28.7739C35.9258 29.6832 36.3042 30.5871 36.424 31.5509Z" fill="#F5A328"/>
        <path d="M31.9809 32.3542C32.0191 32.4331 32.0517 32.5121 32.0844 32.591L31.8285 32.738C31.8112 32.7511 31.793 32.7629 31.774 32.7734L31.6842 32.8333L31.6243 32.7217C31.2324 32.0262 30.7699 31.373 30.244 30.7724C30.151 30.8903 30.0334 30.9864 29.8994 31.0541C29.7653 31.1218 29.6182 31.1595 29.4681 31.1644C28.782 31.1644 28.2294 30.3667 28.2294 29.3867C28.2294 28.4066 28.7739 27.6089 29.4681 27.6089C30.1623 27.6089 30.7068 28.4038 30.7068 29.3867C30.7071 29.5225 30.6962 29.6582 30.6742 29.7923C31.2888 29.9089 31.8337 30.2605 32.1933 30.7724C32.0484 30.6578 31.8868 30.566 31.7141 30.5002C31.4364 30.4067 31.1439 30.3652 30.8511 30.3776C31.287 31.0008 31.6651 31.6624 31.9809 32.3542Z" fill="#F5A328"/>
        <path d="M13.8955 18.6135C13.9364 20.0401 13.5879 20.541 12.6105 20.4594C11.2493 20.3477 10.3073 19.8114 9.78459 18.4148C9.19381 16.8439 9.37349 15.254 9.29998 13.6014C8.80449 14.1459 8.878 14.7531 8.82083 15.3329C8.81961 15.3401 8.81961 15.3475 8.82083 15.3547C8.71737 18.5182 10.0024 20.9195 12.7221 22.5693C12.9045 22.6809 13.4354 22.7027 13.1741 23.1982C9.54773 21.4476 7.63928 17.7532 8.57309 14.3147C8.73916 12.6513 9.57768 11.3853 10.8463 10.3345C10.9253 10.4243 11.0097 10.4842 10.9988 10.5223C9.92615 15.0307 12.9917 17.873 16.3104 19.1009C16.5282 19.1825 16.7977 19.1989 16.9039 19.4657C15.6787 20.0265 14.9328 18.8123 13.8955 18.6135Z" fill="#F5A328"/>
        <path d="M16.9039 19.4629C16.8167 20.1163 16.3403 19.9093 15.9782 19.8494C15.3766 19.7514 14.8566 19.4166 14.2358 19.1144C14.0834 19.893 13.8275 20.707 12.9154 20.688C11.9081 20.6635 10.8137 20.7506 10.1249 19.6643C9.0359 17.9709 8.83171 16.1551 9.18019 14.1894C8.95695 14.5597 9.25642 15.1014 8.82082 15.3519C8.8196 15.3447 8.8196 15.3373 8.82082 15.3301C8.87799 14.7503 8.80449 14.1322 9.29998 13.5986C9.37349 15.2512 9.1938 16.8411 9.78458 18.412C10.3073 19.8086 11.2629 20.3449 12.6105 20.4566C13.5879 20.5382 13.9364 20.0373 13.8955 18.6107C14.9328 18.8122 15.6787 20.0264 16.9039 19.4629Z" fill="#F5931D"/>
        <path d="M36.1 22.5531C35.7706 22.779 35.4058 22.9451 35.0546 23.1411C34.3604 22.8525 35.0546 22.779 35.1472 22.7246C37.0529 21.5321 38.651 20.062 39.0376 17.7452C39.25 16.4629 39.446 15.137 39.0076 13.8684C38.921 13.6245 38.8135 13.3886 38.6864 13.1632L38.7027 14.1216C38.8853 14.5474 38.9795 15.0059 38.9795 15.4692C38.9795 15.9325 38.8853 16.391 38.7027 16.8168C38.3624 18.1426 38.3488 19.5393 36.5629 20.0838C34.6408 20.6609 34.5074 20.7208 34.2351 18.7225C34.2351 18.6735 34.1208 18.6381 34.0419 18.5864C33.1434 19.0928 32.2586 19.6564 31.1778 19.7162C31.1343 19.1146 31.657 19.15 31.9946 19.0275C33.5847 18.4322 34.9838 17.417 36.0429 16.0899C37.4586 14.3938 37.4477 12.4091 37.0447 10.272C37.8144 10.6571 38.4174 11.3094 38.7409 12.1069C40.8617 15.4746 39.7073 20.1028 36.1 22.5531Z" fill="#F5A328"/>
        <path d="M39.024 16.6153C39.0098 17.3765 38.8137 18.1232 38.4523 18.7933C38.1466 19.3756 37.6857 19.8619 37.1206 20.1983C36.5555 20.5347 35.9082 20.708 35.2506 20.699C34.6708 20.6663 34.2107 20.4268 34.1018 19.8333C33.9684 19.1036 33.6335 19.1717 33.089 19.4194C32.4955 19.6917 31.8938 20.1654 31.1833 19.6917C32.2723 19.6318 33.1489 19.0682 34.0473 18.5619C34.1263 18.6136 34.2352 18.649 34.2406 18.698C34.5129 20.6827 34.6463 20.6228 36.5683 20.0592C38.3543 19.5147 38.3679 18.1235 38.7082 16.7922C38.8908 16.3664 38.9849 15.9079 38.9849 15.4446C38.9849 14.9813 38.8908 14.5228 38.7082 14.097L38.6919 13.1387C38.8189 13.3641 38.9264 13.6 39.0131 13.8438C39.0131 13.9745 39.0131 14.116 39.0267 14.2358C39.024 15.0471 39.0267 15.8312 39.024 16.6153Z" fill="#F5931D"/>
        <path d="M34.4339 25.2946C34.3032 25.7003 34.9376 26.1304 34.4638 26.4843C33.9901 26.8383 33.5954 26.5333 33.138 26.3319C31.7618 25.7669 30.296 25.4516 28.8093 25.4008C25.6022 25.2102 22.3842 25.1286 19.1744 25.4498C17.5409 25.6159 15.9074 25.8391 14.4073 26.5715C14.2378 26.6349 14.0525 26.6427 13.8782 26.5938C13.704 26.5448 13.5498 26.4416 13.4381 26.2992C13.7866 24.7202 15.156 24.614 16.3648 24.271C16.9095 24.425 17.4823 24.452 18.0391 24.3499C22.0118 23.6965 26.0645 23.6965 30.0371 24.3499C30.5521 24.4539 31.085 24.4258 31.5862 24.2682C32.6752 24.2138 33.4783 24.9625 34.4339 25.2946Z" fill="#57585A"/>
        <path d="M31.9156 24.3499C31.4909 25.1231 30.7803 24.8508 30.1868 24.7446C26.1065 24.0041 21.9262 24.0041 17.8458 24.7446C17.2442 24.8535 16.5418 25.0959 16.1198 24.3308C16.0909 24.3178 16.0661 24.2974 16.0476 24.2717C16.0292 24.246 16.0179 24.2158 16.0149 24.1843C16.0118 24.1528 16.0172 24.1211 16.0303 24.0923C16.0435 24.0636 16.064 24.0388 16.0898 24.0205C21.2625 22.161 26.4489 22.2019 31.6542 23.8626C31.8122 23.9851 32.0544 24.0667 31.9156 24.3499Z" fill="#929497"/>
        <path d="M13.1741 23.1954C13.4463 22.6999 12.9018 22.6781 12.7221 22.5665C9.99966 20.9167 8.71737 18.5154 8.82082 15.3519C8.8196 15.3447 8.8196 15.3373 8.82082 15.3301C8.87799 14.7503 8.80449 14.1322 9.29998 13.5986C9.37349 15.2512 9.1938 16.8411 9.78458 18.412C10.3073 19.8086 11.2629 20.3449 12.6105 20.4566C13.5879 20.5382 13.9364 20.0373 13.8955 18.6107C14.9301 18.8095 15.6787 20.0237 16.9039 19.4601C17.2687 21.728 15.774 23.2253 13.1741 23.1954Z" fill="#AC5A00"/>
        <path d="M39.0376 17.7452C38.651 20.062 37.0502 21.5321 35.1472 22.7246C35.0601 22.779 34.3604 22.8525 35.0546 23.1411C32.912 23.5576 31.137 21.9922 31.1751 19.7244C32.2641 19.6645 33.1407 19.101 34.0391 18.5946C34.1181 18.6463 34.227 18.6817 34.2324 18.7307C34.5047 20.7154 34.6381 20.6555 36.5601 20.0919C38.3461 19.5474 38.3597 18.1563 38.7 16.825C38.8826 16.3991 38.9768 15.9407 38.9768 15.4773C38.9768 15.014 38.8826 14.5555 38.7 14.1297L38.6837 13.1714C38.8108 13.3968 38.9182 13.6327 39.0049 13.8765C39.4351 15.137 39.25 16.4629 39.0376 17.7452Z" fill="#AD5A01"/>
        <path d="M22.8879 21.3822C22.5639 21.4258 22.455 21.257 22.4822 20.9629C22.6374 19.403 22.8116 17.8484 22.9423 16.2885C23.0077 15.5098 23.5467 15.5643 24.0721 15.5588C24.5976 15.5534 25.1176 15.5588 25.1393 16.332C25.1666 17.2931 25.2864 18.2377 25.3653 19.2124C25.4769 19.4356 25.3408 19.5037 25.1557 19.5418C24.535 19.3512 23.9279 19.9094 23.3316 19.4983C23.0458 20.1544 23.4569 20.884 22.8879 21.3822Z" fill="#919395"/>
        <path d="M29.9418 19.2072C29.9418 19.7707 29.8166 20.3833 29.9908 20.8896C30.4073 22.1093 29.8247 22.0984 28.9454 21.897C28.4779 21.7927 28.0054 21.7127 27.5297 21.6574C27.1104 21.6057 26.8028 21.4042 26.8273 20.9822C26.8845 19.8932 26.3944 18.8478 26.5795 17.7506C27.2139 17.5029 27.2193 18.0229 27.3146 18.3795C27.3637 18.7362 27.4742 19.0816 27.6413 19.4004C27.8237 19.6727 28.0197 19.945 28.39 19.9204C28.7602 19.8959 28.7602 19.572 28.8201 19.2916C29.0897 18.0256 29.528 18.7171 29.9418 19.2072Z" fill="#2F2F2F"/>
        <path d="M21.4667 17.7616C21.4667 17.8024 21.4667 17.8433 21.4667 17.8814C21.5103 21.456 21.5103 21.456 17.9466 22.0413C17.9847 21.0803 18.472 20.1873 18.3195 19.2317C18.3431 19.1157 18.3926 19.0065 18.4642 18.9122C18.5359 18.8179 18.6279 18.741 18.7334 18.6872C18.9267 18.562 19.0927 18.3333 19.365 18.4504C19.6372 18.5674 19.5311 18.8479 19.5038 19.0711C19.4712 19.3706 19.2697 19.779 19.6971 19.8879C20.1245 19.9968 20.3178 19.5965 20.5139 19.2889C20.7099 18.9813 20.6718 18.5919 20.7643 18.2462C20.8569 17.9004 20.9358 17.4948 21.4667 17.7616Z" fill="#2F2F2F"/>
        <path d="M29.9418 19.2072L29.253 18.8097C28.8773 19.0302 29.1632 19.2535 29.185 19.4576C29.2007 19.6388 29.1603 19.8204 29.0692 19.9777C28.9781 20.135 28.8408 20.2605 28.6758 20.337C28.2784 20.5766 28.0034 20.3043 27.7366 20.0484C27.5253 19.864 27.3549 19.6375 27.2362 19.3834C27.1176 19.1293 27.0534 18.8532 27.0478 18.5728C27.0478 18.2107 27.0886 17.8242 26.5795 17.7561C26.6449 17.6254 26.6912 17.394 26.7783 17.3777C27.6223 17.217 29.5416 18.3496 29.9418 19.2072Z" fill="#565759"/>
        <path d="M21.4667 17.7612C21.2625 17.802 21.0584 17.8619 21.0257 18.1015C20.9984 18.3419 20.9875 18.5838 20.993 18.8257C20.993 19.5853 20.4485 19.9501 19.934 20.3421C19.835 20.4173 19.7105 20.4505 19.5873 20.4347C19.464 20.4189 19.352 20.3554 19.2751 20.2577C18.7769 19.7132 19.1526 19.1497 19.3677 18.5834C18.8613 18.6188 18.7007 19.0925 18.3223 19.2313C18.05 19.0244 18.1426 18.8257 18.3522 18.6542C19.2016 17.9572 20.2144 17.6087 21.2489 17.3338C21.6464 17.2276 21.5457 17.5325 21.4667 17.7612Z" fill="#565759"/>
        <path d="M22.8879 21.3821V18.8584C23.6039 19.2804 24.2028 19.7732 24.8916 18.9782C25.0686 18.774 25.0441 19.2831 25.1257 19.4546C25.2859 19.7501 25.3697 20.0809 25.3697 20.417C25.3697 20.7531 25.2859 21.0839 25.1257 21.3794L22.8879 21.3821Z" fill="#58595B"/>
        <path d="M8.82083 15.333V15.3521C8.8199 15.3457 8.8199 15.3393 8.82083 15.333Z" fill="#E08C1C"/>
        <path d="M16.0898 24.0259C16.0898 24.1293 16.1089 24.2328 16.1198 24.3362C15.6978 24.6956 15.3629 25.0713 14.6524 24.9842C13.8547 24.8889 14.1079 26.095 13.4381 26.291C13.1332 25.202 13.9826 24.9461 14.6633 24.5731C15.0958 24.294 15.5816 24.1077 16.0898 24.0259Z" fill="#7D7E81"/>
        <path d="M31.9156 24.35L31.6434 23.8682C32.6767 24.0981 33.6337 24.5893 34.423 25.2947C33.579 25.017 32.6017 25.0769 31.9156 24.35Z" fill="#7D7F81"/>
        <path d="M25.123 21.3795V19.4547C25.2047 19.373 25.2864 19.2941 25.3653 19.2124C25.4933 19.9584 26.0759 20.7533 25.123 21.3795Z" fill="#797A7C"/>
        <path d="M23.868 33.7831C24.3362 33.1978 23.8053 33.1651 23.4541 32.9909C22.9695 32.754 22.4468 32.4164 22.534 31.8366C22.6401 31.1532 23.3344 31.322 23.8244 31.2349C23.9445 31.2186 24.0663 31.2186 24.1865 31.2349C24.8399 31.3111 25.7601 30.9899 26.016 31.7794C26.2529 32.4954 25.4851 32.8357 24.8862 33.1216C24.4887 33.3121 24.6983 33.5735 24.8671 33.8076C25.5886 34.3358 26.2529 34.4039 26.811 33.5735C26.9144 33.4074 26.9825 33.1461 27.2112 33.1869C27.2611 33.1967 27.3081 33.2182 27.3481 33.2497C27.3881 33.2812 27.4201 33.3217 27.4414 33.368C27.4627 33.4143 27.4726 33.4649 27.4705 33.5158C27.4683 33.5667 27.4541 33.6163 27.429 33.6606C26.585 34.8177 26.1412 36.2987 24.829 37.08C24.5937 37.2095 24.3197 37.2501 24.0569 37.1947C23.7941 37.1392 23.56 36.9913 23.397 36.7779C22.6782 35.9012 22.0357 34.9565 21.4041 34.0145C21.238 33.7668 21.0883 33.3257 21.5157 33.1978C21.837 33.108 21.8397 33.5708 21.9867 33.7859C22.6129 34.344 23.2391 34.3113 23.868 33.7831Z" fill="#1A1919"/>
        <path d="M26.811 33.5571C26.2665 34.687 25.722 34.755 24.8671 33.7913C25.5504 33.9192 26.2147 34.0717 26.811 33.5571Z" fill="#B1B1B1"/>
        <path d="M23.868 33.7832C23.0812 34.6816 22.7082 34.6816 21.9867 33.7832C22.6017 33.9575 23.253 33.9575 23.868 33.7832Z" fill="#B1B1B1"/>
        <path d="M24.3281 35.6153C24.7337 35.4574 24.3716 34.5481 25.1448 34.8912C25.417 35.0164 25.6457 35.1634 25.545 35.5146C25.3789 36.0945 25.0305 36.5628 24.4043 36.6036C23.7781 36.6444 23.4079 36.168 23.2037 35.6045C23.0621 35.2179 23.269 35.0137 23.612 34.8803C24.3825 34.5835 24.0313 35.452 24.3281 35.6153Z" fill="#D52C70"/>
        <path d="M20.4295 29.3862C20.4295 30.3663 19.885 31.164 19.1907 31.164C19.0407 31.1591 18.8935 31.1214 18.7595 31.0537C18.6255 30.986 18.5079 30.8899 18.4148 30.772C17.9073 31.3488 17.4594 31.9754 17.0781 32.6423C17.04 32.7077 17.0046 32.773 16.9719 32.8384C16.3647 33.9159 16.0231 35.1226 15.9755 36.3585C15.9738 36.6883 15.9965 37.0177 16.0436 37.3441C15.8814 36.6967 15.8244 36.0275 15.8748 35.3621C15.9527 34.4067 16.1863 33.4706 16.5663 32.5906C16.6017 32.5035 16.6398 32.4164 16.6833 32.3184C16.9956 31.6347 17.3702 30.9813 17.8023 30.3663C17.5086 30.3537 17.2151 30.3952 16.9365 30.4889C16.7639 30.5547 16.6023 30.6465 16.4574 30.7611C16.8192 30.2513 17.3648 29.9019 17.9792 29.7865C17.955 29.6526 17.9431 29.5168 17.9438 29.3808C17.9438 28.398 18.4883 27.603 19.1853 27.603C19.8822 27.603 20.4295 28.4034 20.4295 29.3862Z" fill="#030C0E"/>
        <path d="M19.4984 29.5745C19.7239 29.5745 19.9068 29.3124 19.9068 28.9891C19.9068 28.6659 19.7239 28.4038 19.4984 28.4038C19.2728 28.4038 19.09 28.6659 19.09 28.9891C19.09 29.3124 19.2728 29.5745 19.4984 29.5745Z" fill="#FFF6FC"/>
        <path d="M32.6126 37.3445C32.6623 37.0184 32.6851 36.6888 32.6806 36.3589C32.6321 35.1215 32.2906 33.9131 31.6842 32.8333L31.6243 32.7217C31.2324 32.0262 30.7699 31.373 30.244 30.7724C30.151 30.8903 30.0334 30.9864 29.8994 31.0541C29.7653 31.1218 29.6182 31.1595 29.4681 31.1644C28.782 31.1644 28.2294 30.3667 28.2294 29.3867C28.2294 28.4066 28.7739 27.6089 29.4681 27.6089C30.1623 27.6089 30.7068 28.4038 30.7068 29.3867C30.7071 29.5225 30.6962 29.6582 30.6742 29.7923C31.2888 29.9089 31.8337 30.2605 32.1933 30.7724C32.0484 30.6578 31.8868 30.566 31.7141 30.5002C31.4364 30.4067 31.1439 30.3652 30.8511 30.3776C31.287 31.0008 31.6651 31.6624 31.9809 32.3542C32.0191 32.4331 32.0517 32.5121 32.0844 32.591C32.4672 33.4705 32.7035 34.4067 32.7841 35.3625C32.8335 36.0281 32.7756 36.6973 32.6126 37.3445Z" fill="#030C0E"/>
        <path d="M29.1577 29.5745C29.3833 29.5745 29.5661 29.3124 29.5661 28.9891C29.5661 28.6659 29.3833 28.4038 29.1577 28.4038C28.9322 28.4038 28.7494 28.6659 28.7494 28.9891C28.7494 29.3124 28.9322 29.5745 29.1577 29.5745Z" fill="#FFF6FC"/>
    </g>
    <defs>
        <linearGradient id="paint0_linear_819_206" x1="23.9986" y1="0.000133504" x2="23.9986" y2="48.0001" gradientUnits="userSpaceOnUse">
            <stop stop-color="#1191F8"/>
            <stop offset="1" stop-color="#ED2AC6"/>
        </linearGradient>
        <clipPath id="clip0_819_206">
            <rect width="48" height="48" fill="white"/>
        </clipPath>
    </defs>
</svg>
