<svg xmlns="http://www.w3.org/2000/svg" width="48" height="48" viewBox="0 0 48 48" fill="none">
<path d="M24 48C37.2548 48 48 37.2548 48 24C48 10.7452 37.2548 0 24 0C10.7452 0 0 10.7452 0 24C0 37.2548 10.7452 48 24 48Z" fill="#00EF8B"/>
<path d="M34.512 20.2559H27.744V27.0239H34.512V20.2559Z" fill="white"/>
<path d="M20.9761 29.5679C20.9761 30.9599 19.8241 32.1119 18.4321 32.1119C17.0401 32.1119 15.8881 30.9599 15.8881 29.5679C15.8881 28.1759 17.0401 27.0239 18.4321 27.0239H20.9761V20.2559H18.4321C13.2961 20.2559 9.12012 24.4319 9.12012 29.5679C9.12012 34.7039 13.2961 38.88 18.4321 38.88C23.5681 38.88 27.7441 34.7039 27.7441 29.5679V27.0239H20.9761V29.5679Z" fill="white"/>
<path d="M30.2879 16.848H37.92V10.08H30.2879C25.1519 10.08 20.9759 14.256 20.9759 19.392V20.256H27.7439V19.392C27.7439 18 28.8959 16.848 30.2879 16.848Z" fill="white"/>
<path d="M27.7439 20.2559H20.9759V27.0239H27.7439V20.2559Z" fill="#16FF99"/>
</svg>