<svg xmlns="http://www.w3.org/2000/svg" width="48" height="48" viewBox="0 0 48 48" fill="none">
<path d="M45 12.7061V35.5912C38.9271 39.9364 31.121 43.1885 25.4 48.0002V44.1349C30.6779 40.6028 36.2686 37.324 41.7811 33.7786V18.3307C37.233 21.263 32.5154 23.5955 28.2019 26.5545V31.7659L25.413 33.1788V24.2619L45 12.7061Z" fill="#010101"/>
<path d="M22.6 24.1829V36.0015V40.8V47.2943L3 35.2785V12.7061L6.15 14.6123V33.4905L19.6833 41.9043V26.1154L15.1852 23.4861V19.8709L22.6 24.1829Z" fill="#010101"/>
<path d="M43.6 10.8348L40.4368 12.7802L37.1821 10.9158L24.0719 3.59358L10.8309 10.9429L24.0719 18.765L25.0522 18.157L26.0717 17.5896L28.32 16.2657L31.6269 18.0084L30.1891 18.8731L24.9607 22.0073L23.9804 22.5882C17.4318 18.6704 10.9224 14.7661 4.39999 10.8483C10.9878 7.05207 17.2619 3.45849 23.9281 0C29.6009 2.70194 34.8293 5.97129 40.293 9.05151C41.4171 9.65944 42.502 10.2404 43.6 10.8348Z" fill="#010101"/>
</svg>