<svg xmlns="http://www.w3.org/2000/svg" width="48" height="48" viewBox="0 0 48 48" fill="none">
<path d="M24 48C37.2548 48 48 37.2548 48 24C48 10.7452 37.2548 0 24 0C10.7452 0 0 10.7452 0 24C0 37.2548 10.7452 48 24 48Z" fill="#02E2AC"/>
<path d="M31.6678 18.1255L30.5455 19.1636C31.6047 20.5818 32.1779 22.304 32.1797 24.0741C32.1815 25.8442 31.6119 27.5675 30.5556 28.9879L32.8074 30.6806C34.2368 28.773 35.0116 26.4548 35.0167 24.0712C35.0221 21.5926 34.1855 19.1856 32.6441 17.2446L31.6871 18.1437L31.6678 18.1255Z" fill="black"/>
<path d="M30.5546 28.9879L27.7131 26.8507C28.2717 26.098 28.5893 25.1937 28.6239 24.257C28.6585 23.3203 28.4085 22.3951 27.907 21.6032L30.5454 19.1677L31.6688 18.1295L31.6871 18.1478L32.644 17.2487L34.0272 15.9497L35.0968 14.9613L35.0887 14.9532L36.1481 13.9577L35.1283 12.9429C32.2953 10.091 28.4749 8.43657 24.4567 8.3215V6.13054C24.461 5.99182 24.4374 5.85364 24.3873 5.7242C24.3372 5.59476 24.2617 5.4767 24.1651 5.37704C24.0685 5.27737 23.9528 5.19813 23.825 5.14401C23.6972 5.0899 23.5598 5.06201 23.421 5.06201C23.2823 5.06201 23.1449 5.0899 23.0171 5.14401C22.8893 5.19813 22.7736 5.27737 22.677 5.37704C22.5804 5.4767 22.5049 5.59476 22.4548 5.7242C22.4047 5.85364 22.3811 5.99182 22.3854 6.13054V8.39253C21.425 8.48957 20.4755 8.67505 19.5491 8.94661V6.13054C19.5407 5.8615 19.4279 5.60629 19.2346 5.41895C19.0413 5.23161 18.7827 5.12686 18.5135 5.12686C18.2443 5.12686 17.9857 5.23161 17.7924 5.41895C17.5991 5.60629 17.4863 5.8615 17.4779 6.13054V9.71481C14.7144 10.9665 12.3699 12.9875 10.7245 15.5363C9.07915 18.085 8.20257 21.0537 8.19957 24.0874C8.19957 32.702 15.1367 39.7214 23.7189 39.8584H35.9878V33.0735L32.8064 30.6806L30.5546 28.9879ZM33.1677 34.4759V37.0403H23.9584V37.0241C16.8193 37.0241 11.0035 31.2083 11.0035 24.0702C11.0059 21.799 11.6047 19.5683 12.74 17.6013C13.8754 15.6342 15.5074 13.9999 17.4728 12.8617V17.1239C17.4685 17.2626 17.492 17.4008 17.5421 17.5302C17.5922 17.6596 17.6678 17.7777 17.7644 17.8774C17.861 17.977 17.9766 18.0563 18.1044 18.1104C18.2322 18.1645 18.3696 18.1924 18.5084 18.1924C18.6472 18.1924 18.7846 18.1645 18.9124 18.1104C19.0402 18.0563 19.1558 17.977 19.2524 17.8774C19.349 17.7777 19.4246 17.6596 19.4747 17.5302C19.5248 17.4008 19.5484 17.2626 19.544 17.1239V11.8936C21.6273 11.1383 23.8695 10.9295 26.0565 11.2873C28.2434 11.6451 30.3022 12.5575 32.0362 13.9374L31.5947 14.3545L25.7262 19.7786C25.0377 19.498 24.292 19.3866 23.5515 19.4535C22.8111 19.5205 22.0974 19.7639 21.4704 20.1634C20.8434 20.5628 20.3212 21.1068 19.9477 21.7496C19.5741 22.3924 19.36 23.1153 19.3233 23.8579C19.2866 24.6004 19.4284 25.341 19.7368 26.0175C20.0452 26.6939 20.5112 27.2867 21.0958 27.746C21.6803 28.2054 22.3665 28.5179 23.0967 28.6576C23.827 28.7972 24.58 28.7598 25.2928 28.5485L33.1677 34.4759ZM25.8063 24.0874C25.8063 24.4499 25.6988 24.8042 25.4975 25.1056C25.2961 25.407 25.0098 25.6419 24.675 25.7806C24.3401 25.9193 23.9716 25.9556 23.6161 25.8849C23.2605 25.8142 22.934 25.6397 22.6777 25.3834C22.4214 25.127 22.2468 24.8005 22.1761 24.445C22.1054 24.0894 22.1417 23.7209 22.2804 23.3861C22.4191 23.0512 22.654 22.7649 22.9554 22.5636C23.2568 22.3622 23.6111 22.2547 23.9736 22.2547C24.2145 22.2539 24.4532 22.3007 24.6759 22.3926C24.8986 22.4844 25.101 22.6193 25.2713 22.7897C25.4417 22.96 25.5766 23.1624 25.6685 23.3851C25.7603 23.6078 25.8071 23.8465 25.8063 24.0874Z" fill="black"/>
</svg>