<svg width="48" height="48" viewBox="0 0 48 48" fill="none" xmlns="http://www.w3.org/2000/svg">
<circle cx="24" cy="24" r="24" fill="url(#paint0_linear_729_116)"/>
<path d="M24.0224 10.6631C23.8043 16.5761 23.8109 22.9405 24.0224 28.89C24.2098 22.9425 24.2159 16.5761 24.0224 10.6631Z" fill="white"/>
<path d="M16.6711 41.9545C16.6764 41.9698 16.6809 41.9849 16.6861 42.0002C16.7503 41.9723 16.8168 41.9478 16.8796 41.9167C18.1914 41.2716 19.5855 40.7971 21.0057 40.385C22.815 39.86 24.6514 39.8022 26.4861 40.2522C28.0711 40.6405 29.6034 41.1824 31.0552 41.8682C31.1455 41.9107 31.2218 41.9956 31.354 41.971C31.3411 41.9494 31.325 41.9293 31.3062 41.9114C29.0212 40.3451 26.7361 38.7785 24.4511 37.2115C24.1291 36.9897 23.8691 37.0123 23.5546 37.2307C21.2621 38.8105 18.9676 40.3852 16.6711 41.9545Z" fill="white"/>
<path d="M15.3138 19.5281C15.1644 19.6994 15.2346 19.8274 15.3795 19.9635C15.9294 20.4838 16.2603 21.1109 16.4881 21.7859C16.7691 22.6174 16.8766 23.4728 16.9207 24.3368C16.9887 25.6642 16.9678 26.9915 16.9401 28.3188C16.9033 30.0885 16.8931 31.8581 16.9095 33.6279C16.9282 35.5803 16.6256 37.4817 15.9271 39.3352C15.6544 40.0579 15.3825 40.7806 15 41.5464C15.0617 41.5286 15.1216 41.5065 15.1793 41.4801C17.1732 40.0479 19.1589 38.6052 21.2366 37.2686C21.504 37.0967 21.5062 36.8804 21.3433 36.6587C21.1796 36.4367 21.0015 36.2234 20.81 36.0196C20.2563 35.431 20.0374 34.7434 20.024 33.9916C20.0068 33.0073 19.9852 32.0232 19.9717 31.0397C19.9239 27.4122 19.9545 23.7854 19.9052 20.156C19.8425 15.5005 19.8418 10.8444 19.8141 6.18892V6.00244H19.7394C19.51 7.85069 19.2762 9.69428 18.8796 11.5193C18.2587 14.3862 17.3293 17.149 15.3138 19.5281Z" fill="white"/>
<path d="M28.15 14.4415C28.0866 18.6092 28.1426 22.7783 28.0679 26.9459C28.0291 29.1127 28.0365 31.2808 28.0439 33.4495C28.0478 34.5492 27.7937 35.5553 26.9151 36.3808C26.8334 36.4638 26.7597 36.5525 26.6947 36.6463C26.4998 36.9039 26.5453 37.1069 26.8375 37.2947C28.8336 38.5802 30.7469 39.9606 32.6608 41.339C32.749 41.4053 32.826 41.5015 33 41.4823C32.362 40.2054 31.9287 38.8941 31.5627 37.5602C31.4207 37.0452 31.2802 36.5282 31.2302 35.9979C31.1062 34.6965 31.1421 33.3905 31.1137 32.0865C31.0659 29.8539 31.0898 27.6201 31.0785 25.3836C31.0696 24.6208 31.1218 23.8584 31.2347 23.102C31.3931 22.086 31.6643 21.1012 32.3754 20.2604C32.8401 19.7102 32.8469 19.7122 32.3926 19.1321C30.8156 17.1153 29.958 14.8404 29.3693 12.4699C28.8396 10.3356 28.5512 8.17078 28.307 6H28.2113C28.1799 8.81583 28.1927 11.6284 28.15 14.4415Z" fill="white"/>
<defs>
<linearGradient id="paint0_linear_729_116" x1="24" y1="0" x2="24" y2="48" gradientUnits="userSpaceOnUse">
<stop stop-color="#1D0E30"/>
<stop offset="1" stop-color="#342055"/>
</linearGradient>
</defs>
</svg>
