<svg width="48" height="48" viewBox="0 0 48 48" fill="none" xmlns="http://www.w3.org/2000/svg">
    <path d="M32.0087 19.9999H33.8004C34.3839 19.9994 34.9434 19.7674 35.3558 19.3546C35.7683 18.9419 36 18.3822 36 17.7987V12H30.2016C29.6179 12 29.0581 12.2318 28.6452 12.6444C28.2324 13.057 28.0003 13.6167 28 14.2004V15.9999C28 17.0608 27.5786 18.0782 26.8284 18.8283C26.0783 19.5784 25.0609 19.9999 24 19.9999C22.9391 19.9999 21.9217 19.5784 21.1716 18.8283C20.4214 18.0782 20 17.0608 20 15.9999V14.1208C19.9996 13.5582 19.7758 13.0187 19.3778 12.6211C18.9798 12.2234 18.4402 12 17.8776 12H12V35.9996H17.8337C18.4081 35.9994 18.959 35.7711 19.3653 35.3649C19.7715 34.9587 19.9998 34.4078 20 33.8333V31.9997C20 30.9388 20.4214 29.9214 21.1716 29.1713C21.9217 28.4212 22.9391 27.9997 24 27.9997V28.0077C25.0609 28.0077 26.0783 28.4291 26.8284 29.1792C27.5786 29.9293 28 30.9467 28 32.0076V33.8163C28 34.3954 28.2301 34.9509 28.6396 35.3604C29.0491 35.7699 29.6046 36 30.1838 36H36V30.1839C36 29.8971 35.9435 29.6131 35.8338 29.3482C35.724 29.0832 35.5632 28.8425 35.3604 28.6397C35.1576 28.437 34.9169 28.2761 34.6519 28.1664C34.387 28.0566 34.103 28.0001 33.8162 28.0001H32C30.9391 28.0001 29.9217 27.5787 29.1716 26.8286C28.4214 26.0784 28 25.061 28 24.0002H28.0079C28.0079 22.9393 28.4293 21.922 29.1795 21.1718C29.9296 20.4217 30.9478 19.9999 32.0087 19.9999Z" fill="#6F49E4"/>
</svg>
