<svg width="40" height="40" viewBox="0 0 40 40" fill="none" xmlns="http://www.w3.org/2000/svg">
<g clip-path="url(#clip0_518_119)">
<path d="M39.397 24.8381C36.726 35.5523 25.8741 42.073 15.1584 39.4013C4.44723 36.73 -2.07335 25.8775 0.59897 15.1639C3.26894 4.44837 14.1209 -2.07268 24.8332 0.59847C35.548 3.26961 42.0683 14.1234 39.397 24.8383V24.8381Z" fill="#4F473B"/>
<path d="M20.7076 19.9409L28.7804 27.9546C33.0229 23.4545 33.0229 16.4273 28.7804 11.9272" fill="white"/>
<path d="M20.118 20.4714L12.1634 28.3669L20.118 31.6667L28.0726 28.3669" fill="white"/>
<path d="M19.8239 19.6467L28.0738 11.4558L20.4713 8.33325L12.929 26.5415L19.8239 19.6467Z" fill="white"/>
<path d="M8.3334 19.9409C8.32746 22.9216 9.4664 25.7902 11.515 27.9546L19.4105 8.92163" fill="white"/>
</g>
<defs>
<clipPath id="clip0_518_119">
<rect width="40" height="40" fill="white"/>
</clipPath>
</defs>
</svg>
