<svg width="48" height="48" viewBox="0 0 48 48" fill="none" xmlns="http://www.w3.org/2000/svg">
<path d="M21.4643 47.9352C19.4645 46.3642 18.472 44.7334 18.477 43.0428C18.4321 41.4924 19.0042 39.9875 20.0679 38.8586L42.7392 16.1873C44.3002 17.5189 45.2228 19.03 45.522 20.7355C45.6759 21.5603 45.6244 22.4102 45.3722 23.2103C45.12 24.0104 44.6747 24.7362 44.0758 25.3237L21.4643 47.9352ZM13.3852 39.8561C11.3804 38.2801 10.388 36.6494 10.3979 34.9637C10.353 33.4133 10.9251 31.9084 11.9888 30.7795L34.6602 8.10821C36.2161 9.43478 37.1437 10.9509 37.443 12.6564C37.5953 13.4808 37.5426 14.33 37.2895 15.1292C37.0365 15.9284 36.5908 16.6532 35.9917 17.2396L13.3852 39.8561ZM5.30112 31.772C3.29631 30.1961 2.30388 28.5653 2.31385 26.8796C2.26888 25.3292 2.84106 23.8243 3.90474 22.6955L26.5761 0.0241312C28.137 1.35568 29.0596 2.86678 29.3589 4.57236C29.5127 5.39709 29.4612 6.247 29.209 7.04713C28.9568 7.84727 28.5116 8.57306 27.9126 9.16049L5.30112 31.772Z" fill="url(#paint0_linear)"/>
<defs>
<linearGradient id="paint0_linear" x1="15.9515" y1="15.9515" x2="34.6999" y2="34.6999" gradientUnits="userSpaceOnUse">
<stop stop-color="#7EB5FF"/>
<stop offset="0.9997" stop-color="#1A38F8"/>
</linearGradient>
</defs>
</svg>
