<svg xmlns="http://www.w3.org/2000/svg" width="48" height="48" viewBox="0 0 48 48" fill="none">
<path d="M24 48C37.2548 48 48 37.2548 48 24C48 10.7452 37.2548 0 24 0C10.7452 0 0 10.7452 0 24C0 37.2548 10.7452 48 24 48Z" fill="url(#paint0_linear_737_263)"/>
<path d="M34 21V26H39V21H34Z" fill="black"/>
<path d="M24 16V21H29V16H24Z" fill="black"/>
<path d="M24 26V31H29V26H24Z" fill="black"/>
<path d="M14 32V37H19V32H14Z" fill="black"/>
<path d="M14 21V26H19V21H14Z" fill="black"/>
<path d="M14 10V15H19V10H14Z" fill="black"/>
<defs>
<linearGradient id="paint0_linear_737_263" x1="48" y1="24" x2="-6.55651e-07" y2="23" gradientUnits="userSpaceOnUse">
<stop stop-color="#00A45F"/>
<stop offset="1" stop-color="#01FE93"/>
</linearGradient>
</defs>
</svg>