<svg width="48" height="48" viewBox="0 0 48 48" fill="none" xmlns="http://www.w3.org/2000/svg">
<circle cx="24" cy="24" r="24" fill="#1C68F2"/>
<path d="M23.623 17.9039C28.3413 17.9039 33.0597 17.9039 37.7781 17.896C38.119 17.896 38.2221 17.9674 38.2221 18.3242C38.2063 20.7429 38.1983 23.1615 38.2221 25.5802C38.2221 25.9846 38.0953 26.0401 37.7305 26.0401C29.626 26.0322 21.5294 26.0322 13.425 26.0322C13.3298 26.0322 13.2426 26.0401 13.1474 26.0322C12.8619 25.9925 12.8223 26.1036 12.9016 26.3653C13.9801 30.1162 16.3115 32.7806 20.0227 34.0098C24.4715 35.4848 28.4048 34.4222 31.6957 31.0836C32.3698 30.4016 32.909 29.6166 33.3372 28.7681C33.4562 28.5302 33.591 28.4509 33.8527 28.4588C35.1849 28.4746 36.5251 28.4746 37.8574 28.4588C38.1349 28.4588 38.2142 28.5381 38.2063 28.8156C38.1984 31.0202 38.2063 33.2327 38.1984 35.4372C38.1904 36.8963 36.9137 38.1889 35.4625 38.1889C27.5563 38.1968 19.658 38.1968 11.7517 38.1889C10.2847 38.1889 9.01586 36.8884 9.01586 35.3975C9.00793 29.6879 9.01586 23.9783 9 18.2687C9 17.9119 9.15067 17.9039 9.42029 17.9039C14.1624 17.9119 18.8967 17.9039 23.623 17.9039ZM21.8387 23.7563C21.5532 21.1711 18.8729 19.3472 16.3115 19.9975C14.551 20.4415 13.4408 21.5835 12.9412 23.3281C12.8461 23.6611 12.9095 23.788 13.2901 23.7642C13.8849 23.7325 14.4796 23.7484 15.0744 23.7563C15.2409 23.7563 15.3599 23.7404 15.4471 23.558C15.8198 22.7571 16.4622 22.3209 17.3503 22.313C18.2543 22.3051 18.9046 22.7492 19.2932 23.566C19.3487 23.677 19.3963 23.7642 19.5469 23.7642C20.3082 23.7563 21.0695 23.7563 21.8387 23.7563ZM25.3993 23.7563C26.1685 23.7563 26.9298 23.7484 27.6911 23.7563C27.8735 23.7563 27.8972 23.6373 27.9528 23.5184C28.3493 22.7254 28.9916 22.3051 29.8798 22.3051C30.7521 22.313 31.3865 22.7412 31.7671 23.5184C31.8623 23.7087 31.9653 23.7563 32.1557 23.7563C32.7504 23.7484 33.3452 23.7246 33.9399 23.7642C34.3364 23.788 34.3681 23.6453 34.2809 23.3201C33.6703 20.9332 31.323 19.4582 28.9123 19.9578C27.0725 20.3464 25.5579 21.972 25.3993 23.7563Z" fill="#FDFDFE"/>
<path d="M23.5992 15.4848C18.8967 15.4848 14.1862 15.4768 9.48374 15.4927C9.08724 15.4927 9.00794 15.3817 9.01587 15.009C9.03966 13.9384 9.01587 12.8679 9.0238 11.7973C9.03173 10.2906 10.3005 9.00595 11.7993 9.00595C19.6738 8.99802 27.5562 8.99802 35.4307 9.00595C36.9295 9.00595 38.1983 10.2906 38.2062 11.7973C38.2142 12.8679 38.1904 13.9384 38.2142 15.009C38.2221 15.3817 38.1349 15.4927 37.7463 15.4927C33.6227 15.4768 29.4991 15.4848 25.3755 15.4848C24.7887 15.4848 24.1939 15.4848 23.5992 15.4848Z" fill="#FDFDFE"/>
<path d="M30.7124 28.4897C28.7854 31.0432 26.3112 32.3358 23.1947 32.201C20.4034 32.082 18.1988 30.7974 16.5018 28.4897C21.2598 28.4897 25.9385 28.4897 30.7124 28.4897Z" fill="#FAFBFE"/>
<path d="M21.8387 23.7556C21.0695 23.7556 20.3082 23.7556 19.5469 23.7556C19.3962 23.7556 19.3487 23.6763 19.2932 23.5574C18.9046 22.7406 18.2623 22.3044 17.3503 22.3044C16.4621 22.3124 15.8198 22.7406 15.4471 23.5495C15.3599 23.7318 15.2489 23.7556 15.0744 23.7477C14.4796 23.7398 13.8849 23.716 13.2902 23.7556C12.9095 23.7794 12.8461 23.6525 12.9412 23.3195C13.4408 21.5749 14.5431 20.433 16.3115 19.9889C18.8729 19.3466 21.5532 21.1705 21.8387 23.7556Z" fill="#1C68F2"/>
<path d="M25.3993 23.7557C25.5579 21.9714 27.0725 20.3458 28.9123 19.9572C31.3231 19.4497 33.6783 20.9247 34.281 23.3196C34.3682 23.6526 34.3365 23.7874 33.94 23.7636C33.3452 23.724 32.7505 23.7478 32.1557 23.7557C31.9654 23.7557 31.8623 23.7161 31.7671 23.5178C31.3865 22.7407 30.76 22.3124 29.8798 22.3045C28.9916 22.2966 28.3493 22.7248 27.9528 23.5178C27.8973 23.6288 27.8735 23.7557 27.6911 23.7557C26.9298 23.7478 26.1685 23.7557 25.3993 23.7557Z" fill="#1C68F2"/>
</svg>
