<svg width="48" height="48" viewBox="0 0 48 48" fill="none" xmlns="http://www.w3.org/2000/svg">
<path d="M24 48C37.2548 48 48 37.2548 48 24C48 10.7452 37.2548 0 24 0C10.7452 0 0 10.7452 0 24C0 37.2548 10.7452 48 24 48Z" fill="#1D4DF9"/>
<path d="M8 23.3571V33L16 27.6429V18L8 23.3571Z" fill="#B4C7FF"/>
<path d="M24 23.3571V33L32 27.6429V18L24 23.3571Z" fill="#B4C7FF"/>
<path d="M40 23.3571V33L32 27.6429V18L40 23.3571Z" fill="white"/>
<path d="M24 23.3571V33L16 27.6429V18L24 23.3571Z" fill="white"/>
<path d="M19 17.8309L24 21L29 17.8309L24.001 15L19 17.8309Z" fill="#FBB017"/>
</svg>
