<svg xmlns="http://www.w3.org/2000/svg" width="48" height="48" viewBox="0 0 48 48" fill="none">
<path d="M35.6428 9.0162L31.9726 10.7907C31.9574 10.7984 31.9346 10.8139 31.927 10.8294C31.9118 10.8449 31.9042 10.8604 31.8966 10.8837C31.889 10.9069 31.889 10.9224 31.889 10.9457C31.889 10.9689 31.8966 10.9844 31.9042 11.0077L37.4818 22.9951C39.5562 27.4585 39.0015 30.837 35.848 32.3713C33.2948 33.6033 31.0988 32.7432 29.3814 29.7367L22.7705 15.533C20.0957 9.77559 16.4483 8.24906 12.117 10.349C9.30543 11.7128 7.67169 14.1459 7.70209 17.2377C7.70209 17.2765 7.69449 17.3075 7.67169 17.3385C7.6489 17.3695 7.6185 17.385 7.58051 17.3927C7.54251 17.4005 7.51212 17.4005 7.47412 17.385C7.44373 17.3695 7.41333 17.3462 7.39814 17.3075L5.95437 14.2079C5.94677 14.1924 5.93157 14.1692 5.91637 14.1614C5.90117 14.1459 5.88598 14.1382 5.86318 14.1304C5.84798 14.1149 5.83278 14.1149 5.80999 14.1149C5.78719 14.1149 5.77199 14.1227 5.7492 14.1304L2.08658 15.9049C2.04859 15.9204 2.01819 15.9514 2.01059 15.9979C1.99539 16.0367 1.99539 16.0832 2.01819 16.1219L12.1474 37.904C12.1626 37.9427 12.2006 37.9737 12.2386 37.9892C12.2766 38.0047 12.3222 38.0047 12.3601 37.9814L16.0304 36.207C16.0456 36.1992 16.0684 36.1837 16.076 36.1682C16.0912 36.1527 16.0988 36.1372 16.1064 36.114C16.114 36.0907 16.114 36.0752 16.114 36.052C16.114 36.0287 16.1064 36.0132 16.0988 35.99L10.6732 24.3357C8.46197 19.5779 8.8799 16.1374 12.2614 14.5024C14.8602 13.2471 16.8814 14.0917 18.6975 17.3152C18.6975 17.3152 18.7051 17.323 18.7051 17.3307L25.2477 31.3872C27.7705 36.8114 31.6915 38.6711 35.8252 36.6719C39.0243 35.1221 40.3541 32.7975 40.2705 29.7289C40.2705 29.6902 40.2781 29.6592 40.3009 29.6282C40.3237 29.5972 40.3541 29.5817 40.3921 29.5739C40.4301 29.5662 40.4605 29.5662 40.4985 29.5817C40.5289 29.5972 40.5593 29.6204 40.5745 29.6592L42.0334 32.7897C42.041 32.8052 42.0562 32.8285 42.0714 32.8362C42.0866 32.8517 42.1018 32.8594 42.1246 32.8672C42.1474 32.8749 42.1626 32.8749 42.1854 32.8749C42.2082 32.8749 42.2234 32.8672 42.2462 32.8594L45.9164 31.085C45.9316 31.0772 45.9544 31.0617 45.962 31.0462C45.9772 31.0307 45.9848 31.0152 45.9924 30.992C46 30.9687 46 30.9532 46 30.93C46 30.9067 45.9924 30.8912 45.9848 30.868L35.848 9.09369C35.8328 9.05494 35.7948 9.02395 35.7568 9.00845C35.7188 8.99295 35.6732 9.0007 35.6428 9.0162Z" fill="#1E65F3"/>
</svg>