<?xml version="1.0" encoding="utf-8"?>
<!-- Generator: Adobe Illustrator 24.3.0, SVG Export Plug-In . SVG Version: 6.00 Build 0)  -->
<svg version="1.1" id="Layer_1" xmlns="http://www.w3.org/2000/svg" xmlns:xlink="http://www.w3.org/1999/xlink" x="0px" y="0px"
	 viewBox="0 0 48 48" style="enable-background:new 0 0 48 48;" xml:space="preserve">
<style type="text/css">
	.st0{fill:#08AE8D;}
</style>
<path class="st0" d="M27.3,38.3c-4.2,0-8.4,0.3-12.5-0.1C8.6,37.7,3.5,32.6,2.5,26.5c-0.9-5.8,1-10.6,5.7-14
	C13,9,18.2,8.7,23.3,11.4c5.3,2.8,8,7.5,7.6,13.6c-0.1,2-1,3.9-1.6,5.8c-0.4,1.2-2,1.6-3.1,1c-1.2-0.6-1.5-2-0.9-3.2
	c1.8-3.6,1.6-7.1-0.7-10.3c-2.3-3.2-5.5-4.5-9.4-3.9c-4,0.6-6.6,3-7.8,6.8c-1.9,6.2,2.8,12.5,9.3,12.5c7.4,0,14.7,0,22.1,0
	c1.2,0,2.3-1,2.3-2.2c0-1.3-0.9-2.3-2.2-2.4c-1.4-0.1-2.4-1-2.4-2.3c0-1.3,0.9-2.2,2.3-2.3c1.1-0.1,2-0.6,2.1-1.7
	c0-0.8-0.3-1.9-0.9-2.5c-0.7-0.8-1.8-0.6-2.7,0.1c-1,0.8-2.4,0.6-3.2-0.4c-0.8-1-0.6-2.4,0.4-3.2c2.7-2.2,6.8-2,9.2,0.6
	c2.5,2.5,2.6,6.6,0.4,9.2C44,26.8,44,27,44,27.1c1.8,2.3,2.2,4.8,0.9,7.4c-1.2,2.6-3.4,3.9-6.2,3.9c-3.8,0-7.6,0-11.4,0
	C27.3,38.4,27.3,38.3,27.3,38.3z"/>
</svg>
