<svg width="48" height="48" viewBox="0 0 48 48" fill="none" xmlns="http://www.w3.org/2000/svg">
<path d="M24.1767 48C26.126 48 27.7062 46.4198 27.7062 44.4706C27.7062 42.5213 26.126 40.9412 24.1767 40.9412C22.2275 40.9412 20.6473 42.5213 20.6473 44.4706C20.6473 46.4198 22.2275 48 24.1767 48Z" fill="#2261F6"/>
<path d="M14.2939 42.3531C15.8533 42.3531 17.1174 41.089 17.1174 39.5296C17.1174 37.9702 15.8533 36.7061 14.2939 36.7061C12.7345 36.7061 11.4703 37.9702 11.4703 39.5296C11.4703 41.089 12.7345 42.3531 14.2939 42.3531Z" fill="#2261F6"/>
<path d="M33.0003 42.9409C34.9495 42.9409 36.5297 41.3607 36.5297 39.4115C36.5297 37.4623 34.9495 35.8821 33.0003 35.8821C31.051 35.8821 29.4709 37.4623 29.4709 39.4115C29.4709 41.3607 31.051 42.9409 33.0003 42.9409Z" fill="#2261F6"/>
<path d="M4.64706 35.7643C5.55671 35.7643 6.29413 35.0269 6.29413 34.1173C6.29413 33.2076 5.55671 32.4702 4.64706 32.4702C3.73742 32.4702 3 33.2076 3 34.1173C3 35.0269 3.73742 35.7643 4.64706 35.7643Z" fill="#2261F6"/>
<path d="M24.1763 36.9413C25.7357 36.9413 26.9998 35.6771 26.9998 34.1177C26.9998 32.5583 25.7357 31.2942 24.1763 31.2942C22.6169 31.2942 21.3528 32.5583 21.3528 34.1177C21.3528 35.6771 22.6169 36.9413 24.1763 36.9413Z" fill="#2261F6"/>
<path d="M41.8233 37.647C43.7726 37.647 45.3528 36.0668 45.3528 34.1176C45.3528 32.1683 43.7726 30.5881 41.8233 30.5881C39.8741 30.5881 38.2939 32.1683 38.2939 34.1176C38.2939 36.0668 39.8741 37.647 41.8233 37.647Z" fill="#2261F6"/>
<path d="M14.294 31.2943C15.5285 31.2943 16.5293 30.2935 16.5293 29.059C16.5293 27.8245 15.5285 26.8237 14.294 26.8237C13.0595 26.8237 12.0587 27.8245 12.0587 29.059C12.0587 30.2935 13.0595 31.2943 14.294 31.2943Z" fill="#2261F6"/>
<path d="M32.9998 31.7645C34.5592 31.7645 35.8234 30.5004 35.8234 28.941C35.8234 27.3816 34.5592 26.1174 32.9998 26.1174C31.4404 26.1174 30.1763 27.3816 30.1763 28.941C30.1763 30.5004 31.4404 31.7645 32.9998 31.7645Z" fill="#2261F6"/>
<path d="M4.64706 25.6469C5.55671 25.6469 6.29413 24.9095 6.29413 23.9998C6.29413 23.0902 5.55671 22.3528 4.64706 22.3528C3.73742 22.3528 3 23.0902 3 23.9998C3 24.9095 3.73742 25.6469 4.64706 25.6469Z" fill="#2261F6"/>
<path d="M24.1764 26.235C25.4109 26.235 26.4117 25.2342 26.4117 23.9997C26.4117 22.7652 25.4109 21.7644 24.1764 21.7644C22.9419 21.7644 21.9411 22.7652 21.9411 23.9997C21.9411 25.2342 22.9419 26.235 24.1764 26.235Z" fill="#2261F6"/>
<path d="M41.8233 27.529C43.7726 27.529 45.3528 25.9489 45.3528 23.9996C45.3528 22.0504 43.7726 20.4702 41.8233 20.4702C39.8741 20.4702 38.2939 22.0504 38.2939 23.9996C38.2939 25.9489 39.8741 27.529 41.8233 27.529Z" fill="#2261F6"/>
<path d="M14.294 21.4115C15.5285 21.4115 16.5293 20.4107 16.5293 19.1762C16.5293 17.9417 15.5285 16.9409 14.294 16.9409C13.0595 16.9409 12.0587 17.9417 12.0587 19.1762C12.0587 20.4107 13.0595 21.4115 14.294 21.4115Z" fill="#2261F6"/>
<path d="M32.9998 22.0001C34.5592 22.0001 35.8234 20.736 35.8234 19.1766C35.8234 17.6172 34.5592 16.353 32.9998 16.353C31.4404 16.353 30.1763 17.6172 30.1763 19.1766C30.1763 20.736 31.4404 22.0001 32.9998 22.0001Z" fill="#2261F6"/>
<path d="M4.64706 15.5295C5.55671 15.5295 6.29413 14.7921 6.29413 13.8824C6.29413 12.9728 5.55671 12.2354 4.64706 12.2354C3.73742 12.2354 3 12.9728 3 13.8824C3 14.7921 3.73742 15.5295 4.64706 15.5295Z" fill="#2261F6"/>
<path d="M24.1763 16.7059C25.7357 16.7059 26.9998 15.4418 26.9998 13.8824C26.9998 12.323 25.7357 11.0588 24.1763 11.0588C22.6169 11.0588 21.3528 12.323 21.3528 13.8824C21.3528 15.4418 22.6169 16.7059 24.1763 16.7059Z" fill="#2261F6"/>
<path d="M41.8233 17.4114C43.7726 17.4114 45.3528 15.8312 45.3528 13.882C45.3528 11.9327 43.7726 10.3525 41.8233 10.3525C39.8741 10.3525 38.2939 11.9327 38.2939 13.882C38.2939 15.8312 39.8741 17.4114 41.8233 17.4114Z" fill="#2261F6"/>
<path d="M14.2939 11.5292C15.8533 11.5292 17.1174 10.265 17.1174 8.70562C17.1174 7.14622 15.8533 5.88208 14.2939 5.88208C12.7345 5.88208 11.4703 7.14622 11.4703 8.70562C11.4703 10.265 12.7345 11.5292 14.2939 11.5292Z" fill="#2261F6"/>
<path d="M33.0003 12.2356C34.9495 12.2356 36.5297 10.6554 36.5297 8.70618C36.5297 6.75693 34.9495 5.17676 33.0003 5.17676C31.051 5.17676 29.4709 6.75693 29.4709 8.70618C29.4709 10.6554 31.051 12.2356 33.0003 12.2356Z" fill="#2261F6"/>
<path d="M24.1767 7.05884C26.126 7.05884 27.7062 5.47866 27.7062 3.52942C27.7062 1.58017 26.126 0 24.1767 0C22.2275 0 20.6473 1.58017 20.6473 3.52942C20.6473 5.47866 22.2275 7.05884 24.1767 7.05884Z" fill="#2261F6"/>
</svg>
