<svg width="48" height="48" viewBox="0 0 48 48" fill="none" xmlns="http://www.w3.org/2000/svg">
<g clip-path="url(#clip0_629_116)">
<path d="M23.5654 10.0676C28.3455 10.0676 32.2206 7.81393 32.2206 5.03382C32.2206 2.25372 28.3455 0 23.5654 0C18.7853 0 14.9102 2.25372 14.9102 5.03382C14.9102 7.81393 18.7853 10.0676 23.5654 10.0676Z" fill="#E6007A"/>
<path d="M23.5654 47.9966C28.3455 47.9966 32.2206 45.7429 32.2206 42.9628C32.2206 40.1827 28.3455 37.929 23.5654 37.929C18.7853 37.929 14.9102 40.1827 14.9102 42.9628C14.9102 45.7429 18.7853 47.9966 23.5654 47.9966Z" fill="#E6007A"/>
<path d="M11.5038 17.0356C13.8939 12.8961 13.8784 8.41264 11.4692 7.02165C9.06 5.63065 5.16943 7.85883 2.77937 11.9984C0.389309 16.138 0.404821 20.6214 2.81402 22.0124C5.22321 23.4034 9.11378 21.1752 11.5038 17.0356Z" fill="#E6007A"/>
<path d="M44.3478 35.9979C46.7378 31.8583 46.7236 27.3756 44.3161 25.9856C41.9085 24.5955 38.0192 26.8244 35.6292 30.964C33.2391 35.1036 33.2533 39.5863 35.6609 40.9763C38.0684 42.3664 41.9577 40.1374 44.3478 35.9979Z" fill="#E6007A"/>
<path d="M11.4704 40.9752C13.8796 39.5842 13.8951 35.1008 11.5051 30.9612C9.115 26.8216 5.22444 24.5934 2.81524 25.9844C0.406043 27.3754 0.39053 31.8588 2.78059 35.9984C5.17065 40.138 9.06122 42.3662 11.4704 40.9752Z" fill="#E6007A"/>
<path d="M44.3181 22.0135C46.7257 20.6235 46.7398 16.1408 44.3498 12.0012C41.9597 7.86165 38.0705 5.63271 35.6629 7.02276C33.2554 8.41281 33.2412 12.8955 35.6312 17.0351C38.0213 21.1747 41.9105 23.4036 44.3181 22.0135Z" fill="#E6007A"/>
</g>
<defs>
<clipPath id="clip0_629_116">
<rect width="45.1342" height="48" fill="white" transform="translate(1)"/>
</clipPath>
</defs>
</svg>
