<svg xmlns="http://www.w3.org/2000/svg" width="48" height="48" viewBox="0 0 48 48" fill="none">
<path d="M12.4587 4.66936L23.9285 18.0618L31.6274 13.5485C31.6274 13.5485 22.3388 1.16927 19.8618 2.04429C17.5327 2.92853 12.4587 4.66936 12.4587 4.66936Z" fill="black"/>
<path d="M31.9139 13.5485C31.9139 13.5485 33.6607 10.4905 34.5295 6.41016C34.5295 6.41016 43.245 9.90103 39.8993 18.642L31.9139 13.5485Z" fill="black"/>
<path d="M39.8993 18.6514L40.6294 27.8253L43.9659 27.3924C43.9659 27.3924 44.8347 27.0977 44.6961 25.5042C44.5482 23.7542 44.2617 20.1159 44.2617 20.1159C44.2617 20.1159 44.4096 19.2409 42.3762 18.9554C39.8993 18.504 39.8993 18.6514 39.8993 18.6514Z" fill="black"/>
<path d="M40.6202 27.8252L33.938 33.2135L36.9879 39.1821C36.9879 39.1821 37.7181 41.5124 39.89 38.8873C41.9234 36.2623 42.7922 35.8294 42.6443 34.2267C42.5149 32.624 42.0712 28.8384 40.6202 27.8252Z" fill="black"/>
<path d="M33.7993 33.2044L24.6494 29.124L16.664 45.2889C16.664 45.2889 16.0817 46.4495 18.115 46.5968C20.1484 46.8916 23.4848 47.6192 25.2317 45.8692C26.9785 44.2757 33.7993 33.2044 33.7993 33.2044Z" fill="black"/>
<path d="M24.6494 28.9861L23.7806 18.2095L4.02964 19.5266C4.02964 19.5266 2.8651 19.674 3.01298 21.8569C3.16086 24.7675 3.44737 27.9729 3.44737 27.9729C3.44737 27.9729 3.29949 29.2808 5.91508 29.4282C8.53067 29.5663 24.3628 29.5663 24.6494 28.9861Z" fill="black"/>
</svg>