<svg width="48" height="48" viewBox="0 0 48 48" fill="none" xmlns="http://www.w3.org/2000/svg">
    <defs>
        <clipPath id="clip0_819_179">
            <rect width="29" height="30" fill="white" transform="translate(9 9)"/>
        </clipPath>
    </defs>
    <path d="M24 48C37.2548 48 48 37.2548 48 24C48 10.7452 37.2548 0 24 0C10.7452 0 0 10.7452 0 24C0 37.2548 10.7452 48 24 48Z" fill="#000403"/>
    <g clip-path="url(#clip0_819_179)">
        <path d="M12.8921 33.76C13.1667 33.8428 13.4366 33.9421 13.7168 34.0039C14.7824 34.2233 15.8423 34.4909 16.9191 34.622C18.398 34.804 19.8909 34.9779 21.3764 34.9678C24.9489 34.9442 28.2412 33.9948 31.0293 31.7367C32.7443 30.3459 33.9673 28.6347 34.4509 26.4575C34.7658 25.0394 34.7264 23.6132 34.5662 22.2087C34.4434 21.1338 34.0161 20.0907 33.718 19.0112C33.8652 19.1077 34.0517 19.2197 34.2269 19.3453C35.8979 20.5458 37.0928 22.0886 37.6308 24.0473C37.9891 25.3357 38.0894 26.6789 37.926 28.0039C37.7713 29.2637 37.4724 30.4715 36.9335 31.6201C35.8529 33.922 34.1688 35.6969 31.9149 36.9657C29.4783 38.341 26.8542 39.0664 24.022 38.9936C21.7465 38.9345 19.5967 38.3829 17.5461 37.409C15.8292 36.5898 14.3532 35.4848 13.0383 34.155C12.9604 34.0682 12.8878 33.9771 12.8209 33.882L12.8921 33.76Z" fill="#F8C33C"/>
        <path d="M21.7897 14.4175C16.3793 16.6019 13.7299 20.3037 14.6418 26.0925C16.1188 30.9939 19.5236 33.476 24.7137 33.71C23.1495 34.1787 21.5076 34.1578 19.8816 34.0476C18.3148 33.9461 16.756 33.7497 15.2144 33.4597C14.1245 33.2512 13.0711 32.8362 12.028 32.4448C11.7103 32.3255 11.4095 32.0225 11.2258 31.7303C10.0309 29.8316 9.36363 27.7737 9.07029 25.5519C8.76758 23.2873 9.51264 21.3823 10.7572 19.581C12.013 17.7606 13.7159 16.4663 15.818 15.6553C17.3028 15.0686 18.8772 14.7241 20.4776 14.6359C20.919 14.6141 21.3529 14.493 21.7897 14.4175Z" fill="#F8C33C"/>
        <path d="M33.7368 23.7835C30.7163 21.8867 27.6789 21.8503 25.0145 24.1713C22.1092 26.7025 21.9799 29.8145 23.873 33.124C23.1073 33.0903 22.4148 33.1412 21.8365 32.4814C21.0075 31.533 20.3737 30.4389 19.9697 29.2584C19.5461 28.0414 19.5067 26.7508 19.6801 25.482C20.1374 22.1224 22.008 19.7414 25.1682 18.3524C27.0781 17.5141 29.0781 17.4722 31.1239 17.89C31.9393 18.0566 32.4041 18.4726 32.7256 19.1643C33.3816 20.5787 33.6562 22.0769 33.8043 23.6033C33.809 23.6534 33.7658 23.708 33.7368 23.7835Z" fill="#F8C33C"/>
        <path d="M9.11059 21.6036C9.24086 21.0511 9.34207 20.4895 9.50608 19.947C9.93624 18.5171 10.5154 17.1454 11.372 15.903C13.3654 13.0131 15.9876 10.8969 19.4139 9.77013C21.7344 9.00739 24.1129 8.86903 26.5271 9.10568C27.2048 9.18763 27.8343 9.48931 28.3136 9.9619C28.7929 10.4345 29.0939 11.0503 29.168 11.7097C29.2618 12.5398 28.542 13.5875 27.6545 14.0398C26.6836 14.5332 25.6742 14.3293 24.6705 14.3129C23.2235 14.2938 21.7737 14.2064 20.3323 14.2801C18.5547 14.3638 16.812 14.7905 15.206 15.5353C12.6756 16.7131 10.7328 18.4634 9.55762 20.9701C9.45172 21.1949 9.33551 21.4152 9.22305 21.6382L9.11059 21.6036Z" fill="#F8C33C"/>
        <path d="M24.5618 29.8834C24.6199 27.546 25.7548 25.8694 27.945 24.9055C29.705 24.1309 31.4529 24.3002 33.1332 25.184C33.7152 25.4908 33.7218 25.6956 33.5681 26.3482C33.1351 28.1786 32.0939 29.634 30.6844 30.8591C29.3189 32.0423 27.7229 32.8542 25.9816 33.3894C25.8748 33.4222 25.6583 33.3166 25.5815 33.2137C24.8439 32.2262 24.4597 31.1294 24.5618 29.8834Z" fill="#F8C33C"/>
    </g>
</svg>
