<svg width="48" height="48" viewBox="0 0 48 48" fill="none" xmlns="http://www.w3.org/2000/svg">
<circle cx="24" cy="24" r="24" fill="#5555FE"/>
<path d="M22.9174 27.8314C23.7383 25.3921 24.4889 23.1639 25.2863 20.9357C26.3184 18.0272 27.4911 15.1892 29.6021 12.8202C31.5723 10.592 34.0585 9.46616 36.9904 9.25506C37.3657 9.23161 37.8582 9.09087 37.694 9.79452C37.2015 11.882 37.0842 14.0399 36.4978 16.1274C35.3251 20.4196 30.939 22.4368 27.796 22.3195C26.9282 22.2961 26.506 22.6244 26.1542 23.2812C25.2864 24.8292 24.7703 26.5179 24.5592 28.2771C24.2074 30.9275 24.184 33.5779 24.8172 36.2049C24.958 36.7678 25.0283 37.3542 25.0518 37.9406C25.1222 39.4417 24.2543 40.3095 22.8001 40.2391C21.3459 40.1922 20.5015 39.2775 20.7361 37.7529C21.1348 35.1259 21.6508 32.5224 21.6508 29.8486C21.6508 27.9722 21.1348 26.3069 19.8448 24.923C19.5164 24.5712 19.2819 24.3601 18.9066 24.9465C17.3351 27.4562 14.0279 27.1982 12.1281 25.2514C10.6739 23.7737 9.54803 22.0146 8 20.6073C12.691 18.1211 18.6017 20.9591 22.9174 27.8314Z" fill="#53D855"/>
</svg>
