<svg xmlns="http://www.w3.org/2000/svg" width="40" height="40" viewBox="0 0 40 40" fill="none">
<path opacity="0.98" d="M20 40C31.0457 40 40 31.0457 40 20C40 8.95431 31.0457 0 20 0C8.95431 0 0 8.95431 0 20C0 31.0457 8.95431 40 20 40Z" fill="#131A35"/>
<path d="M32.1201 16.103V26.9997L20 33.996L7.87316 26.9997V13.0004L20 5.99733L29.3149 11.378L30.7209 10.5669L20 4.375L6.46716 12.1892V27.8108L20 35.625L33.533 27.8108V15.2919L32.1201 16.103Z" fill="url(#paint0_linear_518_142)"/>
<path d="M16.6067 27.0063H14.5787V20.2061H21.3385C21.978 20.199 22.589 19.9404 23.0394 19.4862C23.4897 19.0321 23.7432 18.4189 23.7449 17.7793C23.7485 17.4631 23.6875 17.1494 23.5655 16.8576C23.4433 16.5658 23.2629 16.3021 23.0351 16.0827C22.8147 15.8562 22.5508 15.6765 22.2592 15.5546C21.9677 15.4325 21.6545 15.3707 21.3385 15.3729H14.5787V13.3044H21.3451C22.5298 13.3115 23.6639 13.7853 24.5016 14.6229C25.3392 15.4606 25.813 16.5947 25.8201 17.7793C25.8273 18.6861 25.5509 19.5724 25.0292 20.3142C24.5492 21.0239 23.8727 21.5783 23.0824 21.9095C22.2999 22.1577 21.4833 22.2808 20.6624 22.2745H16.6067V27.0063Z" fill="url(#paint1_linear_518_142)"/>
<path d="M25.7727 26.8373H23.4067L21.5817 23.6535C22.3037 23.6093 23.0159 23.4637 23.6974 23.2209L25.7727 26.8373Z" fill="url(#paint2_linear_518_142)"/>
<path d="M30.7074 13.8385L32.1066 14.6159L33.506 13.8385V12.1959L32.1066 11.3848L30.7074 12.1959V13.8385Z" fill="url(#paint3_linear_518_142)"/>
<defs>
<linearGradient id="paint0_linear_518_142" x1="28.5393" y1="-4.369" x2="-0.946974" y2="4.47623" gradientUnits="userSpaceOnUse">
<stop stop-color="#C200FB"/>
<stop offset="0.489658" stop-color="#3772FF"/>
<stop offset="0.489758" stop-color="#3773FE"/>
<stop offset="1" stop-color="#5AC4BE"/>
</linearGradient>
<linearGradient id="paint1_linear_518_142" x1="28.8014" y1="-5.29142" x2="-0.837329" y2="2.68651" gradientUnits="userSpaceOnUse">
<stop stop-color="#C200FB"/>
<stop offset="0.489658" stop-color="#3772FF"/>
<stop offset="0.489758" stop-color="#3773FE"/>
<stop offset="1" stop-color="#5AC4BE"/>
</linearGradient>
<linearGradient id="paint2_linear_518_142" x1="26.8592" y1="-0.183602" x2="-0.197068" y2="14.3476" gradientUnits="userSpaceOnUse">
<stop stop-color="#C200FB"/>
<stop offset="0.489658" stop-color="#3772FF"/>
<stop offset="0.489758" stop-color="#3773FE"/>
<stop offset="1" stop-color="#5AC4BE"/>
</linearGradient>
<linearGradient id="paint3_linear_518_142" x1="28.5393" y1="-4.36887" x2="-0.94694" y2="4.47649" gradientUnits="userSpaceOnUse">
<stop stop-color="#C200FB"/>
<stop offset="0.489658" stop-color="#3772FF"/>
<stop offset="0.489758" stop-color="#3773FE"/>
<stop offset="1" stop-color="#5AC4BE"/>
</linearGradient>
</defs>
</svg>