<svg xmlns="http://www.w3.org/2000/svg" width="48" height="48" viewBox="0 0 48 48" fill="none">
<g clip-path="url(#clip0_628_194)">
<path d="M23.9994 7.6672e-05L33.2383 9.23901L23.9994 18.478L14.7604 9.23902L23.9994 7.6672e-05Z" fill="#002060"/>
<path d="M23.9994 29.5194L33.2383 38.7583L23.9994 47.9972L14.7604 38.7583L23.9994 29.5194Z" fill="#002060"/>
<path d="M9.23894 14.8326L18.4779 24.0715L9.23894 33.3105L-5.92543e-07 24.0715L9.23894 14.8326Z" fill="#002060"/>
<path d="M21.2324 24.063L14.734 17.5005L8.23592 24.063L14.734 30.6256L21.2324 24.063Z" fill="#4E87F7"/>
<path d="M38.7582 14.8326L47.9972 24.0715L38.7582 33.3105L29.5193 24.0715L38.7582 14.8326Z" fill="#002060"/>
<path d="M39.762 24.063L33.2638 17.5005L26.7655 24.063L33.2638 30.6256L39.762 24.063Z" fill="#4E87F7"/>
<path d="M30.4972 14.8628L23.999 8.3645L17.5007 14.8628L23.999 21.361L30.4972 14.8628Z" fill="#4E87F7"/>
<path d="M30.4972 33.2636L23.999 26.7654L17.5007 33.2636L23.999 39.7619L30.4972 33.2636Z" fill="#4E87F7"/>
</g>
<defs>
<clipPath id="clip0_628_194">
<rect width="48" height="48" fill="white"/>
</clipPath>
</defs>
</svg>