<svg width="40" height="40" viewBox="0 0 40 40" fill="none" xmlns="http://www.w3.org/2000/svg">
<path d="M20 40C31.0457 40 40 31.0457 40 20C40 8.95431 31.0457 0 20 0C8.95431 0 0 8.95431 0 20C0 31.0457 8.95431 40 20 40Z" fill="#149DD9"/>
<path fill-rule="evenodd" clip-rule="evenodd" d="M17.0154 8.75001H18.9636C18.9997 8.74731 19.0285 8.71858 19.0311 8.68245V6.73431C19.0285 6.69818 18.9997 6.66945 18.9636 6.66675H17.0154C16.9793 6.66945 16.9506 6.69818 16.9479 6.73431V8.68245C16.9472 8.70055 16.9542 8.71811 16.967 8.73091C16.9798 8.74375 16.9973 8.75065 17.0154 8.75001ZM18.9636 12.331H17.0154C16.9793 12.3283 16.9506 12.2995 16.9479 12.2634V10.3153C16.9506 10.2791 16.9793 10.2504 17.0154 10.2477H18.9636C18.9997 10.2504 19.0285 10.2791 19.0311 10.3153V12.2634C19.0285 12.2995 18.9997 12.3283 18.9636 12.331ZM18.9636 15.9007H12.939C12.9209 15.9013 12.9033 15.8944 12.8905 15.8816C12.8777 15.8688 12.8708 15.8512 12.8714 15.8331V13.885C12.8741 13.8488 12.9029 13.8201 12.939 13.8174H18.9636C18.9997 13.8201 19.0285 13.8488 19.0311 13.885V15.8331C19.0285 15.8692 18.9997 15.898 18.9636 15.9007ZM8.68239 20.968H6.73425C6.69812 20.9707 6.66939 20.9995 6.66669 21.0356V22.9837C6.66939 23.0199 6.69812 23.0486 6.73425 23.0513H8.68239C8.71852 23.0486 8.74725 23.0199 8.74995 22.9837V21.0356C8.74725 20.9995 8.71852 20.9707 8.68239 20.968ZM13.8849 20.968H15.8331C15.8692 20.9707 15.8979 20.9995 15.9006 21.0356V27.0602C15.8979 27.0963 15.8692 27.1251 15.8331 27.1278H13.8849C13.8488 27.1251 13.82 27.0963 13.8174 27.0602V21.0356C13.82 20.9995 13.8488 20.9707 13.8849 20.968ZM27.7471 19.0199H29.6952C29.7313 19.0172 29.7601 18.9885 29.7628 18.9523V17.0042C29.7601 16.9681 29.7313 16.9393 29.6952 16.9367H27.7471C27.7109 16.9393 27.6822 16.9681 27.6795 17.0042V18.9523C27.6768 18.971 27.6831 18.9897 27.6964 19.003C27.7097 19.0163 27.7284 19.0226 27.7471 19.0199ZM26.1142 19.0199H24.1661C24.148 19.0206 24.1304 19.0136 24.1176 19.0008C24.1048 18.988 24.0979 18.9705 24.0985 18.9523V12.9278C24.1012 12.8916 24.13 12.8629 24.1661 12.8602H26.1142C26.1504 12.8629 26.1791 12.8916 26.1818 12.9278V18.9523C26.1791 18.9885 26.1504 19.0172 26.1142 19.0199ZM10.3152 20.968H12.2634C12.2978 20.9741 12.3248 21.0011 12.3309 21.0356V22.9837C12.3282 23.0199 12.2995 23.0486 12.2634 23.0513H10.3152C10.2791 23.0486 10.2503 23.0199 10.2477 22.9837V21.0356C10.2503 20.9995 10.2791 20.9707 10.3152 20.968ZM27.0714 24.0986H21.0468C21.0107 24.1013 20.982 24.13 20.9793 24.1661V26.1143C20.982 26.1504 21.0107 26.1792 21.0468 26.1819H27.0714C27.1076 26.1792 27.1363 26.1504 27.139 26.1143V24.1661C27.1368 24.1298 27.1078 24.1008 27.0714 24.0986ZM22.6459 20.5514H31.1816C31.1997 20.5508 31.2173 20.5577 31.2301 20.5705C31.2429 20.5833 31.2498 20.6009 31.2492 20.619V22.5108C31.2465 22.5469 31.2178 22.5757 31.1816 22.5784H22.6459C22.6097 22.5757 22.581 22.5469 22.5783 22.5108V20.619C22.581 20.5828 22.6097 20.5541 22.6459 20.5514ZM22.9837 27.6683H21.0356C20.9994 27.671 20.9707 27.6997 20.968 27.7358V29.684C20.9707 29.7201 20.9994 29.7488 21.0356 29.7515H22.9837C23.0199 29.7488 23.0486 29.7201 23.0513 29.684V27.7358C23.0519 27.7177 23.045 27.7002 23.0322 27.6874C23.0194 27.6745 23.0018 27.6676 22.9837 27.6683ZM17.3533 17.4209C17.3894 17.4236 17.4181 17.4523 17.4208 17.4884V19.3803C17.4181 19.4164 17.3894 19.4451 17.3533 19.4478H8.81752C8.78139 19.4451 8.75265 19.4164 8.74995 19.3803V17.4884C8.75265 17.4523 8.78139 17.4236 8.81752 17.4209H17.3533ZM33.2649 16.9479H31.3168C31.2806 16.9506 31.2519 16.9793 31.2492 17.0155V18.9636C31.2519 18.9998 31.2806 19.0285 31.3168 19.0312H33.2649C33.301 19.0285 33.3298 18.9998 33.3325 18.9636V17.0155C33.335 16.9969 33.3289 16.9781 33.3156 16.9648C33.3023 16.9515 33.2835 16.9452 33.2649 16.9479ZM17.4884 22.5784H19.3802C19.4164 22.581 19.4451 22.6098 19.4478 22.6459V31.1817C19.4451 31.2178 19.4164 31.2465 19.3802 31.2492H17.4884C17.4523 31.2465 17.4235 31.2178 17.4208 31.1817V22.6459C17.4235 22.6098 17.4523 22.581 17.4884 22.5784ZM22.5783 17.3646V8.81758C22.5756 8.78145 22.5469 8.75271 22.5108 8.75001H20.6189C20.5828 8.75271 20.554 8.78145 20.5514 8.81758V17.3646C20.554 17.4007 20.5828 17.4294 20.6189 17.4321H22.5108C22.5469 17.4294 22.5756 17.4007 22.5783 17.3646ZM21.0356 31.2492H22.9837C23.0023 31.2466 23.0211 31.2528 23.0344 31.2661C23.0477 31.2794 23.0539 31.2982 23.0513 31.3168V33.2649C23.0486 33.3011 23.0199 33.3298 22.9837 33.3325H21.0356C20.9994 33.3298 20.9707 33.3011 20.968 33.2649V31.3168C20.9707 31.2806 20.9994 31.2519 21.0356 31.2492Z" fill="white"/>
</svg>
