<svg width="48" height="48" viewBox="0 0 48 48" fill="none" xmlns="http://www.w3.org/2000/svg">
    <path d="M23.9995 47.9989C37.254 47.9989 47.9989 37.254 47.9989 23.9995C47.9989 10.7449 37.254 0 23.9995 0C10.7449 0 0 10.7449 0 23.9995C0 37.254 10.7449 47.9989 23.9995 47.9989Z" fill="url(#paint0_linear_892_3011)"/>
    <path d="M39.0779 29.9943C38.9846 30.4572 38.8425 30.9089 38.6538 31.3418L38.2372 30.6803C38.2313 30.6337 38.2132 30.5896 38.1847 30.5523C38.1562 30.5151 38.1183 30.4861 38.075 30.4682C37.6891 32.4825 36.5219 34.0017 34.9793 35.2675C34.4069 35.7371 33.8132 36.1771 33.2831 36.6997C32.4997 37.4821 31.677 38.2422 31.3834 39.3755C31.3261 39.595 31.2233 39.5028 31.113 39.4201C30.7399 39.1314 30.4778 38.7229 30.3709 38.2634C28.4054 39.8452 26.142 40.4071 23.7016 40.4113C24.3059 40.2459 24.9207 40.1155 25.5314 39.9671C27.111 39.5823 28.6121 39.0215 29.9119 38.0058C30.3529 37.6613 30.6646 37.1991 31.078 36.7729C30.8119 38.3631 30.8119 38.3631 31.1024 38.7013C31.8827 37.2616 33.0743 36.21 34.3295 35.2177C34.9812 34.7243 35.5758 34.1596 36.102 33.5342C36.8982 32.5472 37.4664 31.4658 37.6403 30.1862C37.706 29.7028 37.5343 29.2321 37.6244 28.702L38.4863 30.1725C38.9369 28.0999 38.3548 26.2499 37.3848 24.4763C36.9024 23.4575 36.2579 22.5447 35.5582 21.668C35.4959 21.5974 35.4482 21.5151 35.4178 21.4259C35.3874 21.3368 35.375 21.2425 35.3811 21.1485C35.4278 20.416 35.5455 19.7099 36.1232 19.1162C35.344 18.9328 35.1278 19.6749 34.5532 19.9368C35.044 18.9657 35.5253 18.0656 35.5274 16.9684L34.9073 17.4211L34.5723 16.4161C33.8832 14.3021 33.0435 12.2539 31.9166 10.333C31.3282 9.33114 30.6709 8.37595 29.7645 7.62431C29.1783 7.13665 28.9016 7.14937 28.3238 7.6911C28.272 7.7252 28.2234 7.76388 28.1785 7.80666C27.1746 8.95161 26.5682 10.3203 25.9798 11.7006C25.9077 11.8681 26.0031 11.8871 26.1039 11.9476C26.3562 12.1013 26.6785 12.1691 26.8057 12.4872C26.6997 12.4501 26.5936 12.4151 26.4823 12.3812C25.1041 11.8967 23.7111 11.7843 22.3086 12.2889C22.1654 12.3409 22.0509 12.2889 21.9195 12.238C21.3594 11.9849 20.7327 11.9187 20.1321 12.0493C19.812 12.122 19.498 12.2191 19.1928 12.3398C18.9924 12.4172 19.0592 12.3091 19.1186 12.2168C19.6487 11.8585 20.2264 11.6104 20.9304 11.5808C20.3632 10.4051 19.7769 9.28343 18.9013 8.34097C18.5917 8.00808 18.2779 7.66778 17.8125 7.54162C17.081 7.2522 16.6039 7.64764 16.1767 8.1565C15.8981 8.48958 15.6497 8.84685 15.4346 9.22407C14.1296 11.5065 13.2762 13.9756 12.4535 16.4563C12.3825 16.6684 12.3867 16.9684 12.2415 17.0924C12.0411 17.2652 11.8524 16.9037 11.598 16.9196C11.643 17.9605 11.9116 18.9794 12.3856 19.9071C11.3329 19.2371 11.3329 19.2371 10.9969 19.3134C11.3965 19.9559 11.5502 20.6715 11.6626 21.3987C11.7188 21.7581 11.6881 22.0815 11.4336 22.39C11.0225 22.91 10.6739 23.4764 10.3947 24.0777C9.92823 25.0233 9.55294 26.0008 9.42149 27.097C9.71938 26.9284 9.90279 26.6549 10.2611 26.5203C9.99396 27.1903 9.74695 27.7988 9.64941 28.4518C9.63351 28.5515 9.61867 28.6511 9.60277 28.7508C9.28473 30.7184 9.63351 32.5588 10.7551 34.2116C11.582 35.4297 12.6146 36.5068 13.2263 37.8956C13.6133 37.5033 13.3599 37.0252 13.4744 36.5937C14.7116 38.29 15.9318 39.2017 17.8496 39.8685L19.0931 40.3339C18.4571 40.4039 17.9535 40.1865 17.4308 40.1314C17.41 40.1203 17.3866 40.1151 17.363 40.1166C17.3312 40.0371 17.2686 40.0424 17.2019 40.0572C16.1544 39.6575 15.1579 39.173 14.3342 38.3885C14.3043 38.365 14.2763 38.3391 14.2504 38.3112C14.013 38.008 13.7755 37.7535 13.4882 38.2666C13.4606 38.3154 13.3822 38.3355 13.3302 38.3726C13.0821 38.5253 12.8754 38.5921 12.8256 38.1861C12.7943 38.0783 12.7471 37.9757 12.6857 37.8818C12.2702 36.9861 11.7306 36.1535 11.0827 35.4085C10.1572 34.3081 9.47979 33.0847 9.19037 31.6598C9.15539 31.4902 9.20734 31.2962 9.07588 31.1478C9.03237 30.4063 9.03237 29.6629 9.07588 28.9215L9.28791 27.961C9.28791 27.9292 9.28791 27.8974 9.28791 27.8656L9.219 27.9101L8.85855 28.1433C8.91749 26.74 9.25782 25.3628 9.85932 24.0936C10.2738 23.3865 10.6353 22.6476 11.1432 21.9956C11.3859 21.6775 11.1538 21.3309 11.1326 20.9991C11.1188 20.7764 11.0181 20.5591 10.9566 20.3396C10.8667 19.9694 10.6922 19.625 10.4466 19.3336C10.3141 19.1735 10.3406 19.0908 10.5261 18.9986C10.7712 18.8749 11.0405 18.8065 11.3149 18.7982C11.4612 18.7982 11.4644 18.741 11.3796 18.6455C11.2513 17.8292 11.0817 17.0172 11.1675 16.1648C11.3584 16.1871 11.51 16.3047 11.6658 16.4023C11.9012 16.5507 11.9923 16.4871 12.074 16.2231C12.587 14.5332 13.2012 12.8757 13.9133 11.2595C14.4784 9.99585 15.0487 8.72686 16.0028 7.68898C16.7831 6.84087 17.5994 6.75288 18.5472 7.41016C19.2893 7.92327 19.7897 8.64841 20.271 9.38733C20.6637 10.0097 21.016 10.6567 21.3258 11.3242C21.4827 11.6486 22.0181 11.8914 22.3647 11.7748C23.2953 11.4514 24.3007 11.4101 25.2547 11.656C25.5377 11.7292 25.5727 11.5288 25.6416 11.3613C26.0986 10.2545 26.6117 9.1753 27.3008 8.19043C27.587 7.78227 27.8944 7.3932 28.3142 7.10696C28.9069 6.70305 29.3988 6.73379 29.9522 7.18223C31.1978 8.19361 32.0226 9.5209 32.769 10.9044C33.7125 12.6483 34.4376 14.4866 35.0536 16.3673C35.1532 16.6694 35.2423 16.6228 35.4235 16.468C35.5847 16.3302 35.7596 16.2062 35.9716 16.044C36.0289 16.8242 36.031 17.5419 35.7967 18.2395C35.7119 18.4908 35.6812 18.654 36.0469 18.6487C36.4317 18.6487 36.7254 18.883 37.0519 19.1194C36.665 19.3919 36.1678 19.4979 36.0808 20.0248C35.6992 20.787 35.7776 21.4634 36.454 22.0295C36.9841 22.8511 37.5385 23.6526 37.9647 24.5346L38.3803 25.3902C38.6029 26.0496 38.8542 26.6984 38.9941 27.3822C39.1659 28.2423 39.1942 29.125 39.0779 29.9943Z" fill="#242425"/>
    <path d="M37.388 24.4692C38.358 26.2418 38.94 28.0928 38.4895 30.1654L37.6276 28.695C37.5343 29.2314 37.7092 29.6979 37.6435 30.1792C37.4696 31.4588 36.9014 32.5401 36.1052 33.5271C35.5784 34.1534 34.9832 34.7188 34.3305 35.2127C33.0753 36.205 31.8837 37.2567 31.1035 38.6963C30.813 38.3592 30.813 38.3592 31.0791 36.7679C30.6614 37.192 30.3497 37.6563 29.9129 38.0009C28.6111 39.0133 27.1099 39.5773 25.5314 39.9674C24.9207 40.1159 24.3058 40.2463 23.7016 40.4116C26.1399 40.4116 28.4054 39.8455 30.3709 38.2638C30.4778 38.7233 30.7399 39.1318 31.113 39.4204C31.219 39.5031 31.325 39.5953 31.3834 39.3759C31.677 38.2426 32.4997 37.4825 33.2831 36.7001C33.8132 36.1774 34.4058 35.7375 34.9794 35.2678C36.5219 34.002 37.6891 32.4881 38.075 30.4686C38.1183 30.4864 38.1562 30.5154 38.1847 30.5527C38.2132 30.5899 38.2313 30.6341 38.2372 30.6806C38.0633 31.1227 38.0018 31.5966 37.8195 32.0408C37.4997 32.7841 37.0941 33.4876 36.6109 34.1367C35.6939 35.3675 34.567 36.381 33.3499 37.3033C33.0565 37.5281 32.808 37.8061 32.6174 38.1228C32.1933 38.6444 31.8837 39.219 31.853 39.9113C31.8392 40.2155 31.6102 40.1339 31.4586 40.0968C31.006 39.9942 30.6027 39.7384 30.3169 39.3727C30.1048 39.0939 29.9193 39.1268 29.6447 39.2667C28.132 40.0271 26.5222 40.5768 24.8603 40.9004C23.2287 41.212 21.5961 41.2937 19.9444 40.9915C19.144 40.8457 18.362 40.6128 17.6121 40.2971C17.5294 40.2622 17.4361 40.2516 17.4287 40.1349C17.9514 40.1901 18.4528 40.4074 19.091 40.3374L17.8475 39.872C17.9689 39.8351 18.0979 39.8303 18.2217 39.8582C18.7074 39.95 19.1986 40.0099 19.6921 40.0374C21.065 40.0618 22.4358 40.0533 23.8012 39.8254C26.4516 39.3833 28.7415 38.2225 30.6996 36.3979C31.2215 35.9295 31.6998 35.4146 32.1286 34.8597C32.1954 35.0717 32.0714 35.3092 32.2166 35.3834C32.3619 35.4576 32.5347 35.288 32.6831 35.1904C32.7679 35.1343 32.8517 35.077 32.9322 35.0145C33.732 34.3646 34.4766 33.6498 35.1585 32.8772C36.4636 31.4471 37.1251 29.7848 37.142 27.8574C37.142 27.5638 37.142 27.2701 37.142 26.9765C37.142 26.8938 37.1007 26.7772 37.2099 26.7411C37.3191 26.7051 37.3668 26.809 37.4219 26.8715C37.5799 27.0401 37.7304 27.2161 37.9159 27.4249C37.8841 26.5196 37.6764 25.6979 37.423 24.8806C37.3912 24.7544 37.2322 24.6219 37.388 24.4692Z" fill="#CAC6C5"/>
    <path d="M17.2018 40.0572C17.2686 40.0424 17.3312 40.0371 17.363 40.1166C17.3333 40.1251 17.3017 40.1239 17.2727 40.1133C17.2437 40.1026 17.2189 40.083 17.2018 40.0572Z" fill="#CAC6C5"/>
    <path d="M28.3291 7.68367C28.9068 7.14193 29.1835 7.12921 29.7698 7.61688C30.6762 8.36852 31.3335 9.3237 31.9219 10.3255C33.0488 12.2465 33.8884 14.2947 34.5775 16.4086C34.5472 16.4192 34.5208 16.4387 34.5018 16.4647C34.4829 16.4906 34.4723 16.5217 34.4715 16.5539C34.5001 17.2705 34.3952 17.9617 34.0082 18.6339C34.4652 18.4833 34.5383 18.5183 34.4535 18.9201C34.2743 19.7894 34.1503 20.7033 33.2089 21.1549C33.0297 21.2407 33.1135 21.3287 33.229 21.3987C33.5297 21.5909 33.8626 21.727 34.2118 21.8005C34.3793 21.8344 34.5394 21.8811 34.6464 22.0677C35.3324 23.2699 35.9091 24.5155 36.1158 25.8948C36.1985 26.446 36.2303 27.0196 35.9822 27.6334C35.8031 26.7047 35.4956 26.0305 35.0281 25.8555C35.1097 26.7302 35.2603 27.5952 35.168 28.4942C35.0482 29.671 34.7705 30.7682 34.0856 31.7457C33.5874 32.4581 32.9682 33.0242 32.1615 33.3698C32.1413 33.2341 32.2261 33.1408 32.2845 33.0316C32.4223 32.773 32.6279 32.5397 32.6226 32.2206L32.6799 32.139L32.6502 32.1199L32.6216 32.2196C32.4732 32.2196 32.3958 32.3256 32.3099 32.4199C31.3009 33.4814 30.1538 34.4025 28.8994 35.1583C27.0156 36.3075 25.0013 37.0263 22.6764 37.1863L23.7599 36.5004C23.2468 36.6064 22.7326 36.5502 22.2375 36.6531C22.088 36.6838 21.9025 36.7326 21.7869 36.5471C22.792 36.123 23.0846 35.6152 22.9658 34.5328C22.9298 34.2031 22.9266 33.8702 22.8916 33.5394C22.8672 33.3105 22.9669 33.2214 23.1725 33.127C25.1688 32.245 26.4134 30.7269 26.9509 28.6183C26.97 28.543 26.9509 28.4349 27.077 28.4317C27.1449 28.7571 27.0368 29.0678 26.971 29.4049C27.5605 28.9808 27.6135 28.0405 27.0982 27.503C26.7972 27.185 26.477 26.8955 26.1632 26.5945C25.9289 26.3718 25.7275 26.111 25.3755 25.881C25.6054 26.4721 25.9593 27.0071 26.4134 27.45C26.5247 27.5645 26.6254 27.6546 26.5491 27.8391C26.0402 29.143 25.2356 30.1873 23.9539 30.8159C23.7186 30.9405 23.4582 31.0102 23.1922 31.0199C22.9262 31.0296 22.6615 30.9791 22.4177 30.8721C21.7816 30.6092 21.1986 30.2498 20.5922 29.9318C20.1109 29.6795 19.9105 29.3434 19.9635 28.8102C19.9836 28.6119 19.9953 28.5165 20.2307 28.4476C21.0035 28.2207 21.6958 27.8507 22.0594 27.0694C22.423 26.2881 22.2142 25.4951 21.4668 25.1431C21.0029 24.9129 20.4965 24.7806 19.9793 24.7545C19.462 24.7284 18.9449 24.8091 18.4602 24.9915C17.5718 25.3223 17.257 26.2637 17.7107 27.1033C17.9698 27.6084 18.3962 28.0079 18.9171 28.2334C19.3889 28.4285 19.5691 28.6946 19.5458 29.2098C19.5331 29.4897 19.4769 29.6508 19.2521 29.7908C18.9076 30.0028 18.5779 30.2456 18.2334 30.4619C17.7224 30.7799 17.575 30.7725 17.1128 30.3972C16.9358 30.271 16.7828 30.1141 16.6612 29.9339C16.0251 28.8165 15.6954 27.6345 16.111 26.3623C16.641 24.7488 19.0274 23.4692 20.7925 23.818C21.1106 23.8837 21.4403 23.9473 21.7636 24.012C20.5127 23.2062 19.2256 23.2243 17.928 23.854C14.807 25.3679 15.0529 28.3967 16.4322 30.3357C16.7682 30.8085 17.1923 31.2209 17.4923 31.7393C17.5791 31.8724 17.6363 32.0226 17.6603 32.1796C17.6842 32.3367 17.6743 32.4971 17.6312 32.65C17.2188 34.3992 17.8337 35.7414 19.3497 36.4665C19.2502 36.486 19.1487 36.4932 19.0475 36.4877C17.4923 36.2184 16.0314 35.7011 14.701 34.8254C14.3829 34.6134 14.12 34.3303 13.7468 34.2084C13.7362 34.1755 13.7267 34.1427 13.7172 34.1098L13.6875 34.1289L13.7447 34.2105C13.7267 34.5519 14.0098 34.7851 14.1136 35.1392C13.979 35.082 13.8942 35.0544 13.8189 35.012C11.6859 33.8267 10.3784 32.0376 9.89641 29.6445C9.8169 29.2459 9.91019 28.8049 9.63561 28.4486C9.73315 27.7956 9.98016 27.1871 10.2473 26.5171C9.88899 26.6517 9.70558 26.9252 9.40768 27.0938C9.53914 25.9976 9.91443 25.0201 10.3809 24.0745C10.6639 23.4738 11.0166 22.9084 11.4315 22.3899C11.6859 22.0814 11.7167 21.7539 11.6605 21.3987C11.5481 20.6715 11.3944 19.9559 10.9947 19.3134C11.3308 19.2371 11.3308 19.2371 12.3835 19.9071C11.9112 18.9761 11.6455 17.9542 11.6043 16.9111C11.8587 16.8952 12.0474 17.2567 12.2478 17.0839C12.3941 16.9588 12.3899 16.6599 12.4598 16.4479C13.2825 13.9671 14.1359 11.4981 15.4409 9.21557C15.6561 8.83835 15.9044 8.48108 16.183 8.14801C16.6071 7.63596 17.0873 7.24371 17.8188 7.53312C17.8223 7.5777 17.8352 7.62104 17.8566 7.66032C17.8779 7.69959 17.9073 7.73392 17.9429 7.76105C18.6998 8.46817 19.1302 9.37671 19.5161 10.3107C19.5762 10.4349 19.6093 10.5705 19.6133 10.7084C19.6173 10.8463 19.5922 10.9836 19.5394 11.1111C19.3953 11.4715 19.0952 11.7801 19.1249 12.2062C19.0656 12.2985 18.9988 12.4066 19.1991 12.3292C19.5043 12.2085 19.8184 12.1114 20.1384 12.0387C20.7393 11.9075 21.3664 11.9733 21.9269 12.2264C22.0583 12.2815 22.1728 12.3324 22.316 12.2773C23.7185 11.7726 25.1084 11.885 26.4897 12.3695C26.5957 12.4077 26.7018 12.4426 26.8131 12.4755C26.9371 12.5412 27.0929 12.6525 27.199 12.5815C27.3304 12.4935 27.2806 12.2857 27.2371 12.1575C27.1428 11.8839 27.2371 11.6274 27.2467 11.3687C27.2626 10.4634 27.5202 9.62054 27.835 8.78303C27.976 8.40774 28.2411 8.08652 28.3291 7.68367ZM17.7542 9.04489C17.6757 8.71518 17.5125 8.45651 17.1605 8.36958C16.8085 8.28265 16.5912 8.52648 16.3993 8.76713C16.248 8.95616 16.1092 9.15483 15.9837 9.36187C14.8958 11.1799 14.0218 13.1176 13.379 15.1365C13.185 15.7407 13.0185 16.3577 12.991 16.9981C12.9719 17.4221 13.1457 17.5334 13.5306 17.332C14.0121 17.074 14.4488 16.74 14.8239 16.3429C15.4314 15.9549 15.4929 15.3718 15.3964 14.7347C15.3805 14.6361 15.318 14.529 15.424 14.4569C15.4641 14.4365 15.509 14.4273 15.5539 14.43C15.5988 14.4328 15.6422 14.4476 15.6795 14.4728C15.727 14.4916 15.7734 14.5132 15.8184 14.5375C16.0166 14.6689 16.1014 14.6721 16.1364 14.3816C16.2124 13.8838 16.4388 13.421 16.7852 13.0554C16.9432 13.2462 17.0099 13.4795 17.1955 13.6226C17.3131 13.7137 17.4414 13.8134 17.5602 13.6692C18.0234 13.1105 18.5196 12.5593 18.4199 11.7482C18.3859 11.3826 18.3336 11.0188 18.263 10.6584C18.1464 10.1071 18.0955 9.52831 17.7542 9.04489ZM31.6971 16.2708C32.2018 16.6535 32.6714 17.0935 33.2873 17.2938C33.6976 17.4253 33.8365 17.3256 33.8429 16.9037C33.8577 16.0259 33.6245 15.1916 33.3478 14.3742C32.8813 12.996 32.2261 11.6974 31.4925 10.4422C31.0314 9.65235 30.5522 8.8689 29.8949 8.21586C29.5609 7.88403 29.1804 7.88827 28.9015 8.23388C28.7446 8.42895 28.5835 8.63779 28.557 8.90389C28.2708 9.39791 28.2029 9.95767 28.1033 10.5015C27.9967 10.9865 27.9518 11.4831 27.9697 11.9794C28.011 12.5868 28.4584 13.0257 28.8093 13.4901C28.9227 13.6395 29.0807 13.6236 29.209 13.4975C29.2984 13.4075 29.3777 13.3079 29.4454 13.2006C29.6733 12.8519 29.6574 12.8561 29.914 13.2123C30.1992 13.6141 30.2638 14.0986 30.4324 14.564C30.5056 14.5267 30.5764 14.485 30.6444 14.4389C30.7032 14.3885 30.7752 14.3561 30.8518 14.3454C30.9285 14.3347 31.0066 14.3461 31.077 14.3785C31.2434 14.4601 31.0865 14.6021 31.077 14.7166C31.06 15.323 31.0589 15.921 31.6971 16.2708ZM25.2716 21.3001C24.9715 21.2136 24.6545 21.203 24.3493 21.2694C23.991 21.3531 23.6867 21.5545 23.5924 21.9436C23.5054 22.303 23.6772 22.5935 23.9305 22.8246C24.1307 23.0123 24.3733 23.1489 24.6376 23.2228C24.9019 23.2966 25.1802 23.3055 25.4487 23.2487C25.8081 23.184 26.1123 23.0239 26.2385 22.6719C26.3646 22.32 26.2565 21.9977 25.9565 21.7093C25.9565 22.0274 25.7964 22.1896 25.5324 22.2256C25.4429 22.2392 25.3514 22.2238 25.2713 22.1816C25.1912 22.1395 25.1266 22.0728 25.0872 21.9913C24.9504 21.738 25.0458 21.528 25.2716 21.3001ZM15.8565 21.9214C15.5554 22.4907 15.7505 22.9232 16.3633 23.1077C16.6833 23.1944 17.0242 23.1565 17.3174 23.0016C17.7648 22.7981 17.9863 22.3974 17.9015 21.9977C17.8241 21.6341 17.4541 21.3955 16.9548 21.4019C16.7428 21.4019 16.3781 21.2959 16.6463 21.757C16.728 21.8959 16.6188 22.0613 16.482 22.145C16.4172 22.1873 16.3412 22.2087 16.2639 22.2067C16.1866 22.2046 16.1118 22.179 16.0495 22.1334C15.9782 22.0693 15.9136 21.9983 15.8565 21.9214Z" fill="#EEEEED"/>
    <path d="M13.7553 34.2121C14.1253 34.334 14.3914 34.6213 14.7095 34.8291C16.0357 35.7047 17.4966 36.2221 19.056 36.4914C19.1572 36.4968 19.2587 36.4897 19.3582 36.4702C20.1359 36.7847 21 36.8128 21.7965 36.5497C21.9121 36.7331 22.0976 36.6843 22.2471 36.6557C22.7422 36.5497 23.2563 36.6069 23.7694 36.503L22.686 37.1889C25.0098 37.0288 27.0325 36.3101 28.9079 35.1598C30.1623 34.404 31.3094 33.483 32.3184 32.4215C32.4043 32.3303 32.4817 32.219 32.6301 32.2211C32.6301 32.5392 32.4297 32.7734 32.2919 33.0321C32.2336 33.1381 32.1488 33.2346 32.1689 33.3703L32.0682 33.3989L32.0873 33.4286L32.17 33.3714C32.9767 33.0258 33.5959 32.4596 34.0941 31.7472C34.779 30.7698 35.0567 29.6725 35.1765 28.4958C35.2688 27.5968 35.1182 26.7317 35.0366 25.8571C35.5031 26.032 35.8105 26.7052 35.9907 27.6349C36.2388 27.0211 36.2028 26.4476 36.1243 25.8963C35.9123 24.5181 35.3409 23.2714 34.6549 22.0692C34.5489 21.8826 34.3878 21.836 34.2203 21.802C33.8711 21.7285 33.5382 21.5924 33.2375 21.4002C33.122 21.3303 33.0382 21.2423 33.2174 21.1564C34.1588 20.7048 34.2828 19.7909 34.462 18.9216C34.5447 18.5198 34.4737 18.4849 34.0167 18.6354C34.4037 17.9633 34.5086 17.2721 34.48 16.5554C34.4808 16.5233 34.4914 16.4922 34.5103 16.4662C34.5293 16.4403 34.5557 16.4207 34.586 16.4102L34.921 17.4152L35.5412 16.9625C35.5412 18.0597 35.0578 18.9598 34.567 19.9309C35.1416 19.669 35.3578 18.9269 36.137 19.1103C35.5571 19.704 35.4394 20.4101 35.3949 21.1426C35.3887 21.2366 35.4012 21.3309 35.4316 21.42C35.462 21.5092 35.5097 21.5915 35.572 21.6621C36.2717 22.5388 36.9162 23.4516 37.3986 24.4704C37.2428 24.6231 37.3986 24.7556 37.4421 24.8828C37.6954 25.697 37.9032 26.5186 37.935 27.4271C37.7495 27.2151 37.599 27.0423 37.441 26.8738C37.3838 26.8112 37.3265 26.7094 37.229 26.7434C37.1314 26.7773 37.1622 26.896 37.1611 26.9787C37.1558 27.2724 37.1611 27.566 37.1611 27.8597C37.1442 29.787 36.4826 31.4493 35.1776 32.8795C34.4957 33.652 33.751 34.3669 32.9513 35.0167C32.8707 35.0792 32.787 35.1365 32.7022 35.1927C32.5569 35.2902 32.3915 35.4651 32.2357 35.3856C32.0799 35.3061 32.2145 35.0771 32.1477 34.8619C31.7189 35.4169 31.2406 35.9317 30.7186 36.4002C28.7606 38.2247 26.4781 39.3855 23.8203 39.8276C22.4549 40.0545 21.0841 40.063 19.7112 40.0397C19.2177 40.0121 18.7265 39.9523 18.2408 39.8605C18.117 39.8326 17.988 39.8373 17.8666 39.8743C15.9488 39.2074 14.7285 38.2978 13.4914 36.5995C13.3769 37.031 13.6302 37.5091 13.2433 37.9013C12.6316 36.5126 11.599 35.4355 10.7721 34.2174C9.65048 32.5646 9.30381 30.7189 9.61974 28.7566C9.63564 28.6569 9.65048 28.5573 9.66638 28.4576C9.94096 28.8138 9.84766 29.2548 9.92718 29.6534C10.4085 32.0501 11.716 33.8392 13.8497 35.0209C13.925 35.0634 14.0098 35.0909 14.1444 35.1482C14.0384 34.7941 13.7575 34.5608 13.7755 34.2195L13.7553 34.2121ZM34.5765 20.0062C34.585 19.9966 34.5998 19.9881 34.5998 19.9786C34.5998 19.9691 34.586 19.9595 34.5776 19.95C34.5691 19.9595 34.5532 19.968 34.5532 19.9775C34.5532 19.9871 34.568 19.9987 34.5765 20.0083V20.0062Z" fill="#DCD9D8"/>
    <path d="M19.1239 12.2053C19.0942 11.7813 19.3942 11.4706 19.5384 11.1102C19.5911 10.9827 19.6163 10.8454 19.6122 10.7075C19.6082 10.5696 19.5751 10.434 19.5151 10.3098C19.1292 9.37581 18.6988 8.46727 17.9418 7.76016C17.9063 7.73302 17.8769 7.69869 17.8555 7.65942C17.8341 7.62014 17.8213 7.5768 17.8178 7.53223C18.2832 7.65838 18.597 7.99869 18.9065 8.33157C19.7822 9.27404 20.3685 10.3957 20.9357 11.5714C20.2307 11.5989 19.6582 11.847 19.1239 12.2053Z" fill="#DCD9D8"/>
    <path d="M28.3291 7.68408C28.2411 8.08694 27.976 8.40816 27.8329 8.78981C27.5149 9.62732 27.2604 10.4701 27.2445 11.3755C27.2445 11.6373 27.1385 11.8907 27.235 12.1642C27.2785 12.2915 27.3283 12.4992 27.1968 12.5883C27.0908 12.6583 26.935 12.5469 26.811 12.4823C26.6837 12.1642 26.3615 12.0964 26.1091 11.9427C26.0031 11.8822 25.913 11.8632 25.9851 11.6957C26.5735 10.3175 27.1799 8.94671 28.1838 7.80176C28.2286 7.75824 28.2772 7.71886 28.3291 7.68408Z" fill="#DCD9D8"/>
    <path d="M9.21368 27.9093L9.2826 27.8647C9.2826 27.8966 9.2826 27.9284 9.2826 27.9602L9.21368 27.9093Z" fill="#A7D6FE"/>
    <path d="M21.787 36.5496C20.9904 36.8127 20.1263 36.7846 19.3486 36.4701C17.8326 35.7449 17.2178 34.4028 17.6301 32.6535C17.6733 32.5006 17.6832 32.3403 17.6592 32.1832C17.6353 32.0261 17.578 31.876 17.4913 31.7429C17.1891 31.2245 16.7651 30.8121 16.4311 30.3393C15.0529 28.4003 14.8059 25.3714 17.927 23.8576C19.2246 23.2278 20.5116 23.2098 21.7626 24.0155C21.4392 23.9509 21.1148 23.8872 20.7915 23.8215C19.0264 23.4685 16.6379 24.7481 16.1099 26.3659C15.6943 27.638 16.024 28.8201 16.6601 29.9375C16.7818 30.1177 16.9347 30.2746 17.1117 30.4008C17.574 30.776 17.7213 30.7835 18.2323 30.4654C18.5769 30.2534 18.9066 30.0096 19.2511 29.7943C19.4759 29.6544 19.532 29.4933 19.5448 29.2134C19.5681 28.6982 19.3879 28.4321 18.9161 28.237C18.3952 28.0114 17.9687 27.612 17.7097 27.1069C17.2559 26.2726 17.5708 25.3259 18.4592 24.9951C18.9439 24.8127 19.461 24.732 19.9782 24.7581C20.4955 24.7841 21.0018 24.9164 21.4657 25.1467C22.2131 25.4987 22.4273 26.28 22.0584 27.073C21.6894 27.866 20.9982 28.2232 20.2296 28.4511C19.9943 28.5201 19.9826 28.6155 19.9625 28.8137C19.9095 29.3438 20.1098 29.683 20.5911 29.9353C21.1975 30.2534 21.7806 30.6128 22.4167 30.8757C22.6604 30.9827 22.9252 31.0332 23.1912 31.0235C23.4572 31.0137 23.7176 30.944 23.9528 30.8195C25.2345 30.1908 26.0392 29.1466 26.5481 27.8426C26.6191 27.6582 26.5237 27.5681 26.4124 27.4536C25.9583 27.0107 25.6044 26.4757 25.3745 25.8846C25.7264 26.1146 25.9279 26.3754 26.1622 26.598C26.4802 26.8991 26.7982 27.1928 27.0972 27.5066C27.6124 28.0441 27.5594 28.9908 26.97 29.4085C27.0368 29.0692 27.1449 28.7607 27.076 28.4352C26.9467 28.4352 26.97 28.5466 26.9498 28.6218C26.4124 30.7305 25.1677 32.2486 23.1715 33.1306C22.9658 33.2218 22.8662 33.314 22.8906 33.543C22.9256 33.8738 22.9287 34.2067 22.9648 34.5364C23.0846 35.6209 22.792 36.1266 21.787 36.5496ZM19.7006 34.5745C19.3211 33.1592 19.3985 31.7895 20.1247 30.4834C20.1681 30.4029 20.3462 30.3117 20.1936 30.2067C20.0579 30.1124 19.9211 29.9046 19.7324 30.0127C19.4801 30.1559 19.1928 30.3096 19.038 30.5428C18.3638 31.5404 17.9259 32.6345 17.9874 33.8642C18.0828 35.7439 20.2731 36.9217 21.9174 35.993C22.3541 35.746 22.6383 35.3813 22.5534 34.8724C22.3812 33.8005 22.4096 32.7059 22.6372 31.6443C22.6743 31.4704 22.6117 31.4026 22.4464 31.3506C21.9121 31.1799 21.4024 30.94 20.9304 30.6372C20.7035 30.4951 20.606 30.5587 20.4904 30.7633C20.1599 31.3363 19.9287 31.961 19.8066 32.6111C19.6858 33.2631 19.7398 33.9247 19.7006 34.5745ZM20.5901 26.1888C20.553 26.5535 20.712 26.7931 20.9251 27.003C21.1784 27.2511 21.4838 27.2044 21.6343 26.8832C21.9131 26.2906 21.7965 25.7828 21.2102 25.5135C20.3621 25.1297 19.4812 25.1212 18.6065 25.4022C18.1772 25.54 17.9185 26.0319 17.9789 26.4719C17.9991 26.6129 18.0372 26.7549 18.1782 26.8196C18.2588 26.8556 18.3288 26.7846 18.3659 26.7199C18.4507 26.5662 18.5376 26.4093 18.4931 26.2259C18.3691 26.1824 18.3744 26.4072 18.2196 26.3213C18.2461 26.1029 18.3161 25.8527 18.5684 25.8814C18.861 25.9142 18.8949 26.2227 18.8737 26.457C18.8552 26.7129 18.7648 26.9584 18.6129 27.1652C18.5281 27.2712 18.4836 27.3528 18.6129 27.4832C19.249 28.1087 19.972 28.2147 20.7205 27.7769C20.9028 27.6709 20.9696 27.6052 20.7586 27.4398C20.578 27.3053 20.4328 27.1288 20.3356 26.9256C20.2385 26.7225 20.1922 26.4987 20.201 26.2736C20.201 26.0457 20.2773 25.8231 20.5742 25.8496C20.8551 25.8782 20.9198 26.0669 20.8646 26.3394L20.5901 26.1888Z" fill="#242425"/>
    <path d="M31.6971 16.271C31.0611 15.9212 31.0611 15.3233 31.0886 14.7116C31.0939 14.5971 31.2508 14.455 31.0886 14.3734C31.0183 14.3411 30.9402 14.3296 30.8635 14.3403C30.7869 14.351 30.7149 14.3835 30.6561 14.4338C30.5881 14.4799 30.5173 14.5217 30.4441 14.5589C30.2755 14.0935 30.2108 13.6048 29.9257 13.2072C29.6733 12.851 29.685 12.8468 29.4571 13.1956C29.3894 13.3029 29.3101 13.4024 29.2207 13.4924C29.0924 13.6186 28.9344 13.6345 28.821 13.485C28.4701 13.0207 28.0227 12.5818 27.9814 11.9743C27.9645 11.4805 28.0097 10.9864 28.116 10.5039C28.2156 9.96003 28.2835 9.40028 28.5697 8.90625C29.1889 8.94548 29.5546 9.39709 29.8769 9.81903C31.2052 11.5598 31.9728 13.5051 31.8636 15.7367C31.8456 15.9297 31.8275 16.1141 31.6971 16.271Z" fill="#D0B0B0"/>
    <path d="M31.6972 16.2712C31.8276 16.1164 31.8456 15.9299 31.8551 15.7412C31.9611 13.5096 31.1968 11.5642 29.8684 9.82345C29.5504 9.39939 29.1804 8.94989 28.5612 8.91066C28.5931 8.64457 28.7489 8.43572 28.9058 8.24066C29.1846 7.89505 29.5652 7.89081 29.8992 8.22263C30.5564 8.87356 31.0356 9.657 31.4968 10.4489C32.2304 11.7041 32.8856 13.0017 33.352 14.381C33.6287 15.1984 33.862 16.0327 33.8471 16.9105C33.8408 17.3345 33.7019 17.4321 33.2916 17.3006C32.6714 17.0939 32.2018 16.6539 31.6972 16.2712Z" fill="#DCBFBF"/>
    <path d="M17.7542 9.04492C18.0956 9.52835 18.1464 10.1051 18.2705 10.6585C18.3414 11.0189 18.3941 11.3826 18.4284 11.7483C18.5281 12.5593 18.032 13.1106 17.5687 13.6693C17.4499 13.8134 17.3217 13.7138 17.204 13.6226C17.0185 13.4784 16.9517 13.2463 16.7937 13.0554C16.4473 13.421 16.2209 13.8838 16.1449 14.3817C16.1057 14.6721 16.0209 14.669 15.8269 14.5375C15.7819 14.5132 15.7355 14.4916 15.688 14.4728C15.6507 14.4476 15.6073 14.4329 15.5624 14.4301C15.5175 14.4273 15.4726 14.4366 15.4325 14.4569C15.3265 14.529 15.389 14.6361 15.4049 14.7347C15.5014 15.3708 15.4399 15.9549 14.8324 16.3429C14.7858 15.7249 14.7593 15.1057 14.8759 14.4909C15.1318 13.123 15.6348 11.8132 16.3601 10.6256C16.7216 10.0171 17.1043 9.40961 17.7542 9.04492Z" fill="#D0B0B0"/>
    <path d="M17.7542 9.04503C17.1043 9.40972 16.7216 10.0172 16.3505 10.6257C15.6252 11.8133 15.1223 13.1231 14.8663 14.491C14.7497 15.1059 14.7762 15.725 14.8229 16.343C14.4468 16.7405 14.009 17.0745 13.5263 17.3322C13.1415 17.5336 12.9676 17.4233 12.9867 16.9982C13.0143 16.3621 13.1807 15.7409 13.3747 15.1366C14.0175 13.1178 14.8916 11.1801 15.9795 9.36201C16.105 9.15497 16.2438 8.95631 16.3951 8.76727C16.587 8.52662 16.7894 8.28067 17.1563 8.36972C17.5231 8.45877 17.6757 8.71533 17.7542 9.04503Z" fill="#DCBFBF"/>
    <path d="M25.2716 21.3003C25.0458 21.5283 24.9536 21.7382 25.0829 21.9915C25.1224 22.073 25.1869 22.1397 25.2671 22.1819C25.3472 22.224 25.4387 22.2394 25.5282 22.2258C25.7964 22.1898 25.9607 22.0265 25.9522 21.7096C26.2523 21.9979 26.3604 22.3191 26.2342 22.6722C26.1081 23.0252 25.8038 23.1842 25.4444 23.2489C25.1759 23.3057 24.8977 23.2968 24.6334 23.223C24.3691 23.1491 24.1265 23.0126 23.9263 22.8248C23.6729 22.5937 23.5023 22.3032 23.5881 21.9438C23.6825 21.5548 23.9867 21.3533 24.3451 21.2696C24.6517 21.2025 24.9701 21.2131 25.2716 21.3003Z" fill="#242425"/>
    <path d="M15.8565 21.9216C15.9146 21.9987 15.9803 22.0698 16.0527 22.1337C16.115 22.1793 16.1898 22.2049 16.2671 22.2069C16.3444 22.209 16.4204 22.1875 16.4852 22.1453C16.6219 22.0616 16.7311 21.8962 16.6495 21.7573C16.3813 21.2962 16.7417 21.4054 16.958 21.4022C17.4573 21.3958 17.8273 21.6343 17.9047 21.998C17.9895 22.3976 17.768 22.7984 17.3206 23.0019C17.0274 23.1568 16.6864 23.1947 16.3665 23.1079C15.7505 22.9235 15.5554 22.4909 15.8565 21.9216Z" fill="#242425"/>
    <path d="M13.7532 34.214L13.696 34.1324L13.7256 34.1133C13.7352 34.1461 13.7447 34.179 13.7553 34.2119L13.7532 34.214Z" fill="#DCD9D8"/>
    <path d="M32.6205 32.2188L32.6492 32.1191L32.6789 32.1382L32.6216 32.2199L32.6205 32.2188Z" fill="#DCD9D8"/>
    <path d="M32.1615 33.3702L32.0788 33.4274L32.0597 33.3978L32.1604 33.3691L32.1615 33.3702Z" fill="#EEEEED"/>
    <path d="M34.5765 20.0078C34.568 19.9983 34.5532 19.9888 34.5532 19.9792C34.5532 19.9697 34.5691 19.9612 34.5775 19.9517C34.586 19.9612 34.6009 19.9707 34.5998 19.9803C34.5987 19.9898 34.585 19.9983 34.5765 20.0078Z" fill="#242425"/>
    <path d="M19.7006 34.5741C19.7398 33.9211 19.6857 33.2627 19.8066 32.6108C19.9279 31.9593 20.1587 31.333 20.4893 30.7587C20.6049 30.5541 20.7014 30.4905 20.9293 30.6325C21.4014 30.9354 21.911 31.1753 22.4453 31.346C22.6107 31.398 22.6732 31.4658 22.6361 31.6397C22.4085 32.7012 22.3801 33.7959 22.5524 34.8678C22.634 35.3767 22.3499 35.7414 21.9163 35.9884C20.272 36.9171 18.0817 35.7392 17.9863 33.8596C17.9248 32.6298 18.3627 31.5358 19.0369 30.5382C19.1917 30.3092 19.479 30.1555 19.7313 30.0081C19.92 29.9021 20.0568 30.1078 20.1925 30.2021C20.3452 30.3081 20.167 30.3982 20.1236 30.4788C19.3984 31.7892 19.3211 33.1589 19.7006 34.5741Z" fill="#EB878E"/>
    <path d="M20.5901 26.1856L20.8646 26.3457C20.9198 26.0732 20.8551 25.8845 20.5741 25.8559C20.2773 25.8273 20.2063 26.0499 20.201 26.28C20.1922 26.505 20.2384 26.7288 20.3356 26.932C20.4328 27.1352 20.5779 27.3117 20.7586 27.4461C20.9706 27.6115 20.9028 27.6762 20.7204 27.7833C19.972 28.2211 19.2458 28.1151 18.6129 27.4896C18.4793 27.3571 18.5238 27.2776 18.6129 27.1716C18.7648 26.9648 18.8552 26.7193 18.8737 26.4634C18.8949 26.2291 18.861 25.9206 18.5684 25.8877C18.3161 25.8591 18.2503 26.1093 18.2196 26.3277C18.3744 26.4136 18.3691 26.1888 18.4931 26.2323C18.5376 26.4157 18.4507 26.5726 18.3659 26.7263C18.3288 26.791 18.2599 26.862 18.1782 26.826C18.0372 26.7613 17.9991 26.6139 17.9789 26.4782C17.9185 26.0383 18.1772 25.5464 18.6065 25.4085C19.4811 25.1276 20.3642 25.1361 21.2102 25.5198C21.8007 25.7891 21.9173 26.2969 21.6343 26.8896C21.4837 27.2076 21.1784 27.2574 20.9251 27.0094C20.712 26.7931 20.5487 26.5535 20.5901 26.1856Z" fill="#3A3A3A"/>
    <defs>
        <linearGradient id="paint0_linear_892_3011" x1="23.9995" y1="0" x2="23.9995" y2="48" gradientUnits="userSpaceOnUse">
            <stop stop-color="#0EF1A9"/>
            <stop offset="1" stop-color="#AE4EED"/>
        </linearGradient>
    </defs>
</svg>
