<svg width="48" height="48" viewBox="0 0 48 48" fill="none" xmlns="http://www.w3.org/2000/svg">
    <path d="M24 48C37.2548 48 48 37.2548 48 24C48 10.7452 37.2548 0 24 0C10.7452 0 0 10.7452 0 24C0 37.2548 10.7452 48 24 48Z" fill="black"/>
    <path d="M36.5392 11.794L34.0717 14.2615C36.5917 16.799 38.1667 20.299 38.1667 24.1665C38.1667 27.8795 36.6917 31.4405 34.0662 34.066C31.4407 36.6915 27.8797 38.1665 24.1667 38.1665C20.4536 38.1665 16.8927 36.6915 14.2672 34.066C11.6417 31.4405 10.1667 27.8795 10.1667 24.1665C10.1667 17.0265 15.5042 11.1465 22.4167 10.289V13.824C17.4467 14.664 13.6667 18.969 13.6667 24.1665C13.6667 26.9513 14.7729 29.622 16.7421 31.5911C18.7112 33.5603 21.3819 34.6665 24.1667 34.6665C26.9514 34.6665 29.6221 33.5603 31.5913 31.5911C33.5604 29.622 34.6667 26.9513 34.6667 24.1665C34.6667 21.2615 33.4942 18.6365 31.5867 16.7465L29.1192 19.214C30.3792 20.4915 31.1667 22.2415 31.1667 24.1665C31.1667 26.023 30.4292 27.8035 29.1164 29.1163C27.8037 30.429 26.0232 31.1665 24.1667 31.1665C22.3101 31.1665 20.5297 30.429 19.2169 29.1163C17.9042 27.8035 17.1667 26.023 17.1667 24.1665C17.1667 20.9115 19.4067 18.199 22.4167 17.4115V21.1565C21.3667 21.769 20.6667 22.8715 20.6667 24.1665C20.6667 25.0948 21.0354 25.985 21.6918 26.6414C22.3482 27.2977 23.2384 27.6665 24.1667 27.6665C25.0949 27.6665 25.9851 27.2977 26.6415 26.6414C27.2979 25.985 27.6667 25.0948 27.6667 24.1665C27.6667 22.8715 26.9667 21.7515 25.9167 21.1565V6.6665H24.1667C21.8685 6.6665 19.5929 7.11916 17.4697 7.9986C15.3465 8.87807 13.4173 10.1671 11.7923 11.7921C8.51039 15.074 6.66666 19.5252 6.66666 24.1665C6.66666 28.8078 8.51039 33.259 11.7923 36.5408C13.4173 38.1658 15.3465 39.4548 17.4697 40.3345C19.5929 41.2138 21.8685 41.6665 24.1667 41.6665C28.808 41.6665 33.2591 39.8228 36.5409 36.5408C39.823 33.259 41.6667 28.8078 41.6667 24.1665C41.6667 19.3365 39.7067 14.9615 36.5392 11.794Z" fill="url(#paint0_linear_737_304)"/>
    <defs>
        <linearGradient id="paint0_linear_737_304" x1="35.794" y1="6.70333" x2="4.7011" y2="38.0248" gradientUnits="userSpaceOnUse">
            <stop offset="0.0416667" stop-color="#00F299"/>
            <stop offset="0.947917" stop-color="#D119FF"/>
        </linearGradient>
    </defs>
</svg>
