<svg width="48" height="48" viewBox="0 0 48 48" fill="none" xmlns="http://www.w3.org/2000/svg">
    <mask id="mask0_819_197" style="mask-type:alpha" maskUnits="userSpaceOnUse" x="0" y="0" width="48" height="48">
        <path d="M24 48C37.2548 48 48 37.2548 48 24C48 10.7452 37.2548 0 24 0C10.7452 0 0 10.7452 0 24C0 37.2548 10.7452 48 24 48Z" fill="#000403"/>
    </mask>
    <g mask="url(#mask0_819_197)">
    </g>
    <path d="M48 24C48 10.7452 37.2548 0 24 0C10.7452 0 0 10.7452 0 24C0 37.2548 10.7452 48 24 48C37.2548 48 48 37.2548 48 24Z" fill="url(#paint0_linear_819_197)"/>
    <path d="M24 32.7838C28.8513 32.7838 32.784 28.8511 32.784 23.9998C32.784 19.1486 28.8513 15.2158 24 15.2158C19.1487 15.2158 15.216 19.1486 15.216 23.9998C15.216 28.8511 19.1487 32.7838 24 32.7838Z" fill="#0A2374"/>
    <path d="M29.7456 23.0809L27.396 25.5145C27.355 25.5566 27.324 25.6073 27.3053 25.663C27.2866 25.7187 27.2807 25.7778 27.288 25.8361L27.7272 29.1961C27.7369 29.2663 27.7272 29.3377 27.6993 29.4028C27.6713 29.4678 27.6261 29.524 27.5686 29.5652C27.511 29.6065 27.4433 29.6312 27.3727 29.6368C27.3021 29.6424 27.2313 29.6286 27.168 29.5969L24.1224 28.1041C24.0692 28.0786 24.011 28.0653 23.952 28.0653C23.893 28.0653 23.8348 28.0786 23.7816 28.1041L20.7192 29.5609C20.6554 29.591 20.5847 29.6033 20.5144 29.5965C20.4442 29.5897 20.3772 29.564 20.3204 29.5222C20.2635 29.4804 20.2191 29.424 20.1917 29.359C20.1643 29.294 20.155 29.2228 20.1648 29.1529L20.6448 25.7929C20.6529 25.735 20.6478 25.676 20.63 25.6203C20.6121 25.5646 20.5819 25.5137 20.5416 25.4713L18.2088 23.0065C18.1606 22.955 18.1272 22.8914 18.1121 22.8225C18.0971 22.7536 18.101 22.6819 18.1234 22.615C18.1457 22.5481 18.1858 22.4885 18.2393 22.4425C18.2928 22.3965 18.3577 22.3658 18.4272 22.3537L21.768 21.7705C21.8258 21.7605 21.8807 21.7376 21.9284 21.7035C21.9762 21.6695 22.0157 21.6251 22.044 21.5737L23.6664 18.5953C23.6999 18.5331 23.7496 18.4812 23.8102 18.445C23.8709 18.4088 23.9402 18.3896 24.0108 18.3896C24.0814 18.3896 24.1507 18.4088 24.2114 18.445C24.272 18.4812 24.3217 18.5331 24.3552 18.5953L25.9416 21.5953C25.9688 21.6475 26.0076 21.6929 26.0551 21.7278C26.1025 21.7627 26.1573 21.7864 26.2152 21.7969L29.5488 22.4185C29.6184 22.4326 29.6829 22.4653 29.7353 22.5132C29.7877 22.5612 29.8261 22.6225 29.8463 22.6905C29.8666 22.7586 29.8679 22.8309 29.8501 22.8997C29.8324 22.9685 29.7962 23.0311 29.7456 23.0809Z" fill="#FFA916"/>
    <path d="M28.6128 23.2634L26.7144 25.2218C26.6813 25.2556 26.6563 25.2965 26.6413 25.3414C26.6263 25.3864 26.6218 25.4341 26.628 25.481L26.9808 28.1834C26.9877 28.2395 26.9794 28.2964 26.9567 28.3481C26.934 28.3999 26.8978 28.4446 26.8519 28.4775C26.806 28.5104 26.752 28.5303 26.6957 28.5352C26.6394 28.54 26.5829 28.5296 26.532 28.505L24.084 27.305C24.0412 27.2849 23.9945 27.2744 23.9472 27.2744C23.8999 27.2744 23.8532 27.2849 23.8104 27.305L21.348 28.469C21.2966 28.4935 21.2396 28.5036 21.1829 28.4981C21.1263 28.4927 21.0721 28.4721 21.0263 28.4383C20.9805 28.4046 20.9447 28.359 20.9227 28.3065C20.9008 28.254 20.8935 28.1965 20.9016 28.1402L21.288 25.4426C21.295 25.396 21.2913 25.3485 21.2772 25.3036C21.263 25.2587 21.2388 25.2176 21.2064 25.1834L19.332 23.2034C19.293 23.1622 19.2659 23.1113 19.2535 23.0559C19.2411 23.0006 19.2439 22.9429 19.2617 22.8891C19.2794 22.8352 19.3113 22.7871 19.3541 22.7499C19.3969 22.7127 19.449 22.6878 19.5048 22.6778L22.1904 22.2098C22.2372 22.2021 22.2816 22.1838 22.3203 22.1564C22.359 22.1289 22.3909 22.093 22.4136 22.0514L23.7168 19.6514C23.7437 19.6012 23.7836 19.5593 23.8324 19.53C23.8813 19.5008 23.9371 19.4854 23.994 19.4854C24.0509 19.4854 24.1067 19.5008 24.1556 19.53C24.2044 19.5593 24.2443 19.6012 24.2712 19.6514L25.5456 22.0514C25.5673 22.0931 25.5982 22.1293 25.6361 22.1572C25.674 22.1851 25.7177 22.2039 25.764 22.2122L28.4448 22.7114C28.5052 22.7193 28.5619 22.7445 28.6084 22.7838C28.6548 22.8231 28.689 22.875 28.7067 22.9333C28.7244 22.9915 28.725 23.0536 28.7083 23.1121C28.6917 23.1707 28.6585 23.2232 28.6128 23.2634Z" fill="#735092"/>
    <path d="M27.0648 23.5152L25.8 24.8184C25.7785 24.8418 25.7622 24.8696 25.7523 24.8998C25.7423 24.93 25.739 24.962 25.7424 24.9936L25.9824 26.7936C25.9877 26.8313 25.9826 26.8697 25.9677 26.9047C25.9528 26.9398 25.9285 26.97 25.8977 26.9922C25.8668 27.0145 25.8304 27.0279 25.7925 27.0309C25.7545 27.034 25.7165 27.0266 25.6824 27.0096L24.0504 26.2104C24.0223 26.1968 23.9916 26.1898 23.9604 26.1898C23.9292 26.1898 23.8985 26.1968 23.8704 26.2104L22.2288 26.9904C22.1946 27.007 22.1566 27.0139 22.1188 27.0104C22.081 27.007 22.0448 26.9933 22.0142 26.9708C21.9836 26.9484 21.9597 26.918 21.9451 26.883C21.9305 26.8479 21.9257 26.8096 21.9312 26.772L22.188 24.972C22.1924 24.9409 22.1897 24.9092 22.1801 24.8793C22.1706 24.8494 22.1544 24.822 22.1328 24.7992L20.8824 23.4792C20.8569 23.4514 20.8394 23.4173 20.8315 23.3804C20.8237 23.3434 20.8259 23.3051 20.8379 23.2694C20.8499 23.2336 20.8713 23.2017 20.8998 23.177C20.9283 23.1522 20.9629 23.1356 21 23.1288L22.7904 22.8168C22.8215 22.8122 22.851 22.8002 22.8764 22.7818C22.9019 22.7634 22.9226 22.7392 22.9368 22.7112L23.808 21.1152C23.8259 21.0821 23.8524 21.0545 23.8848 21.0353C23.9171 21.016 23.954 21.0059 23.9916 21.0059C24.0292 21.0059 24.0661 21.016 24.0985 21.0353C24.1308 21.0545 24.1573 21.0821 24.1752 21.1152L25.0248 22.7232C25.0401 22.7511 25.0614 22.7752 25.0871 22.7938C25.1129 22.8125 25.1424 22.8253 25.1736 22.8312L26.9592 23.1624C26.9963 23.1699 27.0306 23.1874 27.0585 23.2129C27.0864 23.2384 27.1069 23.271 27.1177 23.3072C27.1286 23.3434 27.1294 23.3819 27.12 23.4185C27.1107 23.4552 27.0916 23.4886 27.0648 23.5152Z" fill="#6ADAEC"/>
    <path d="M25.5192 23.7671L24.888 24.4175C24.8766 24.4285 24.868 24.4421 24.863 24.4572C24.858 24.4722 24.8567 24.4883 24.8592 24.5039L24.9768 25.4063C24.9792 25.4252 24.9764 25.4444 24.9688 25.4618C24.9611 25.4793 24.9489 25.4943 24.9334 25.5054C24.9179 25.5165 24.8997 25.5231 24.8807 25.5247C24.8618 25.5263 24.8427 25.5227 24.8256 25.5143L24.0096 25.1135C23.9955 25.1064 23.9799 25.1026 23.964 25.1026C23.9482 25.1026 23.9325 25.1064 23.9184 25.1135L23.0976 25.5023C23.0806 25.5101 23.0618 25.5132 23.0432 25.5114C23.0246 25.5095 23.0068 25.5027 22.9917 25.4917C22.9766 25.4808 22.9646 25.4659 22.9571 25.4488C22.9496 25.4317 22.9467 25.4129 22.9488 25.3943L23.0784 24.4943C23.0811 24.4787 23.0799 24.4626 23.0749 24.4475C23.0699 24.4324 23.0612 24.4188 23.0496 24.4079L22.4256 23.7479C22.4129 23.7341 22.4041 23.7171 22.4001 23.6987C22.3961 23.6804 22.3971 23.6613 22.403 23.6434C22.4088 23.6256 22.4194 23.6096 22.4335 23.5972C22.4476 23.5847 22.4648 23.5763 22.4832 23.5727L23.3784 23.4167C23.394 23.414 23.4087 23.4079 23.4216 23.3988C23.4345 23.3896 23.4451 23.3777 23.4528 23.3639L23.8872 22.5647C23.8963 22.5482 23.9097 22.5345 23.926 22.5249C23.9422 22.5153 23.9607 22.5103 23.9796 22.5103C23.9985 22.5103 24.017 22.5153 24.0332 22.5249C24.0495 22.5345 24.0629 22.5482 24.072 22.5647L24.4968 23.3663C24.5045 23.3804 24.5151 23.3926 24.5279 23.4021C24.5408 23.4116 24.5555 23.4183 24.5712 23.4215L25.464 23.5871C25.4832 23.5905 25.5011 23.5991 25.5157 23.612C25.5304 23.6249 25.5411 23.6416 25.5468 23.6602C25.5525 23.6788 25.553 23.6987 25.5481 23.7176C25.5432 23.7364 25.5332 23.7536 25.5192 23.7671Z" fill="#654086"/>
    <path d="M23.9736 31.4686C23.8781 31.4686 23.7866 31.4307 23.719 31.3632C23.6515 31.2957 23.6136 31.2041 23.6136 31.1086V29.6422C23.6136 29.5467 23.6515 29.4552 23.719 29.3877C23.7866 29.3202 23.8781 29.2822 23.9736 29.2822C24.0691 29.2822 24.1607 29.3202 24.2282 29.3877C24.2957 29.4552 24.3336 29.5467 24.3336 29.6422V31.1086C24.3336 31.2041 24.2957 31.2957 24.2282 31.3632C24.1607 31.4307 24.0691 31.4686 23.9736 31.4686Z" fill="#FFA916"/>
    <path d="M30.756 26.549C30.7186 26.5493 30.6813 26.5436 30.6456 26.5322L29.2512 26.0786C29.2037 26.0663 29.1592 26.0444 29.1205 26.0143C29.0818 25.9842 29.0496 25.9465 29.026 25.9035C29.0024 25.8605 28.9878 25.8131 28.9831 25.7643C28.9784 25.7155 28.9838 25.6662 28.9989 25.6195C29.0139 25.5728 29.0384 25.5297 29.0707 25.4928C29.1031 25.4559 29.1426 25.426 29.1869 25.405C29.2312 25.3839 29.2794 25.3721 29.3284 25.3704C29.3774 25.3686 29.4263 25.3768 29.472 25.3946L30.8664 25.8458C30.9485 25.8718 31.0185 25.9264 31.0638 25.9996C31.1092 26.0728 31.1267 26.1598 31.1134 26.2449C31.1 26.3299 31.0566 26.4074 30.9911 26.4632C30.9255 26.519 30.8421 26.5494 30.756 26.549Z" fill="#FFA916"/>
    <path d="M27.2976 19.7782C27.222 19.7781 27.1482 19.7546 27.0864 19.711C27.048 19.6832 27.0155 19.6481 26.9908 19.6076C26.966 19.5672 26.9495 19.5223 26.9421 19.4755C26.9347 19.4286 26.9367 19.3808 26.9479 19.3347C26.959 19.2887 26.9792 19.2453 27.0072 19.207L27.8688 18.0214C27.8965 17.9831 27.9315 17.9507 27.9718 17.9259C28.0121 17.9011 28.0569 17.8845 28.1035 17.8771C28.1502 17.8696 28.1979 17.8714 28.2439 17.8824C28.2899 17.8934 28.3333 17.9133 28.3716 17.941C28.4099 17.9687 28.4423 18.0038 28.4671 18.044C28.4919 18.0843 28.5085 18.1291 28.5159 18.1758C28.5234 18.2224 28.5216 18.2702 28.5106 18.3161C28.4997 18.3621 28.4797 18.4055 28.452 18.4438L27.5904 19.6294C27.5568 19.6755 27.5127 19.713 27.4618 19.7389C27.4109 19.7648 27.3547 19.7782 27.2976 19.7782Z" fill="#FFA916"/>
    <path d="M20.6544 19.7782C20.5974 19.7778 20.5413 19.7642 20.4904 19.7383C20.4396 19.7125 20.3955 19.6752 20.3616 19.6294L19.5 18.4414C19.4723 18.4031 19.4523 18.3597 19.4414 18.3137C19.4304 18.2677 19.4286 18.22 19.4361 18.1733C19.4435 18.1266 19.4601 18.0819 19.4849 18.0416C19.5097 18.0013 19.5421 17.9663 19.5804 17.9386C19.6187 17.9108 19.6621 17.8909 19.7081 17.8799C19.7541 17.869 19.8018 17.8672 19.8485 17.8746C19.8951 17.8821 19.9399 17.8987 19.9802 17.9235C20.0205 17.9482 20.0555 17.9807 20.0832 18.019L20.9448 19.2046C20.9728 19.2428 20.993 19.2862 21.0041 19.3323C21.0153 19.3784 21.0173 19.4262 21.0099 19.473C21.0025 19.5199 20.986 19.5648 20.9612 19.6052C20.9365 19.6456 20.904 19.6807 20.8656 19.7086C20.804 19.7529 20.7303 19.7772 20.6544 19.7782Z" fill="#FFA916"/>
    <path d="M17.2032 26.549C17.1171 26.5494 17.0337 26.519 16.9681 26.4631C16.9026 26.4073 16.8592 26.3299 16.8458 26.2448C16.8325 26.1598 16.8501 26.0728 16.8954 25.9996C16.9407 25.9263 17.0107 25.8718 17.0928 25.8458L18.4872 25.3922C18.5782 25.3626 18.6773 25.3704 18.7626 25.4138C18.8479 25.4572 18.9124 25.5328 18.942 25.6238C18.9716 25.7148 18.9638 25.8139 18.9204 25.8992C18.877 25.9845 18.8014 26.049 18.7104 26.0786L17.316 26.5322C17.2795 26.5436 17.2415 26.5493 17.2032 26.549Z" fill="#FFA916"/>
    <path d="M42.6072 28.2672C42.5143 28.2529 42.4192 28.2633 42.3315 28.2974C42.2439 28.3316 42.1668 28.3882 42.108 28.4616L41.8512 28.5384C41.8221 28.5257 41.7907 28.519 41.759 28.5186C41.7272 28.5181 41.6957 28.524 41.6662 28.5358C41.6368 28.5477 41.61 28.5652 41.5873 28.5875C41.5647 28.6098 41.5467 28.6363 41.5344 28.6656C41.415 28.6527 41.2946 28.6788 41.1912 28.74C41.0733 28.7345 40.9556 28.7529 40.845 28.7942C40.7345 28.8354 40.6334 28.8986 40.548 28.98C40.5081 28.971 40.4664 28.9735 40.4278 28.9871C40.3892 29.0007 40.3552 29.0248 40.3296 29.0568C40.2858 29.0469 40.24 29.0495 40.1976 29.0644C40.1551 29.0793 40.1177 29.1057 40.0896 29.1408L39.792 29.2056C39.6116 29.2088 39.4389 29.2796 39.3083 29.4041C39.1776 29.5285 39.0984 29.6975 39.0864 29.8776C39.0624 29.9136 39.036 29.9472 39.0096 29.9808C38.7336 30.1296 38.6952 30.4344 38.5584 30.672C38.4528 30.8592 38.616 30.9264 38.7696 30.9336C39.0816 30.948 39.3984 30.9456 39.7128 30.9528C40.9192 30.9816 42.128 31.012 43.3392 31.044C43.8792 31.0584 43.9152 31.1328 43.6368 31.6152C42.8064 33.0552 41.9568 34.4952 41.148 35.9352C40.8888 36.3984 40.632 36.8616 40.3416 37.3056C40.1016 37.692 40.008 37.7016 39.7776 37.3056C39.2472 36.396 38.7312 35.4768 38.208 34.5648C37.968 34.1424 37.728 33.7248 37.488 33.3024C37.3488 33.0624 37.2264 33.024 37.0488 33.2784C36.5544 33.9984 36.192 34.68 36.4776 35.6256C36.7412 36.6125 36.9408 37.6154 37.0752 38.628C37.344 40.2408 36.2448 41.496 34.6128 41.4288C34.4409 41.3974 34.2634 41.4285 34.1124 41.5165C33.9614 41.6045 33.8469 41.7437 33.7896 41.9088C33.0504 43.3848 31.2984 43.6608 30.0048 42.5304C29.1288 41.7672 28.2648 40.9896 27.3936 40.2192C27.3151 40.1427 27.2272 40.0766 27.132 40.0224C27.0072 39.96 26.856 39.8976 26.736 40.0224C26.616 40.1472 26.736 40.2624 26.7672 40.3704C26.9518 40.8218 27.051 41.3036 27.06 41.7912C27.0518 42.4092 26.8554 43.0099 26.4969 43.5134C26.1384 44.0168 25.6349 44.3989 25.0536 44.6088C24.4941 44.8072 23.8895 44.841 23.3114 44.7062C22.7332 44.5713 22.2059 44.2735 21.792 43.848C20.9136 42.852 20.7576 41.688 21.228 40.4592C21.2832 40.3128 21.4944 40.1424 21.2904 40.0032C21.0864 39.864 20.8992 40.0032 20.7408 40.1472C19.9584 40.8288 19.1856 41.52 18.4008 42.1968C17.952 42.5856 17.5392 43.02 16.9152 43.1568C15.7536 43.3968 14.7168 42.948 14.2104 41.8824C14.1624 41.7271 14.0578 41.5955 13.9173 41.5137C13.7768 41.4319 13.6108 41.4058 13.452 41.4408C13.0783 41.4731 12.7022 41.4158 12.355 41.2737C12.0079 41.1316 11.6996 40.9087 11.4558 40.6236C11.212 40.3385 11.0397 39.9994 10.9532 39.6344C10.8667 39.2694 10.8685 38.889 10.9584 38.5248C11.2104 37.3104 11.4672 36.096 11.664 34.8696C11.7672 34.2312 11.268 33.78 10.944 33.3024C10.824 33.12 10.7232 33.3696 10.6896 33.4872C10.512 34.0896 10.3512 34.6872 10.1808 35.3016C9.852 36.4728 9.852 36.468 8.6784 36.1488C7.5888 35.8512 6.4944 35.5656 5.4 35.2704C4.8816 35.1336 4.8168 35.016 4.9584 34.4976C5.3016 33.2376 5.6784 31.9848 5.9712 30.7176C6.084 30.2376 6.2712 30.0336 6.7512 30.1176C6.78932 30.1569 6.83716 30.1853 6.88986 30.2001C6.94256 30.2148 6.99823 30.2153 7.0512 30.2016C7.39856 30.383 7.77896 30.4924 8.1696 30.5232L8.3664 30.5664L8.8296 30.684L8.928 30.6984C9.0744 30.8256 9.264 30.9384 9.408 30.7968C9.552 30.6552 9.3792 30.48 9.3024 30.3456C9.2253 30.1443 9.09202 29.9694 8.9184 29.8416C8.92601 29.7994 8.9177 29.756 8.89508 29.7196C8.87247 29.6833 8.83716 29.6566 8.796 29.6448C8.8224 29.5296 8.7744 29.4672 8.6592 29.4504L8.6424 29.4336C8.63159 29.3946 8.61319 29.3582 8.58827 29.3263C8.56334 29.2945 8.53238 29.2679 8.49715 29.2481C8.46192 29.2282 8.42312 29.2155 8.38297 29.2107C8.34282 29.2059 8.30212 29.209 8.2632 29.22C8.11637 29.1375 7.95157 29.0922 7.7832 29.088C7.50998 28.8921 7.18743 28.7766 6.852 28.7544C6.75051 28.6862 6.62768 28.6572 6.5064 28.6728C6.20114 28.4323 5.82682 28.296 5.4384 28.284C5.28384 28.2065 5.12333 28.1415 4.9584 28.0896C3.9648 27.8496 3.5184 27.1296 3.2208 26.2344C3.25683 25.9547 3.2471 25.671 3.192 25.3944C3.30792 24.9698 3.50428 24.5714 3.7704 24.2208C3.948 24.0216 3.8328 23.88 3.7272 23.7216C2.6688 22.1544 3.216 20.508 5.0088 19.8984C6.1104 19.524 7.2144 19.164 8.3184 18.7992C8.6664 18.684 9.492 17.5992 9.468 17.268C9.4488 17.028 9.24 17.0928 9.1032 17.088C7.9096 17.0544 6.71599 17.0248 5.52239 16.9992C5.20799 16.9992 4.8936 16.98 4.5792 16.9872C4.1904 16.9872 4.14479 16.836 4.32239 16.5264C4.74719 15.792 5.1648 15.0528 5.5896 14.3184C6.2632 13.1472 6.9416 11.9784 7.6248 10.812C7.9344 10.284 7.9848 10.2912 8.2992 10.8384C9.0312 12.1176 9.7728 13.392 10.4952 14.6784C10.704 15.048 10.8408 14.9928 11.0208 14.6784C11.2008 14.364 11.3856 14.016 11.5992 13.7184C11.8128 13.4208 11.6736 13.0704 11.616 12.7584C11.424 11.7072 11.22 10.656 10.9776 9.6168C10.5192 7.644 12.1248 6.34321 13.6176 6.61921C13.8984 6.67201 14.0304 6.5664 14.148 6.3024C14.8344 4.7496 16.548 4.32001 17.8512 5.39041C18.7872 6.15601 19.68 6.9744 20.592 7.7688C20.6718 7.84425 20.7568 7.91402 20.8464 7.9776C20.9928 8.076 21.168 8.17921 21.3264 8.04481C21.4848 7.91041 21.3264 7.7568 21.2688 7.62C20.568 5.9808 21.1728 4.26 22.7088 3.54C23.2792 3.25796 23.9247 3.16476 24.5516 3.27393C25.1785 3.38309 25.7545 3.68894 26.196 4.14719C27.0216 4.95839 27.2664 6.4056 26.7672 7.5264C26.7288 7.6128 26.6784 7.692 26.6448 7.7808C26.6112 7.8696 26.5296 7.9656 26.6448 8.0208C26.7265 8.06433 26.8213 8.07629 26.9112 8.0544C27.1238 7.99232 27.316 7.87469 27.468 7.7136L30.0168 5.472C31.3608 4.2888 33.1368 4.6536 33.8568 6.2784C33.8877 6.392 33.9624 6.4887 34.0646 6.54721C34.1668 6.60572 34.288 6.62126 34.4016 6.59041C34.7876 6.52975 35.1827 6.56621 35.5511 6.69652C35.9195 6.82683 36.2496 7.04687 36.5116 7.33676C36.7736 7.62665 36.9593 7.97726 37.0518 8.35691C37.1444 8.73655 37.1408 9.13326 37.0416 9.5112C36.78 10.5792 36.6288 11.6712 36.3768 12.744C36.3135 12.9693 36.304 13.2064 36.349 13.4361C36.394 13.6657 36.4923 13.8816 36.636 14.0664C36.8208 14.3064 36.9 14.6352 37.2216 14.9016C37.3896 14.3136 37.5456 13.7784 37.7016 13.2432C37.8264 12.804 37.9416 12.3648 38.0592 11.9232C38.1192 11.6832 38.2344 11.5824 38.4984 11.652C39.9384 12.0384 41.3784 12.4128 42.8184 12.792C43.1064 12.8664 43.1808 13.032 43.0992 13.32C42.9504 13.8504 42.8304 14.3856 42.7008 14.9184C42.6905 14.9253 42.6833 14.9358 42.6806 14.9479C42.6779 14.96 42.68 14.9726 42.6864 14.9832C42.6864 15.0384 42.6696 15.0936 42.6624 15.1464C42.6111 15.1785 42.5724 15.2272 42.5527 15.2845C42.533 15.3417 42.5336 15.4039 42.5544 15.4608C42.54 15.528 42.5232 15.5976 42.5064 15.6648C42.3427 16.012 42.2435 16.3861 42.2136 16.7688C42.1819 16.7991 42.1591 16.8375 42.1477 16.8798C42.1363 16.9221 42.1367 16.9667 42.1488 17.0088C42.0121 17.2237 41.9419 17.4742 41.9472 17.7288C41.9255 17.7872 41.8871 17.838 41.8367 17.8747C41.7864 17.9114 41.7263 17.9325 41.664 17.9352C41.4755 17.8011 41.2424 17.7452 41.0136 17.7792L40.8024 17.7384C40.5231 17.5712 40.2039 17.4825 39.8784 17.4816C39.6352 17.366 39.3737 17.2937 39.1056 17.268C38.9376 17.136 38.7024 17.0472 38.5632 17.1816C38.424 17.316 38.652 17.5032 38.7048 17.6616C38.7169 17.707 38.7405 17.7485 38.7733 17.7821C38.8061 17.8157 38.847 17.8404 38.892 17.8536C38.9248 18.0261 39.0083 18.1849 39.132 18.3096C39.1584 18.5136 39.252 18.6576 39.4776 18.6696L39.6384 18.7152C39.6667 18.7691 39.7144 18.8103 39.7719 18.8303C39.8294 18.8504 39.8923 18.8478 39.948 18.8232C40.0624 18.9177 40.2078 18.9664 40.356 18.96C40.5901 19.1499 40.8825 19.2533 41.184 19.2528L41.3304 19.2768L41.46 19.3512C41.4861 19.3817 41.52 19.4045 41.558 19.4172C41.5961 19.4299 41.6369 19.4319 41.676 19.4232C41.9848 19.6117 42.3315 19.7297 42.6912 19.7688L43.0344 19.8504C43.2209 20.037 43.4657 20.1538 43.728 20.1816C43.7361 20.1934 43.7474 20.2026 43.7606 20.2082C43.7738 20.2137 43.7883 20.2153 43.8024 20.2128L43.908 20.2992C43.9343 20.3871 43.9824 20.4668 44.0479 20.5311C44.1134 20.5953 44.194 20.6418 44.2824 20.6664L44.6424 21.2256C44.5968 21.3336 44.6544 21.396 44.7384 21.4488L44.76 21.6C44.76 22.0344 44.76 22.4688 44.7432 22.9056L44.6496 23.16C44.6045 23.1739 44.5662 23.2045 44.5426 23.2454C44.5191 23.2864 44.5118 23.3347 44.5224 23.3808C44.3995 23.4701 44.3139 23.6018 44.2824 23.7504C44.0424 23.8824 44.028 24.0216 44.2824 24.1656C44.2944 24.2399 44.322 24.3108 44.3633 24.3737C44.4047 24.4366 44.4589 24.49 44.5224 24.5304C44.5171 24.5782 44.5282 24.6263 44.554 24.6669C44.5797 24.7075 44.6185 24.7381 44.664 24.7536C44.6582 24.7649 44.6568 24.778 44.6598 24.7903C44.6629 24.8027 44.6704 24.8135 44.6808 24.8208C44.7288 25.0296 44.7744 25.236 44.8224 25.4448C44.8224 25.5168 44.8224 25.5888 44.8224 25.6608L44.7744 26.4L44.7384 26.5776C44.7096 26.5949 44.6874 26.6212 44.6752 26.6525C44.663 26.6838 44.6616 26.7182 44.6712 26.7504C44.4894 26.9005 44.3558 27.1008 44.2872 27.3264C44.2091 27.3442 44.137 27.3818 44.0777 27.4356C44.0184 27.4894 43.974 27.5576 43.9488 27.6336L43.8384 27.7392C43.7527 27.7362 43.6678 27.757 43.5932 27.7994C43.5186 27.8418 43.4573 27.904 43.416 27.9792C43.1314 28.0262 42.8575 28.1237 42.6072 28.2672ZM19.9872 14.9976H20.028V14.9568C20.2176 14.28 20.1936 13.6728 19.5792 13.1856C19.0608 12.7776 18.5808 12.324 18.0888 11.8872C17.5272 11.3856 16.9704 10.8792 16.4088 10.38C16.2864 10.272 16.1688 10.0464 15.9936 10.14C15.8184 10.2336 15.9648 10.4616 15.9936 10.62C16.0582 11.0548 16.1496 11.4852 16.2672 11.9088C16.3992 12.36 16.3416 12.6696 15.8304 12.7752C15.1752 12.7944 15.18 12.792 15.0504 12.1368C14.8296 11.0448 14.6112 9.95039 14.376 8.85839C14.2032 8.06159 13.656 7.6728 12.9696 7.8144C12.324 7.9464 12.0096 8.5344 12.156 9.3264C12.4128 10.6056 12.6576 11.8872 12.9312 13.1664C12.9682 13.317 12.9744 13.4736 12.9492 13.6266C12.9241 13.7796 12.8681 13.926 12.7848 14.0568C11.772 15.7944 10.7664 17.536 9.768 19.2816C9.69609 19.4187 9.59714 19.5398 9.47709 19.6376C9.35705 19.7353 9.21843 19.8077 9.0696 19.8504C7.8288 20.2536 6.5952 20.676 5.3616 21.0984C4.608 21.3576 4.26 21.9312 4.4664 22.5624C4.6848 23.232 5.3088 23.4984 6.0744 23.244C8.372 22.4824 10.668 21.7208 12.9624 20.9592C13.0559 20.9207 13.1574 20.9053 13.2581 20.9145C13.3588 20.9237 13.4558 20.9572 13.5408 21.012C13.8192 21.1824 14.1528 21.492 14.3952 21.4416C14.7216 21.3696 14.664 20.868 14.796 20.5632C15.276 19.4688 15.072 19.4832 16.1592 20.112C16.178 20.2695 16.1424 20.4287 16.0584 20.5632C15.6283 21.5264 15.384 22.5621 15.3384 23.616C15.2736 26.352 16.2264 28.7136 18.2808 30.5112C19.1746 31.3204 20.2343 31.9248 21.3859 32.2821C22.5374 32.6394 23.7531 32.7411 24.948 32.58C26.0725 32.4631 27.1619 32.1211 28.1515 31.5743C29.1411 31.0276 30.0105 30.2873 30.708 29.3976C30.8446 29.2043 31.0268 29.0477 31.2384 28.9416C32.1984 29.448 32.1984 29.4624 31.5264 30.2832C31.4115 30.4324 31.2847 30.5721 31.1472 30.7008C30.8808 30.9264 30.8712 31.1112 31.2192 31.2264C32.016 31.4904 32.2392 32.1144 32.2776 32.8608C32.278 32.9414 32.2861 33.0217 32.3016 33.1008C32.4816 33.852 32.4816 33.852 31.8912 34.1928C31.4856 34.224 31.2312 34.0728 31.1712 33.6408C31.1472 33.4392 31.0944 33.24 31.0584 33.0384C30.9713 32.7854 30.8277 32.5556 30.6384 32.3663C30.4492 32.1771 30.2194 32.0335 29.9664 31.9464C29.8412 31.9319 29.7154 31.9673 29.616 32.0448C29.136 32.3328 28.6416 32.616 28.152 32.8968C28.044 32.9616 27.9312 33.0072 27.876 33.1368C27.8019 33.4127 27.7993 33.703 27.8686 33.9801C27.9379 34.2573 28.0768 34.5122 28.272 34.7208C28.7712 35.1528 29.256 35.5992 29.7528 36.0336C30.3928 36.592 31.0328 37.1472 31.6728 37.6992C31.7472 37.764 31.8456 37.8864 31.9512 37.7856C31.9992 37.7376 31.992 37.6056 31.9752 37.5192C31.8864 37.0392 31.7976 36.5592 31.6872 36.0792C31.5936 35.6688 31.6224 35.3376 32.0976 35.2008C32.796 35.2776 32.7936 35.28 32.9496 36.0528C33.1584 37.0848 33.3672 38.1168 33.588 39.1464C33.7536 39.9192 34.308 40.332 34.9464 40.2048C35.5848 40.0776 35.9544 39.5112 35.8056 38.724C35.5544 37.3944 35.2912 36.068 35.016 34.7448C34.9859 34.6329 34.9789 34.516 34.9954 34.4013C35.0119 34.2866 35.0516 34.1765 35.112 34.0776C36.1664 32.2712 37.2104 30.4592 38.244 28.6416C38.3 28.5393 38.3757 28.4491 38.4667 28.3761C38.5577 28.3032 38.6623 28.2491 38.7744 28.2168C40.0544 27.7896 41.3344 27.3552 42.6144 26.9136C43.3656 26.6544 43.6944 26.0832 43.4808 25.4352C43.2672 24.7872 42.6624 24.5136 41.9112 24.7608C39.7512 25.4808 37.5912 26.1552 35.4672 26.9064C34.884 27.1128 34.4208 27.1056 33.9456 26.724C33.6456 26.484 33.4008 26.4336 33.3288 26.9328C33.2923 27.1186 33.231 27.2986 33.1464 27.468C32.688 28.4952 32.9688 28.536 31.8144 27.9096C31.8151 27.7364 31.8553 27.5657 31.932 27.4104C32.6279 25.7319 32.788 23.8794 32.3904 22.1064C31.8384 19.5576 30.3576 17.676 28.0896 16.404C26.2104 15.3504 24.1824 15.168 22.116 15.5496C20.148 15.912 18.5808 17.0016 17.2944 18.5184C17.1264 18.7176 17.0112 18.9792 16.7472 19.0872C16.5624 18.972 16.3824 18.8472 16.188 18.7416C15.9024 18.588 15.8448 18.4176 16.0752 18.1608C16.3056 17.904 16.5552 17.5488 16.8384 17.2656C17.0352 17.0592 17.04 16.8984 16.7736 16.812C15.9696 16.5456 15.6984 15.9384 15.6432 15.1632C15.6303 14.9585 15.5891 14.7566 15.5208 14.5632C15.3744 14.1744 15.5208 13.9824 15.9 13.9176C16.5984 13.8744 16.6368 13.8672 16.752 14.6016C16.7751 14.9024 16.8822 15.1906 17.0613 15.4334C17.2404 15.6761 17.4842 15.8636 17.7648 15.9744C17.8547 16.03 17.9588 16.0583 18.0645 16.0557C18.1702 16.0531 18.2729 16.0199 18.36 15.96C18.9144 15.6216 19.4544 15.3168 19.9872 14.9976ZM29.6376 11.3976C29.616 11.3256 29.6136 11.2224 29.5632 11.1816C29.2152 10.8936 29.3472 10.7016 29.6424 10.4616C30.5496 9.69119 31.428 8.8848 32.3136 8.088C32.8896 7.5696 32.9688 6.888 32.5248 6.384C32.0808 5.88 31.3944 5.8872 30.8064 6.3984C29.8096 7.264 28.8184 8.136 27.8328 9.0144C27.7424 9.11075 27.6336 9.18801 27.5128 9.2416C27.392 9.29519 27.2617 9.32401 27.1296 9.3264C25.0704 9.3136 23.0104 9.3136 20.9496 9.3264C20.8105 9.32911 20.6723 9.30421 20.543 9.25313C20.4136 9.20204 20.2957 9.12579 20.196 9.0288C19.26 8.1912 18.3096 7.3656 17.364 6.5376C16.644 5.8944 15.924 5.8344 15.4704 6.3744C15.0168 6.9144 15.1176 7.57441 15.8688 8.23921C17.4144 9.6216 18.9384 11.0328 20.52 12.3744C21.1176 12.8784 21.528 13.3704 21.3744 14.1888C21.3168 14.4936 21.4824 14.5176 21.7416 14.4528C23.2129 14.088 24.7511 14.088 26.2224 14.4528C26.532 14.5248 26.7024 14.496 26.6328 14.1504C26.4744 13.3608 26.8392 12.8352 27.4584 12.4248C27.5583 12.3506 27.6537 12.2705 27.744 12.1848C28.296 11.6928 28.296 11.6904 28.836 12.0984C29.1552 12.6096 29.1816 12.6456 28.596 13.0584C28.3299 13.2216 28.1189 13.4611 27.9905 13.7457C27.8621 14.0302 27.8222 14.3469 27.876 14.6544C27.878 14.762 27.9104 14.8669 27.9694 14.9569C28.0284 15.0469 28.1117 15.1184 28.2096 15.1632C28.6128 15.3696 29.0112 15.588 29.3976 15.8256C29.976 16.1808 30.9168 15.8256 31.0608 15.1632C31.4016 13.6008 31.7136 12.0312 32.0352 10.464C32.0544 10.368 32.124 10.224 31.9872 10.176C31.8504 10.128 31.7808 10.2312 31.6992 10.3032C31.3464 10.6152 30.9792 10.9128 30.6528 11.2488C30.3264 11.5848 30.036 11.772 29.6376 11.3976ZM37.8432 22.5072C37.9344 22.0008 38.1912 21.9792 38.64 22.1448C39.7152 22.5408 40.8144 22.8648 41.9064 23.232C42.6816 23.4864 43.3008 23.232 43.5216 22.5672C43.7424 21.9024 43.3824 21.3504 42.6432 21.0984C41.3784 20.664 40.116 20.2296 38.8488 19.8096C38.7223 19.7734 38.6042 19.7123 38.5016 19.6299C38.399 19.5474 38.3139 19.4453 38.2512 19.3296C37.2272 17.528 36.1872 15.7304 35.1312 13.9368C35.0706 13.838 35.0305 13.728 35.0132 13.6134C34.9959 13.4988 35.0017 13.3819 35.0304 13.2696C35.3136 11.916 35.5872 10.56 35.8368 9.1896C35.9904 8.364 35.4696 7.7496 34.6896 7.7832C34.1352 7.8048 33.7536 8.172 33.612 8.844C33.1632 10.9824 32.6856 13.1184 32.292 15.2664C32.1576 15.9864 31.9176 16.5312 31.1952 16.7904C30.9216 16.8888 30.8736 17.0304 31.104 17.2704C32.1758 18.3688 32.9626 19.7126 33.396 21.1848C33.4824 21.4728 33.6072 21.5736 33.8352 21.3672C34.4496 20.8056 35.1 20.8872 35.7816 21.2112C35.9084 21.2737 36.0433 21.3181 36.1824 21.3432C36.7008 21.4224 36.9648 21.6528 36.7464 22.2048C36.5064 22.6536 36.1776 22.6536 35.772 22.4712C35.5685 22.3858 35.3571 22.3207 35.1408 22.2768C34.9762 22.2449 34.8067 22.2494 34.6441 22.29C34.4814 22.3305 34.3296 22.4062 34.1993 22.5116C34.0689 22.617 33.9632 22.7496 33.8896 22.9002C33.8159 23.0507 33.776 23.2156 33.7728 23.3832C33.7728 23.8632 33.7728 24.3576 33.7728 24.8448C33.7728 24.9888 33.7536 25.14 33.8832 25.236C34.3248 25.56 34.7352 25.9104 35.3712 25.6776C36.4896 25.2696 37.632 24.9216 38.76 24.5352C39.2064 24.384 39.6864 24.3096 40.1064 23.9952C40.0483 23.945 39.9847 23.9016 39.9168 23.8656C39.4152 23.6856 38.9184 23.4768 38.4048 23.3424C37.9344 23.22 37.716 22.9896 37.8432 22.5072ZM11.2344 25.7808C11.388 25.3008 11.6976 25.2672 12.1128 25.4472C12.3449 25.5491 12.5859 25.6294 12.8328 25.6872C13.0016 25.7225 13.1763 25.7184 13.3433 25.6754C13.5103 25.6323 13.6651 25.5513 13.7957 25.4388C13.9264 25.3262 14.0294 25.1851 14.0967 25.0263C14.164 24.8675 14.1939 24.6954 14.184 24.5232C14.158 24.1009 14.1644 23.6773 14.2032 23.256C14.2032 23.0856 14.2416 22.896 14.0712 22.776C13.5912 22.4568 13.1616 22.152 12.5184 22.4016C11.5848 22.764 10.6128 23.028 9.6672 23.3616C9.08651 23.5196 8.52356 23.7367 7.9872 24.0096C8.52935 24.297 9.10602 24.514 9.7032 24.6552C10.1472 24.7752 10.3968 24.9624 10.2408 25.4544C10.1904 25.488 10.0968 25.5168 10.0944 25.5528C10.0656 26.064 9.7896 26.0448 9.4296 25.8792C9.32772 25.8387 9.22353 25.8043 9.1176 25.776C8.0424 25.4208 6.9576 25.056 5.892 24.7176C5.6849 24.6531 5.46362 24.6498 5.25466 24.7079C5.04569 24.766 4.85791 24.8831 4.7138 25.0452C4.56969 25.2073 4.47537 25.4075 4.44213 25.6218C4.40889 25.8361 4.43815 26.0555 4.5264 26.2536C4.60524 26.4173 4.71926 26.5615 4.86032 26.676C5.00138 26.7906 5.16599 26.8725 5.34239 26.916C6.60719 27.3432 7.872 27.78 9.1392 28.1976C9.26683 28.2334 9.38604 28.2943 9.48988 28.3768C9.59372 28.4592 9.68011 28.5614 9.744 28.6776C10.776 30.4792 11.816 32.2776 12.864 34.0728C12.9252 34.1723 12.966 34.2829 12.9841 34.3982C13.0022 34.5136 12.9973 34.6314 12.9696 34.7448C12.708 36.024 12.4608 37.3056 12.2016 38.5848C12.0216 39.4704 12.3168 40.0632 13.0248 40.2144C13.7328 40.3656 14.2248 39.9192 14.412 39.0768C14.424 39.0144 14.436 38.952 14.4504 38.8896C14.8752 36.8424 15.3264 34.8096 15.708 32.7432C15.84 32.0232 16.0656 31.4736 16.8 31.224C17.1264 31.1136 17.0856 30.948 16.8696 30.7224C15.8184 29.6288 15.0469 28.2974 14.6208 26.8416C14.5128 26.4768 14.3616 26.5008 14.1408 26.6808C13.9031 26.8998 13.5999 27.0345 13.278 27.064C12.9562 27.0935 12.6335 27.0162 12.36 26.844C12.2311 26.7863 12.0968 26.7413 11.9592 26.7096C11.2056 26.4576 11.2056 26.4576 11.2344 25.7808ZM18.3528 36.6408C18.3696 36.6984 18.3672 36.7824 18.408 36.8136C18.7992 37.1208 18.612 37.3272 18.3216 37.5768C17.4648 38.316 16.6248 39.0768 15.7776 39.828C15.096 40.4352 14.988 41.0616 15.4704 41.6232C15.9528 42.1848 16.5936 42.1272 17.2896 41.5176C18.2616 40.6704 19.2336 39.8232 20.1936 38.9616C20.2891 38.8701 20.4021 38.7989 20.5259 38.7523C20.6496 38.7057 20.7815 38.6846 20.9136 38.6904C22.9584 38.7 25.004 38.7 27.0504 38.6904C27.1895 38.6845 27.3284 38.7063 27.459 38.7545C27.5896 38.8027 27.7093 38.8763 27.8112 38.9712C28.8264 39.888 29.8584 40.788 30.8952 41.6808C31.0046 41.7892 31.1352 41.8739 31.2789 41.9295C31.4225 41.9851 31.5761 42.0104 31.73 42.0039C31.8839 41.9974 32.0348 41.9591 32.1732 41.8915C32.3116 41.824 32.4346 41.7285 32.5344 41.6112C32.9592 41.1168 32.9016 40.4544 32.3712 39.9792C31.9848 39.6336 31.5672 39.3192 31.2 38.964C29.988 37.7976 28.7208 36.696 27.4464 35.604C26.8848 35.124 26.4744 34.644 26.6256 33.8664C26.6928 33.5112 26.5008 33.4944 26.208 33.564C24.7482 33.914 23.2259 33.9099 21.768 33.552C21.444 33.4728 21.3024 33.552 21.3672 33.8736C21.5208 34.6464 21.1632 35.1624 20.5632 35.5728C20.4382 35.6681 20.3195 35.7715 20.208 35.8824C19.6992 36.3408 19.6992 36.3408 19.164 35.9496C18.8952 35.5584 19.0152 35.2584 19.3656 34.9896C19.5665 34.8445 19.7559 34.684 19.932 34.5096C20.3568 34.0584 20.184 33.0696 19.6464 32.784C19.2888 32.592 18.9264 32.3952 18.5856 32.1768C18.4331 32.093 18.2635 32.0453 18.0897 32.0374C17.9159 32.0294 17.7425 32.0615 17.5831 32.131C17.4236 32.2006 17.2822 32.3057 17.1697 32.4385C17.0573 32.5713 16.9768 32.7281 16.9344 32.8968C16.6392 34.2744 16.3416 35.6544 16.0512 37.0344C15.9936 37.3128 15.972 37.5984 15.9216 37.9728C16.446 37.6422 16.9293 37.2507 17.3616 36.8064C17.6616 36.48 17.9592 36.3264 18.3528 36.6408ZM23.976 39.924C23.7362 39.9256 23.499 39.9744 23.278 40.0676C23.057 40.1608 22.8565 40.2967 22.688 40.4674C22.5196 40.6381 22.3864 40.8403 22.296 41.0625C22.2057 41.2847 22.16 41.5225 22.1616 41.7624C22.1552 42.0082 22.1985 42.2527 22.2887 42.4815C22.3789 42.7102 22.5142 42.9184 22.6866 43.0937C22.859 43.269 23.0649 43.4078 23.2921 43.5018C23.5193 43.5958 23.7631 43.6431 24.009 43.6408C24.2549 43.6386 24.4978 43.5868 24.7232 43.4887C24.9486 43.3905 25.152 43.248 25.3211 43.0695C25.4903 42.8911 25.6218 42.6804 25.7078 42.4501C25.7938 42.2197 25.8325 41.9744 25.8216 41.7288C25.821 41.4885 25.7726 41.2507 25.6791 41.0294C25.5856 40.808 25.449 40.6074 25.2772 40.4394C25.1054 40.2714 24.9019 40.1393 24.6785 40.0508C24.455 39.9623 24.2162 39.9192 23.976 39.924ZM25.8192 6.29279C25.8282 5.80851 25.6453 5.34032 25.3103 4.99048C24.9753 4.64063 24.5154 4.43756 24.0312 4.4256C23.5469 4.42094 23.08 4.60585 22.7302 4.94085C22.3804 5.27584 22.1755 5.73434 22.1592 6.2184C22.1548 6.45853 22.1978 6.69719 22.2858 6.92066C22.3738 7.14412 22.5051 7.34801 22.6721 7.52061C22.8392 7.69321 23.0386 7.83111 23.2591 7.92642C23.4795 8.02173 23.7166 8.07257 23.9568 8.07601C24.197 8.08435 24.4364 8.0445 24.6609 7.95883C24.8854 7.87317 25.0905 7.74343 25.2641 7.57723C25.4377 7.41103 25.5762 7.21175 25.6716 6.99116C25.7669 6.77056 25.8171 6.5331 25.8192 6.29279ZM41.6592 13.9728C41.6643 13.9451 41.6636 13.9166 41.6572 13.8892C41.6508 13.8617 41.6387 13.8359 41.6218 13.8134C41.6049 13.7908 41.5835 13.772 41.5589 13.7581C41.5344 13.7443 41.5072 13.7356 41.4792 13.7328L39.2544 13.1088C39.0528 13.0536 38.9784 13.1496 38.9304 13.332C38.748 14.052 38.5536 14.7576 38.3592 15.4656C38.3064 15.6528 38.34 15.7632 38.5416 15.816C39.2616 16.0056 39.9816 16.2072 40.7208 16.3968C40.8336 16.4256 40.9752 16.4784 41.0256 16.2912C41.2368 15.5088 41.4504 14.7288 41.6592 13.9656V13.9728ZM8.7264 34.8864C9.0192 34.9368 9.024 34.7688 9.06 34.6464C9.2496 33.9528 9.4272 33.2544 9.6312 32.5632C9.696 32.3424 9.6312 32.244 9.4296 32.1888C8.7096 31.9992 7.9752 31.8072 7.2504 31.6032C7.0728 31.5528 6.984 31.6032 6.9408 31.7688L6.3504 33.9888C6.3144 34.1256 6.336 34.2288 6.4944 34.284L8.7264 34.8864ZM9.6864 15.768L7.944 12.7296C7.3776 13.7088 6.8592 14.6064 6.336 15.4992C6.1968 15.7392 6.3216 15.768 6.5184 15.768H9.6864ZM40.068 35.2824C40.6392 34.2888 41.1432 33.408 41.6568 32.5272C41.7672 32.34 41.7552 32.2416 41.5104 32.2368L38.5968 32.1768C38.4 32.1768 38.3232 32.2248 38.436 32.4168L40.068 35.2824Z" fill="#0D0808"/>
    <path d="M31.26 28.9486C31.284 28.8574 31.0632 28.8214 31.2168 28.687C31.4568 28.4662 31.44 28.0174 31.8456 27.919C33 28.5454 32.7192 28.5046 33.1776 27.4774C33.2622 27.308 33.3235 27.128 33.36 26.9422C33.432 26.443 33.6768 26.491 33.9768 26.7334C34.4568 27.115 34.9152 27.1222 35.4984 26.9158C37.6344 26.1646 39.792 25.4758 41.9424 24.7702C42.6936 24.5302 43.2912 24.7822 43.512 25.4446C43.7328 26.107 43.3968 26.6638 42.6456 26.923C41.3656 27.363 40.0856 27.7974 38.8056 28.2262C38.6935 28.2584 38.5889 28.3126 38.4979 28.3855C38.4069 28.4584 38.3312 28.5487 38.2752 28.651C37.24 30.467 36.196 32.279 35.1432 34.087C35.0828 34.1859 35.0431 34.296 35.0266 34.4107C35.0101 34.5254 35.0171 34.6423 35.0472 34.7542C35.3208 36.0758 35.584 37.4022 35.8368 38.7334C35.9856 39.5206 35.6472 40.0822 34.9776 40.2142C34.308 40.3462 33.7776 39.9286 33.6192 39.1558C33.3984 38.1262 33.1896 37.0942 32.9808 36.0622C32.8248 35.2894 32.8272 35.287 32.1288 35.2102C32.1319 34.8603 32.0591 34.5139 31.9152 34.195C32.5056 33.8542 32.5056 33.8542 32.3256 33.103C32.3101 33.0239 32.302 32.9435 32.3016 32.863C32.2632 32.1166 32.04 31.4926 31.2432 31.2286C30.8952 31.1134 30.9048 30.9286 31.1712 30.703C31.3087 30.5743 31.4355 30.4346 31.5504 30.2854C32.22 29.4574 32.2152 29.443 31.26 28.9486Z" fill="#F6DFBF"/>
    <path d="M16.7784 19.085C16.7567 19.291 16.6897 19.4897 16.5822 19.6669C16.4748 19.8441 16.3295 19.9953 16.1568 20.1098C15.0696 19.4786 15.2688 19.4642 14.7936 20.5586C14.6616 20.8634 14.7192 21.365 14.3928 21.437C14.1528 21.4898 13.8168 21.1778 13.5384 21.0074C13.4534 20.9525 13.3564 20.9191 13.2557 20.9099C13.155 20.9007 13.0535 20.916 12.96 20.9546C10.6656 21.7194 8.3696 22.481 6.072 23.2394C5.3064 23.4938 4.6824 23.2274 4.464 22.5578C4.2576 21.9266 4.6056 21.3578 5.3592 21.0938C6.5928 20.6714 7.8264 20.249 9.0672 19.8458C9.21602 19.8031 9.35465 19.7307 9.47469 19.6329C9.59473 19.5352 9.6937 19.4141 9.7656 19.277C10.7608 17.5298 11.7664 15.7882 12.7824 14.0522C12.8657 13.9214 12.9217 13.775 12.9468 13.622C12.972 13.4689 12.9658 13.3124 12.9288 13.1618C12.6552 11.8874 12.4104 10.6058 12.1536 9.32176C11.9976 8.54176 12.3216 7.94176 12.9672 7.80976C13.6584 7.66816 14.2008 8.04977 14.3736 8.85377C14.6136 9.94577 14.8272 11.0402 15.048 12.1322C15.1776 12.7874 15.1728 12.7898 15.828 12.7706C15.7824 13.1594 16.1112 13.5098 15.9312 13.9106C15.552 13.9754 15.4056 14.1674 15.552 14.5562C15.6203 14.7496 15.6615 14.9515 15.6744 15.1562C15.7296 15.9314 16.0008 16.5386 16.8048 16.805C17.0712 16.8914 17.0664 17.045 16.8696 17.2586C16.5984 17.5418 16.368 17.861 16.1064 18.1538C15.8448 18.4466 15.9336 18.581 16.2192 18.7346C16.4136 18.8402 16.596 18.9698 16.7784 19.085Z" fill="#F6DFBF"/>
    <path d="M19.1616 35.9474C19.6968 36.3386 19.6968 36.3386 20.2056 35.8802C20.3171 35.7694 20.4358 35.6659 20.5608 35.5706C21.1608 35.1602 21.5208 34.6442 21.3648 33.8714C21.3 33.5474 21.4416 33.4706 21.7656 33.5498C23.2235 33.9077 24.7458 33.9118 26.2056 33.5618C26.4984 33.4922 26.6856 33.509 26.6232 33.8642C26.472 34.6514 26.8824 35.1194 27.444 35.6018C28.7184 36.6962 29.9856 37.7978 31.1976 38.9618C31.5648 39.317 31.9824 39.6314 32.3688 39.977C32.8992 40.457 32.9568 41.1146 32.532 41.609C32.4322 41.7263 32.3092 41.8218 32.1708 41.8893C32.0324 41.9569 31.8815 41.9952 31.7276 42.0017C31.5737 42.0082 31.4201 41.9829 31.2764 41.9273C31.1328 41.8717 31.0022 41.787 30.8928 41.6786C29.856 40.7858 28.824 39.8858 27.8088 38.969C27.7069 38.8742 27.5872 38.8005 27.4566 38.7523C27.326 38.7041 27.1871 38.6823 27.048 38.6882C25.0032 38.6978 22.9576 38.6978 20.9112 38.6882C20.7791 38.6825 20.6472 38.7035 20.5234 38.7501C20.3997 38.7967 20.2867 38.8679 20.1912 38.9594C19.2312 39.821 18.2712 40.6682 17.2872 41.5154C16.5912 42.125 15.9288 42.1586 15.468 41.621C15.0072 41.0834 15.0936 40.433 15.7752 39.8258C16.6224 39.0746 17.4552 38.3138 18.3192 37.5746C18.6096 37.3346 18.7992 37.1186 18.4056 36.8114C18.3648 36.7802 18.3672 36.6962 18.3504 36.6386C18.6644 36.465 18.9403 36.2299 19.1616 35.9474Z" fill="#F6DFBF"/>
    <path d="M11.2344 25.7809C11.2056 26.4577 11.2056 26.4577 11.9328 26.6977C12.0704 26.7295 12.2047 26.7745 12.3336 26.8321C12.6071 27.0043 12.9298 27.0816 13.2516 27.0522C13.5735 27.0227 13.8767 26.888 14.1144 26.6689C14.34 26.4889 14.4912 26.4649 14.5944 26.8297C15.0205 28.2856 15.792 29.6169 16.8432 30.7105C17.0592 30.9361 17.1 31.1017 16.7736 31.2121C16.0392 31.4521 15.8136 32.0137 15.6816 32.7313C15.3 34.7881 14.8488 36.8305 14.424 38.8777C14.4096 38.9401 14.3976 39.0025 14.3856 39.0649C14.2032 39.9073 13.6656 40.3441 12.9984 40.2025C12.3312 40.0609 11.9952 39.4585 12.1752 38.5729C12.4344 37.2937 12.6816 36.0121 12.9432 34.7329C12.9709 34.6195 12.9758 34.5017 12.9577 34.3864C12.9396 34.271 12.8988 34.1604 12.8376 34.0609C11.796 32.2689 10.756 30.4705 9.7176 28.6657C9.65371 28.5496 9.56732 28.4473 9.46348 28.3649C9.35964 28.2825 9.24043 28.2216 9.1128 28.1857C7.8456 27.7681 6.5808 27.3313 5.316 26.9041C5.1396 26.8606 4.97499 26.7787 4.83393 26.6642C4.69287 26.5497 4.57884 26.4054 4.5 26.2417C4.41176 26.0436 4.3825 25.8242 4.41574 25.6099C4.44898 25.3956 4.5433 25.1954 4.68741 25.0333C4.83152 24.8712 5.0193 24.7541 5.22826 24.696C5.43723 24.6379 5.65851 24.6413 5.8656 24.7057C6.9432 25.0513 8.0256 25.4089 9.0912 25.7641C9.19714 25.7924 9.30132 25.8268 9.4032 25.8673C9.7632 26.0329 10.0392 26.0521 10.068 25.5409C10.068 25.5049 10.164 25.4761 10.2144 25.4449C10.5243 25.6332 10.8732 25.7482 11.2344 25.7809Z" fill="#F6DFBF"/>
    <path d="M36.7416 22.2046C36.96 21.6526 36.696 21.4222 36.1776 21.343C36.0385 21.318 35.9036 21.2735 35.7768 21.211C35.0952 20.887 34.4448 20.8054 33.8304 21.367C33.6024 21.5734 33.4776 21.4726 33.3912 21.1846C32.963 19.7132 32.182 18.3687 31.116 17.2678C30.876 17.0278 30.9336 16.8958 31.2072 16.7878C31.9272 16.5286 32.1672 15.9934 32.304 15.2638C32.6976 13.1158 33.1752 10.9798 33.624 8.84141C33.7656 8.16941 34.1472 7.80221 34.7016 7.78061C35.4816 7.74701 36.0024 8.36141 35.8488 9.18701C35.6088 10.5478 35.3256 11.9038 35.0424 13.267C35.0137 13.3793 35.0079 13.4962 35.0252 13.6108C35.0425 13.7254 35.0826 13.8354 35.1432 13.9342C36.188 15.7262 37.228 17.5238 38.2632 19.327C38.3259 19.4428 38.411 19.5449 38.5136 19.6273C38.6162 19.7097 38.7343 19.7708 38.8608 19.807C40.128 20.227 41.3904 20.6614 42.6552 21.0958C43.3944 21.3478 43.7424 21.9334 43.5336 22.5646C43.3248 23.1958 42.6936 23.4838 41.9184 23.2294C40.8264 22.8718 39.7272 22.5382 38.652 22.1422C38.2032 21.9766 37.9464 21.9982 37.8552 22.5046L36.7416 22.2046Z" fill="#F6DFBF"/>
    <path d="M28.836 12.0865C28.296 11.6785 28.296 11.6809 27.744 12.1729C27.6537 12.2586 27.5583 12.3387 27.4584 12.4129C26.8392 12.8233 26.4744 13.3489 26.6328 14.1385C26.7024 14.4841 26.532 14.5129 26.2224 14.4409C24.7511 14.0761 23.2129 14.0761 21.7416 14.4409C21.4824 14.5057 21.3168 14.4818 21.3744 14.177C21.528 13.3586 21.1176 12.8666 20.52 12.3626C18.9384 11.021 17.4144 9.60974 15.8688 8.22734C15.1168 7.55534 14.984 6.93375 15.4704 6.36255C15.9288 5.82255 16.632 5.88255 17.364 6.52575C18.3096 7.35375 19.26 8.17935 20.196 9.01695C20.2978 9.11296 20.4177 9.18766 20.5488 9.23671C20.6798 9.28575 20.8194 9.30814 20.9592 9.30255C23.0184 9.29295 25.0784 9.29295 27.1392 9.30255C27.2713 9.30017 27.4016 9.27132 27.5224 9.21774C27.6432 9.16415 27.752 9.08691 27.8424 8.99055C28.8312 8.11375 29.8224 7.24175 30.816 6.37455C31.404 5.86335 32.0976 5.86575 32.5344 6.36015C32.9712 6.85455 32.8992 7.54574 32.3232 8.06414C31.4376 8.86094 30.5592 9.66735 29.652 10.4377C29.3568 10.6777 29.2248 10.8745 29.5728 11.1577C29.6232 11.1985 29.6256 11.3018 29.6472 11.3738C29.2632 11.5034 29.0544 11.8057 28.836 12.0865Z" fill="#F6DFBF"/>
    <path d="M23.976 39.9242C24.2163 39.9194 24.455 39.9625 24.6785 40.051C24.9019 40.1395 25.1054 40.2716 25.2772 40.4396C25.449 40.6076 25.5856 40.8082 25.6791 41.0296C25.7726 41.2509 25.821 41.4887 25.8216 41.729C25.8268 42.0916 25.7242 42.4477 25.5269 42.7519C25.3295 43.0562 25.0462 43.295 24.7129 43.4381C24.3797 43.5811 24.0114 43.622 23.6549 43.5555C23.2983 43.489 22.9696 43.3181 22.7103 43.0646C22.451 42.811 22.2728 42.4861 22.1984 42.1312C22.1239 41.7762 22.1566 41.4072 22.2921 41.0708C22.4277 40.7344 22.6601 40.4459 22.9599 40.2417C23.2597 40.0376 23.6133 39.9271 23.976 39.9242Z" fill="#F6DFBF"/>
    <path d="M25.8192 6.29257C25.8171 6.53288 25.7669 6.77034 25.6716 6.99094C25.5762 7.21153 25.4377 7.41081 25.2641 7.57701C25.0905 7.7432 24.8854 7.87295 24.6609 7.95861C24.4364 8.04428 24.197 8.08413 23.9568 8.07579C23.7166 8.07235 23.4795 8.02151 23.2591 7.9262C23.0386 7.83089 22.8392 7.69299 22.6721 7.52039C22.5051 7.34779 22.3738 7.1439 22.2858 6.92043C22.1978 6.69697 22.1548 6.45831 22.1592 6.21817C22.1755 5.73412 22.3804 5.27562 22.7302 4.94062C23.08 4.60563 23.5469 4.42072 24.0312 4.42538C24.5154 4.43734 24.9753 4.64041 25.3103 4.99025C25.6453 5.3401 25.8282 5.80828 25.8192 6.29257Z" fill="#F6DFBF"/>
    <path d="M8.7264 34.8864L6.4944 34.2792C6.336 34.236 6.3144 34.1208 6.3504 33.984L6.9408 31.7592C6.984 31.5888 7.0728 31.5432 7.2504 31.5936C7.9704 31.7976 8.7024 31.9896 9.4296 32.1792C9.6408 32.2344 9.696 32.3328 9.6312 32.5536C9.4272 33.2448 9.2496 33.9432 9.06 34.6368C9.024 34.7688 9.0192 34.9488 8.7264 34.8864Z" fill="#B9E0F7"/>
    <path d="M9.6744 15.7679H6.516C6.3192 15.7679 6.1944 15.7367 6.3336 15.4991C6.8568 14.6063 7.3752 13.7087 7.9416 12.7295L9.6744 15.7679Z" fill="#ED9C87"/>
    <defs>
        <linearGradient id="paint0_linear_819_197" x1="24" y1="48" x2="24" y2="0" gradientUnits="userSpaceOnUse">
            <stop stop-color="#C7090F"/>
            <stop offset="1" stop-color="#F44721"/>
        </linearGradient>
    </defs>
</svg>
