<svg width="48" height="48" viewBox="0 0 48 48" fill="none" xmlns="http://www.w3.org/2000/svg">
    <path d="M24 48C37.2548 48 48 37.2548 48 24C48 10.7452 37.2548 0 24 0C10.7452 0 0 10.7452 0 24C0 37.2548 10.7452 48 24 48Z" fill="white"/>
    <g clip-path="url(#clip0_819_134)">
        <path d="M23.5021 18.7492C23.2403 19.3178 23.0011 19.8392 22.7606 20.3597C21.4947 23.0987 20.2285 25.8378 18.962 28.5768C18.2375 30.1447 17.5102 31.7121 16.7931 33.2836C16.6192 33.6652 16.3603 33.8286 15.9329 33.8226C14.5626 33.8027 13.1918 33.8152 11.8211 33.8147C11.6758 33.8205 11.5303 33.8089 11.3878 33.78C11.0359 33.6953 10.9218 33.5184 11.0524 33.172C11.1937 32.7993 11.3657 32.4381 11.5308 32.0751C13.2279 28.3433 14.9262 24.6122 16.6257 20.882C18.0608 17.7311 19.4971 14.5806 20.9344 11.4304C21.1925 10.8645 21.4482 10.2978 21.7104 9.73423C21.7806 9.58904 21.8604 9.44874 21.9491 9.31425C22.01 9.21532 22.0958 9.1343 22.1977 9.07935C22.2996 9.0244 22.4141 8.99745 22.5296 9.00123C23.1805 9.00123 23.8314 8.99846 24.4823 9.00123C24.7689 9.00123 24.9708 9.15172 25.112 9.39528C25.4483 9.97455 25.6916 10.5992 25.969 11.2058C27.3683 14.2637 28.7636 17.3236 30.1549 20.3856C31.4045 23.133 32.6533 25.8804 33.9011 28.6277C34.5592 30.0743 35.2185 31.5205 35.879 32.9664C35.8983 33.0081 35.919 33.0498 35.9351 33.0929C36.0971 33.5221 35.9733 33.7356 35.5211 33.7995C35.4071 33.8126 35.2923 33.8179 35.1775 33.8152C33.8068 33.8152 32.436 33.8027 31.0657 33.8231C30.6209 33.8296 30.3757 33.6379 30.2 33.2517C29.803 32.3719 29.3886 31.4954 28.9833 30.617C28.0894 28.6787 27.1962 26.7401 26.3039 24.8012C25.3765 22.8008 24.451 20.8014 23.5021 18.7492Z" fill="#17181D"/>
        <path d="M23.503 39.0001C22.2656 36.507 21.0536 34.065 19.8314 31.6016H27.1742L23.503 39.0001Z" fill="#65FDFE"/>
    </g>
    <defs>
        <clipPath id="clip0_819_134">
            <rect width="25" height="30" fill="white" transform="translate(11 9)"/>
        </clipPath>
    </defs>
</svg>
