<svg width="48" height="48" viewBox="0 0 48 48" fill="none" xmlns="http://www.w3.org/2000/svg">
    <g clip-path="url(#clip0_819_152)">
        <path d="M14.6691 13.7026L14.6837 13.7071L14.6691 13.7026ZM14.6691 13.7026L14.6837 13.7071L14.6691 13.7026ZM16.8183 19.9337C15.5018 19.3896 14.028 19.2789 12.6277 19.4974C12.5301 19.5108 12.4332 19.5316 12.3363 19.5517L13.8575 20.428C15.147 21.1713 18.3897 23.1039 19.8759 23.9639C19.7433 22.0715 18.5602 20.6391 16.8183 19.9337ZM14.6691 13.7026L14.6837 13.7071L14.6691 13.7026ZM16.8183 19.9337C15.5018 19.3896 14.028 19.2789 12.6277 19.4974C12.5301 19.5108 12.4332 19.5316 12.3363 19.5517L13.8575 20.428C15.147 21.1713 18.3897 23.1039 19.8759 23.9639C19.7433 22.0715 18.5602 20.6391 16.8183 19.9337ZM23.3408 42.3286L23.3568 42.3398V42.3167L23.3408 42.3286ZM16.8183 19.9337C15.5018 19.3896 14.028 19.2789 12.6277 19.4974C12.5301 19.5108 12.4332 19.5316 12.3363 19.5517L13.8575 20.428C15.147 21.1713 18.3897 23.1039 19.8759 23.9639C19.7433 22.0715 18.5602 20.6391 16.8183 19.9337ZM14.6691 13.7026L14.6837 13.7071L14.6691 13.7026ZM16.8183 19.9337C15.5018 19.3896 14.028 19.2789 12.6277 19.4974C12.5301 19.5108 12.4332 19.5316 12.3363 19.5517L13.8575 20.428C15.147 21.1713 18.3897 23.1039 19.8759 23.9639C19.7433 22.0715 18.5602 20.6391 16.8183 19.9337ZM14.6691 13.7026L14.6837 13.7071L14.6691 13.7026ZM16.8183 19.9337C15.5018 19.3896 14.028 19.2789 12.6277 19.4974C12.5301 19.5108 12.4332 19.5316 12.3363 19.5517L13.8575 20.428C15.147 21.1713 18.3897 23.1039 19.8759 23.9639C19.7433 22.0715 18.5602 20.6391 16.8183 19.9337ZM14.6691 13.7026L14.6837 13.7071L14.6691 13.7026Z" fill="#8D33E4"/>
        <path d="M23.3241 41.5431C23.2803 41.5134 19.2654 38.7186 14.962 33.4411C11.0694 28.6639 6.43812 21.028 6.31354 11.6223C7.84346 10.7816 14.6188 7.33789 23.3168 7.33789V18.0964L23.08 18.2317L15.7947 13.8381L15.3255 13.5549C15.1725 13.4657 14.9678 13.3237 14.7995 13.2739C14.5851 13.2084 14.3568 13.2077 14.142 13.2718C13.9273 13.3359 13.7354 13.4621 13.5894 13.6351C13.0622 14.172 12.5946 14.7665 12.195 15.4079C11.7014 16.2066 11.2866 17.0531 10.9565 17.9351L10.8559 18.196C10.7714 18.4107 10.749 18.6456 10.7913 18.8728C10.8337 19.1001 10.939 19.3102 11.0949 19.4782C11.1927 19.5831 11.3066 19.671 11.4322 19.7384H11.438L11.948 20.0439C14.0608 21.329 17.6918 23.5195 19.8825 24.853L19.7965 33.4523L19.7914 34.0097C19.7914 34.1896 19.7739 34.4416 19.8162 34.6148C19.8672 34.8375 19.9805 35.0403 20.1422 35.1986C20.304 35.357 20.5073 35.464 20.7276 35.5068C21.4467 35.7045 22.1851 35.8206 22.9292 35.8531C23.0603 35.8598 23.1915 35.8635 23.3233 35.8658L23.3241 41.5431Z" fill="#8D33E4"/>
        <path d="M23.324 41.5434V43.0003C23.1404 42.8739 18.4006 39.7439 13.9784 34.326C11.3768 31.1387 9.30336 27.7849 7.81424 24.3657C5.9492 20.0687 5.00211 15.6498 5.00211 11.2279V10.8473L5.32193 10.6526C5.40061 10.605 7.28897 9.46331 10.4595 8.31714C13.3788 7.25943 17.9787 5.99805 23.3189 5.99805V7.33599C14.6187 7.33822 7.84338 10.7819 6.31347 11.6211C6.43877 21.0254 11.0693 28.6628 14.9619 33.44C19.2653 38.7211 23.2803 41.5137 23.324 41.5434Z" fill="#521B8B"/>
        <path d="M26.3766 33.6621C26.3154 33.5923 26.2542 33.5224 26.1981 33.4473C25.3122 32.319 24.6682 30.9617 24.473 29.5264C24.202 27.6399 24.8227 25.8843 26.3533 24.8184C26.365 26.5763 26.3453 30.3708 26.3599 31.8723C26.365 32.345 26.3715 33.0668 26.3766 33.6621Z" fill="#6F00DF"/>
        <path d="M31.3146 14.2358C31.2876 14.3191 31.2607 14.4023 31.2279 14.4826C30.7128 15.8295 29.8816 17.0752 28.7618 17.9665C27.3048 19.1416 25.5191 19.4754 23.8595 18.6756C25.337 17.7888 28.5651 15.8927 29.8335 15.1263L31.3146 14.2358Z" fill="#6F00DF"/>
        <path d="M23.3241 42.3169L23.3396 42.3284L23.3241 42.3392V42.3169Z" fill="#6F00DF"/>
        <path d="M40.6857 11.3765C40.5604 20.7807 35.9306 28.4189 32.038 33.1953C27.9313 38.2342 23.7677 41.2289 23.3569 41.5203L23.3241 41.5433V35.863H23.3612C24.1419 35.8637 24.9214 35.8018 25.6925 35.6779L25.9643 35.6363C26.1727 35.6063 26.3695 35.5202 26.5344 35.3868C26.6994 35.2534 26.8265 35.0776 26.9026 34.8774C26.9715 34.6933 26.9964 34.4951 26.9755 34.2991C26.979 34.3162 26.9807 34.3337 26.9806 34.3512C26.9806 34.1921 26.9806 33.9052 26.9871 33.7498C27.0199 31.2434 27.0097 26.9999 27.0454 24.3976L34.456 20.1355L34.9303 19.8627C35.0826 19.7721 35.3062 19.6628 35.4323 19.5387C35.5957 19.3825 35.7113 19.1814 35.7649 18.9596C35.8186 18.7379 35.8081 18.505 35.7346 18.2892C35.5432 17.5549 35.2727 16.8444 34.9281 16.1708C34.4952 15.3358 33.9827 14.5463 33.3982 13.8138L33.2263 13.5945C33.0874 13.4129 32.9005 13.2756 32.6877 13.1987C32.4748 13.1218 32.2449 13.1085 32.0249 13.1604C31.887 13.194 31.7556 13.2508 31.6359 13.3284L31.6301 13.3328C31.4938 13.4072 31.2527 13.5506 31.1201 13.6302C29.0576 14.8076 25.6102 16.7937 23.3678 18.0729L23.3248 18.0974V7.33887H23.3612C28.4814 7.34481 33.2598 8.31185 36.0654 9.32571C38.3938 10.1649 40.0279 11.0137 40.6857 11.3765Z" fill="#6F00DF"/>
        <path d="M23.6905 42.0975L23.3263 41.543L23.6905 42.0975ZM23.3408 42.3286L23.3569 42.3398V42.3167L23.3408 42.3286ZM23.3241 42.3398L23.3401 42.3286L23.3241 42.3167V42.3398Z" fill="#3E017E"/>
        <path d="M41.6802 10.4098C41.6008 10.3622 39.7131 9.22051 36.5418 8.07434C33.6233 7.01588 28.6569 5.99756 23.3168 5.99756V7.3355H23.3612C28.4813 7.34145 33.2598 8.30848 36.0654 9.32234C38.3908 10.1623 40.0249 11.0111 40.6828 11.3753C40.5575 20.7796 35.9277 28.4177 32.0351 33.1942C27.9284 38.233 23.7648 41.2278 23.3539 41.5191L23.3211 41.5422V42.316L23.3372 42.3279L23.3211 42.339V42.9991C23.5047 42.8727 28.5964 39.4996 33.0186 34.0795C35.6195 30.8929 37.6936 27.5384 39.182 24.1192C41.05 19.8244 41.9971 15.4055 41.9971 10.9851V10.6053L41.6802 10.4098ZM23.3568 42.3398L23.3408 42.3286L23.3568 42.3167V42.3398Z" fill="#3E017E"/>
        <path d="M26.3766 33.6621C26.3154 33.5923 26.2542 33.5224 26.1981 33.4473C25.3122 32.319 24.6682 30.9617 24.473 29.5264C24.202 27.6399 24.8227 25.8843 26.3533 24.8184C26.365 26.5763 26.3453 30.3708 26.3599 31.8723C26.365 32.345 26.3715 33.0668 26.3766 33.6621Z" fill="#1FB5AC"/>
        <path d="M31.3146 14.2358C31.2876 14.3191 31.2607 14.4023 31.2279 14.4826C30.7128 15.8295 29.8816 17.0752 28.7618 17.9665C27.3048 19.1416 25.5191 19.4754 23.8595 18.6756C25.337 17.7888 28.5651 15.8927 29.8335 15.1263L31.3146 14.2358Z" fill="#78B6E3"/>
        <path d="M14.6824 13.7103L14.6669 13.7056L14.6824 13.7103Z" fill="#F4A900"/>
        <path d="M19.8759 23.964C18.3897 23.1041 15.147 21.17 13.8575 20.4282L12.3363 19.5526C12.4332 19.5325 12.5301 19.5117 12.6277 19.4983C14.028 19.2798 15.5018 19.3905 16.8183 19.9346C18.5602 20.6393 19.7433 22.0716 19.8759 23.964Z" fill="#F4A900"/>
        <path d="M14.6691 13.7026L14.6846 13.7074L14.6691 13.7026Z" fill="white"/>
        <path d="M35.1809 19.1535C35.1443 19.1998 35.1013 19.2406 35.0534 19.2746C34.9806 19.32 34.2797 19.7444 33.3108 20.3294L33.27 20.3539C30.9263 21.7662 27.0775 24.089 26.7511 24.2852L26.687 24.3239L26.6455 24.3492V24.3529L26.5872 24.3871H26.5821L26.5238 24.4242C24.7199 25.5243 23.9739 27.4718 24.3003 29.553C24.5189 31.021 25.1833 32.3879 26.0991 33.5289C26.1938 33.6434 26.2914 33.7519 26.3766 33.8545C26.3766 34.1139 26.3817 34.3384 26.3839 34.4892C26.3809 34.5506 26.3684 34.6111 26.3468 34.6684C26.3083 34.7712 26.2437 34.8617 26.1595 34.9305C26.0754 34.9994 25.9748 35.0441 25.8681 35.0601C25.0414 35.2223 24.2028 35.3133 23.3612 35.3321H23.3255C23.2002 35.3321 23.0756 35.3321 22.9503 35.3321C22.2421 35.3166 21.5377 35.2211 20.85 35.0475L20.7225 35.0133C20.6167 34.9822 20.52 34.9254 20.4405 34.8477C20.3611 34.77 20.3013 34.6738 20.2664 34.5673C20.2486 34.5162 20.2374 34.463 20.2329 34.409C20.2271 34.2291 20.1936 30.8605 20.1659 28.108C20.1484 26.3144 20.1331 24.7825 20.1309 24.5669V24.4421H20.1265V24.3729H20.1316V24.3038C20.0996 22.1594 18.8203 20.5293 16.8889 19.7697C15.5339 19.2286 14.0404 19.1327 12.6146 19.3713C12.4631 19.3988 12.3188 19.4352 12.1775 19.4575C11.9531 19.3282 11.7593 19.2167 11.6282 19.1423C11.5775 19.1089 11.5325 19.0672 11.4949 19.0189C11.4322 18.9413 11.3894 18.8489 11.3702 18.7502C11.351 18.6515 11.356 18.5495 11.3849 18.4533C11.39 18.4369 11.3929 18.4258 11.4016 18.4013L11.4949 18.1433C11.7932 17.2886 12.1734 16.466 12.6299 15.6875C12.9975 15.0697 13.4307 14.4951 13.9216 13.9742L14.0149 13.8783C14.1001 13.794 14.2054 13.7339 14.3205 13.704C14.4355 13.6742 14.5562 13.6756 14.6706 13.7081L14.6851 13.7125C14.7153 13.7213 14.7448 13.7325 14.7733 13.746C15.0297 13.8865 22.7143 18.3091 23.1784 18.5774L23.2323 18.6086L23.2855 18.6391V18.6354L23.3204 18.6562L23.3437 18.6696V18.6755L23.3634 18.6859L23.4035 18.7082C25.2394 19.7489 27.2647 19.4352 28.8675 18.1077C30.004 17.1808 30.8345 15.9097 31.3445 14.5309C31.3918 14.3971 31.4305 14.2655 31.4742 14.1429C31.708 14.0024 31.9113 13.8805 32.0439 13.7988C32.0991 13.7696 32.1587 13.75 32.2202 13.7408C32.3169 13.7255 32.4157 13.7347 32.5081 13.7673C32.6006 13.7999 32.6838 13.8551 32.7506 13.9281C32.7615 13.9407 32.7695 13.9489 32.7863 13.969L32.9582 14.1801C33.5347 14.873 34.043 15.6221 34.4757 16.4167C34.8163 17.0503 35.0875 17.7204 35.2844 18.4146L35.3194 18.5447C35.3448 18.6502 35.3456 18.7602 35.3215 18.866C35.2975 18.9718 35.2493 19.0703 35.1809 19.1535Z" fill="white"/>
        <path d="M35.7346 18.2888C35.5431 17.5545 35.2727 16.844 34.9281 16.1704C34.4952 15.3354 33.9827 14.5459 33.3982 13.8134L33.2263 13.5941C33.0873 13.4125 32.9005 13.2752 32.6876 13.1983C32.4748 13.1214 32.2449 13.1081 32.0249 13.16C31.887 13.1936 31.7556 13.2504 31.6359 13.328L31.6301 13.3324C31.4938 13.4068 31.2527 13.5502 31.1201 13.6298C29.0576 14.8071 25.6102 16.7932 23.3678 18.0725L23.3248 18.097L23.088 18.2323L15.8027 13.8386L15.3335 13.5554C15.1805 13.4662 14.9758 13.3243 14.8075 13.2745C14.5932 13.209 14.3648 13.2083 14.1501 13.2724C13.9353 13.3365 13.7434 13.4627 13.5974 13.6357C13.0702 14.1726 12.6026 14.7671 12.203 15.4085C11.7095 16.2071 11.2946 17.0537 10.9645 17.9357L10.864 18.1966C10.7785 18.4104 10.7549 18.6447 10.7958 18.8718C10.8367 19.0988 10.9405 19.3092 11.0949 19.478C11.1927 19.5829 11.3066 19.6708 11.4322 19.7382H11.438L11.948 20.0437C14.0608 21.3289 17.6918 23.5194 19.8825 24.8528L19.7965 33.4521L19.7914 34.0096C19.7914 34.1894 19.7739 34.4414 19.8162 34.6146C19.8672 34.8373 19.9805 35.0401 20.1422 35.1984C20.304 35.3568 20.5073 35.4638 20.7276 35.5066C21.4467 35.7043 22.1851 35.8204 22.9292 35.8529C23.0603 35.8596 23.1915 35.8633 23.3233 35.8656H23.3612C24.1419 35.8653 24.9214 35.8024 25.6925 35.6775L25.9643 35.6359C26.1727 35.6059 26.3695 35.5198 26.5344 35.3864C26.6993 35.253 26.8264 35.0772 26.9026 34.877C26.9715 34.6928 26.9964 34.4946 26.9755 34.2987C26.979 34.3158 26.9807 34.3332 26.9806 34.3507C26.9806 34.1917 26.9806 33.9047 26.9871 33.7494C27.0199 31.243 27.0097 26.9995 27.0454 24.3972L34.456 20.1351L34.9303 19.8623C35.0826 19.7716 35.3062 19.6624 35.4323 19.5382C35.5957 19.3821 35.7112 19.181 35.7649 18.9592C35.8186 18.7374 35.808 18.5046 35.7346 18.2888V18.2888ZM29.8335 15.1275L31.3117 14.2355C31.2847 14.3188 31.2578 14.402 31.225 14.4823C30.7099 15.8292 29.8787 17.075 28.7589 17.9662C27.3018 19.1413 25.5162 19.4751 23.8566 18.6753C25.337 17.7885 28.5651 15.8924 29.8364 15.126L29.8335 15.1275ZM13.8575 20.428L12.3363 19.5524C12.4332 19.5323 12.5301 19.5115 12.6277 19.4981C14.028 19.2796 15.5018 19.3903 16.8183 19.9344C18.5602 20.6398 19.7433 22.0722 19.8781 23.9646C18.3897 23.1039 15.147 21.1698 13.8575 20.428ZM35.1809 19.1532C35.1443 19.1996 35.1013 19.2403 35.0534 19.2744C34.9806 19.3197 34.2797 19.7441 33.3108 20.3291L33.27 20.3536C30.9263 21.7659 27.0775 24.0887 26.7511 24.285L26.687 24.3236L26.6454 24.3489V24.3526L26.5872 24.3868H26.5821L26.5238 24.424C24.7199 25.524 23.9739 27.4715 24.3003 29.5527C24.5189 31.0207 25.1833 32.3877 26.099 33.5286C26.1937 33.6431 26.2914 33.7516 26.3766 33.8542C26.3766 34.1136 26.3817 34.3381 26.3839 34.489C26.3809 34.5503 26.3684 34.6108 26.3467 34.6681C26.3083 34.7709 26.2436 34.8614 26.1595 34.9302C26.0754 34.9991 25.9748 35.0438 25.8681 35.0598C25.0414 35.2221 24.2028 35.3131 23.3612 35.3319H23.3255C23.2002 35.3319 23.0756 35.3319 22.9503 35.3319C22.242 35.3163 21.5376 35.2208 20.85 35.0472L20.7225 35.013C20.6167 34.9819 20.5199 34.9251 20.4405 34.8474C20.3611 34.7697 20.3013 34.6735 20.2664 34.567C20.2486 34.5159 20.2374 34.4627 20.2329 34.4087C20.2271 34.2288 20.1935 30.8602 20.1659 28.1077C20.1484 26.3142 20.1331 24.7822 20.1309 24.5667V24.4418H20.1265V24.3727H20.1316V24.3035C20.0996 22.1591 18.8203 20.5291 16.8889 19.7694C15.5339 19.2283 14.0404 19.1324 12.6146 19.371C12.4631 19.3985 12.3188 19.4349 12.1775 19.4572C11.9531 19.3279 11.7593 19.2164 11.6282 19.1421C11.5775 19.1086 11.5324 19.0669 11.4949 19.0187C11.4322 18.941 11.3893 18.8487 11.3701 18.75C11.3509 18.6513 11.356 18.5493 11.3849 18.453C11.39 18.4367 11.3929 18.4255 11.4016 18.401L11.4949 18.1431C11.7932 17.2884 12.1734 16.4658 12.6299 15.6872C12.9975 15.0694 13.4307 14.4949 13.9216 13.9739L14.0149 13.878C14.1001 13.7937 14.2054 13.7336 14.3205 13.7038C14.4355 13.6739 14.5562 13.6753 14.6705 13.7078L14.6829 13.7152C14.7131 13.724 14.7426 13.7352 14.7711 13.7487C15.0275 13.8892 22.7121 18.3118 23.1762 18.5801L23.2301 18.6114L23.2833 18.6418V18.6381L23.3182 18.6589L23.3415 18.6723V18.6782L23.3612 18.6887L23.4013 18.711C25.2372 19.7516 27.2625 19.4379 28.8653 18.1104C30.0018 17.1835 30.8323 15.9124 31.3423 14.5336C31.3896 14.3998 31.4283 14.2683 31.472 14.1456C31.7058 14.0051 31.9091 13.8832 32.0417 13.8015C32.0969 13.7723 32.1565 13.7527 32.218 13.7435C32.3147 13.7283 32.4135 13.7374 32.506 13.77C32.5984 13.8027 32.6816 13.8578 32.7484 13.9308C32.7593 13.9434 32.7673 13.9516 32.7841 13.9717L32.956 14.1828C33.5325 14.8757 34.0408 15.6249 34.4735 16.4194C34.8141 17.0531 35.0853 17.7231 35.2822 18.4174L35.3172 18.5474C35.3424 18.6522 35.3433 18.7616 35.3196 18.8668C35.296 18.9721 35.2485 19.0701 35.1809 19.1532V19.1532ZM26.3599 31.8718C26.365 32.3446 26.3715 33.0663 26.3766 33.6617C26.3154 33.5918 26.2542 33.5219 26.1981 33.4469C25.3122 32.3185 24.6682 30.9613 24.473 29.526C24.2019 27.6395 24.8226 25.8838 26.3533 24.8179C26.365 26.5758 26.3482 30.3704 26.3599 31.8718Z" fill="#3E017E"/>
        <path d="M14.6824 13.7103L14.6669 13.7056L14.6824 13.7103Z" fill="#3D007D"/>
    </g>
    <defs>
        <clipPath id="clip0_819_152">
            <rect width="37" height="37" fill="white" transform="translate(5 6)"/>
        </clipPath>
    </defs>
</svg>
