<svg xmlns="http://www.w3.org/2000/svg" width="48" height="48" viewBox="0 0 48 48" fill="none">
<path d="M24 48C37.2548 48 48 37.2548 48 24C48 10.7452 37.2548 0 24 0C10.7452 0 0 10.7452 0 24C0 37.2548 10.7452 48 24 48Z" fill="#172852"/>
<path d="M19.332 10.7256C22.1424 9.67437 25.3056 9.67197 28.1688 10.536C31.896 11.6928 35.0424 14.5056 36.6864 18.036C37.14 19.0416 37.5744 20.0904 37.6176 21.2088C35.5224 19.9944 33.2256 19.2072 30.924 18.4896C27.2424 17.1624 23.388 16.2408 19.9032 14.4168C19.092 13.932 18.0576 13.4352 17.8368 12.4248C17.748 11.5512 18.672 11.064 19.332 10.7256Z" fill="#FFD83D"/>
<path d="M10.848 19.2216C11.6616 17.0136 12.996 14.964 14.808 13.4448C15.2688 17.2344 16.8816 20.8968 19.5456 23.652C22.74 26.9712 27.2904 29.0088 31.92 28.932C33.7584 28.9896 35.5559 28.5648 37.3487 28.2216C35.5847 34.596 28.5984 38.8272 22.1256 37.8096C18.2184 37.3104 14.6112 34.9968 12.4344 31.7304C9.9792 28.1208 9.36001 23.328 10.848 19.2216Z" fill="#FFD83D"/>
<path d="M30.924 18.4895C33.2256 19.2071 35.5224 19.9943 37.6176 21.2087L37.7592 21.2831C37.9536 22.7447 38.0952 24.2351 37.836 25.6991C36.7824 25.2527 35.928 24.4679 35.0352 23.7743C33.3168 22.3439 31.5624 20.7071 30.924 18.4895Z" fill="#FF6F03"/>
</svg>