<svg width="48" height="48" viewBox="0 0 48 48" fill="none" xmlns="http://www.w3.org/2000/svg">
<path d="M24 48C37.2548 48 48 37.2548 48 24C48 10.7452 37.2548 0 24 0C10.7452 0 0 10.7452 0 24C0 37.2548 10.7452 48 24 48Z" fill="#000403"/>
<path fill-rule="evenodd" clip-rule="evenodd" d="M32.5263 13.74C37.6692 14.19 41.7293 18.33 42 23.46C41.7293 15 34.6917 8.25 26.1203 8.52C21.0677 8.7 16.3759 11.22 13.6692 15.45C14.1203 10.32 18.2707 6.27 23.4135 6C14.8421 6.36 8.25564 13.65 8.61654 22.2C8.79699 27.06 11.3233 31.56 15.3835 34.26C10.2406 33.81 6.27068 29.67 6 24.54C6.18045 33 13.3083 39.75 21.7895 39.57C26.8421 39.48 31.4436 36.87 34.2406 32.73C33.7895 37.77 29.6391 41.73 24.5865 42C33.0677 41.73 39.7444 34.62 39.4737 26.07C39.2932 21.12 36.7669 16.44 32.5263 13.74ZM23.9549 30.48C22.2406 30.48 20.6165 29.85 19.4436 28.59C16.9173 26.07 17.0075 22.02 19.4436 19.59C21.8797 17.16 26.0301 17.16 28.4662 19.59C30.9023 22.02 30.9023 26.16 28.4662 28.59C27.2932 29.85 25.6692 30.48 23.9549 30.48Z" fill="#94FEBF"/>
</svg>
