<svg xmlns="http://www.w3.org/2000/svg" width="48" height="48" viewBox="0 0 48 48" fill="none">
<circle cx="24" cy="24" r="24" fill="#178DD0"/>
<path d="M11.25 12.7656C11.25 11.7077 11.25 11.1787 11.4044 10.7162C11.6707 9.91865 12.3164 9.22332 13.0921 8.89878C13.5419 8.71057 14.0469 8.67312 15.057 8.59822C17.4004 8.42446 20.5998 8.25 24 8.25C27.4002 8.25 30.5996 8.42446 32.943 8.59822C33.9531 8.67312 34.4581 8.71057 34.9079 8.89878C35.6836 9.22332 36.3293 9.91865 36.5956 10.7162C36.75 11.1787 36.75 11.7077 36.75 12.7656C36.75 13.8096 36.75 14.3316 36.5957 14.794C36.3311 15.5869 35.6803 16.2881 34.9093 16.6112C34.4598 16.7995 33.9653 16.8365 32.9764 16.9105C30.6921 17.0813 27.5402 17.25 24 17.25C20.4598 17.25 17.3079 17.0813 15.0236 16.9105C14.0347 16.8365 13.5402 16.7995 13.0907 16.6112C12.3197 16.2881 11.6689 15.5869 11.4043 14.794C11.25 14.3316 11.25 13.8096 11.25 12.7656Z" fill="white"/>
<path d="M11.1095 25.7531C11.2479 24.2956 11.3171 23.5668 11.9745 23.0378C12.6319 22.5088 13.3597 22.5972 14.8151 22.774C15.1019 22.8089 15.4088 22.8482 15.7361 22.8924C15.911 22.9161 16.0812 22.9436 16.2467 22.9745C17.3773 23.1856 17.9426 23.2912 19.0963 24.6802C20.25 26.0692 20.25 27.104 20.25 29.1735C20.25 29.9453 20.25 30.8404 20.25 31.875C20.25 33.6218 20.25 34.9708 20.25 36.0006C20.25 37.4144 20.25 38.1213 19.8107 38.5607C19.3713 39 18.6643 39 17.2502 39C16.6389 39 15.9934 39 15.375 39C14.1172 39 13.4883 39 12.8963 38.7306C12.3645 38.4887 11.8073 37.9763 11.5216 37.4666C11.2037 36.8992 11.1557 36.3278 11.0597 35.1848C10.955 33.9385 10.875 32.4349 10.875 30.75C10.875 28.8063 10.9814 27.1011 11.1095 25.7531Z" fill="white"/>
<path d="M36.5155 25.7531C36.3771 24.2956 36.3079 23.5668 35.6505 23.0378C34.9931 22.5088 34.2653 22.5972 32.8099 22.774C32.5231 22.8089 32.2162 22.8482 31.8889 22.8924C31.714 22.9161 31.5438 22.9436 31.3783 22.9745C30.2477 23.1856 29.6824 23.2912 28.5287 24.6802C27.375 26.0692 27.375 27.104 27.375 29.1735C27.375 29.9453 27.375 30.8404 27.375 31.875C27.375 33.6218 27.375 34.9708 27.375 36.0006C27.375 37.4144 27.375 38.1213 27.8143 38.5607C28.2537 39 28.9607 39 30.3748 39C30.9861 39 31.6316 39 32.25 39C33.5078 39 34.1367 39 34.7287 38.7306C35.2605 38.4887 35.8177 37.9763 36.1034 37.4666C36.4213 36.8992 36.4693 36.3278 36.5653 35.1848C36.67 33.9385 36.75 32.4349 36.75 30.75C36.75 28.8063 36.6436 27.1011 36.5155 25.7531Z" fill="white"/>
</svg>