<svg width="48" height="48" viewBox="0 0 48 48" fill="none" xmlns="http://www.w3.org/2000/svg">
    <path d="M47.9439 22.3538C47.9439 22.3501 47.9439 22.3463 47.9439 22.3426C47.9375 22.2507 47.9293 22.1591 47.9222 22.0675C47.9151 21.9759 47.9072 21.8738 47.8984 21.7775C47.8984 21.77 47.8984 21.7621 47.8964 21.7543C47.8479 21.2323 47.7833 20.7155 47.7024 20.204H41.9616C41.6824 20.2027 41.4085 20.2803 41.1713 20.4279C40.9341 20.5755 40.7432 20.787 40.6205 21.0384L38.6842 24.9707L36.3743 15.2037C36.2954 14.867 36.1026 14.568 35.8287 14.3576C35.5549 14.1471 35.2168 14.0381 34.8718 14.0491C34.5269 14.0601 34.1964 14.1904 33.9364 14.4178C33.6764 14.6453 33.5029 14.9559 33.4455 15.297L31.6811 25.6747L29.8807 10.0591C29.8421 9.69283 29.6686 9.35422 29.394 9.10943C29.1195 8.86465 28.7637 8.73129 28.3963 8.73545V8.73545C28.0291 8.73116 27.6735 8.86419 27.399 9.10856C27.1244 9.35293 26.9506 9.6911 26.9115 10.057L23.6304 38.0645C23.5978 38.3477 23.6788 38.6324 23.8556 38.8558C24.0323 39.0793 24.2904 39.2232 24.573 39.256C24.615 39.2609 24.6572 39.2634 24.6994 39.2635C24.9623 39.2633 25.2161 39.1665 25.4125 38.9914C25.609 38.8163 25.7345 38.575 25.7654 38.3133L28.3868 15.906L30.0669 30.4844C30.1076 30.8432 30.2762 31.1752 30.5417 31.4193C30.8073 31.6633 31.1519 31.8031 31.512 31.8127C31.8722 31.8224 32.2238 31.7013 32.502 31.4718C32.7801 31.2423 32.9662 30.9198 33.026 30.5637L35.0196 18.8361L37.0058 27.2387C37.0766 27.539 37.2382 27.8102 37.4685 28.015C37.6988 28.2198 37.9867 28.3483 38.2927 28.3829C38.5986 28.4176 38.9078 28.3567 39.178 28.2085C39.4481 28.0604 39.666 27.8322 39.8018 27.5553L42.3648 22.3541H45.2277C45.2699 22.8988 45.293 23.4463 45.293 24.0008C45.28 29.1637 43.4005 34.1469 40.0026 38.0274C36.6047 41.908 31.9186 44.4229 26.8123 45.1065C21.7061 45.79 16.5256 44.5958 12.2306 41.745C7.9355 38.8942 4.81687 34.5801 3.4523 29.6016H0.658661C2.03987 35.3186 5.46296 40.3305 10.2809 43.6899C15.0989 47.0493 20.9779 48.5235 26.8068 47.8339C32.6357 47.1443 38.0106 44.3387 41.9156 39.9473C45.8206 35.5559 47.9851 29.883 48 24.0008C48 23.4466 47.9799 22.8978 47.9439 22.3538Z" fill="#27EA84"/>
    <path d="M24 1.39469e-05C20.8516 -0.00338557 17.7335 0.614712 14.8235 1.81901C11.9135 3.02332 9.26872 4.79024 7.04011 7.01889C4.81151 9.24755 3.04274 11.8943 1.83479 14.808C0.626845 17.7217 0.00337321 20.8454 -1.52588e-05 24.0006C-1.52588e-05 24.5541 0.0213868 25.1029 0.058753 25.6472C0.0662263 25.7586 0.0757363 25.8692 0.084908 25.9802C0.0900034 26.0425 0.0940819 26.1051 0.0998566 26.1674C0.118879 26.3796 0.140625 26.5908 0.165083 26.801C0.165083 26.8132 0.167457 26.8255 0.168815 26.8377C0.206408 27.1593 0.250226 27.4791 0.300274 27.7971H6.04108C6.32028 27.7984 6.59418 27.7208 6.83138 27.5732C7.06858 27.4256 7.25949 27.214 7.3822 26.9627L9.31845 23.0303L11.6284 32.7974C11.7073 33.1341 11.9001 33.433 12.1739 33.6435C12.4478 33.8539 12.7859 33.9629 13.1309 33.9519C13.4758 33.9409 13.8063 33.8107 14.0663 33.5832C14.3263 33.3558 14.4997 33.0451 14.5572 32.7041L16.3216 22.3263L18.1219 37.9423C18.1606 38.3085 18.334 38.6471 18.6085 38.8919C18.883 39.1366 19.2387 39.27 19.606 39.266V39.266C19.9732 39.2702 20.3288 39.1372 20.6034 38.8928C20.8779 38.6485 21.0517 38.3103 21.0908 37.9444L24.3675 9.93761C24.3971 9.65559 24.3146 9.37325 24.1378 9.15184C23.961 8.93044 23.7042 8.78785 23.4231 8.755C23.1421 8.72215 22.8595 8.8017 22.6366 8.97638C22.4137 9.15107 22.2685 9.40679 22.2326 9.68807L19.6132 32.0957L17.9331 17.517C17.8924 17.1582 17.7238 16.8262 17.4582 16.5821C17.1927 16.3381 16.8481 16.1983 16.4879 16.1887C16.1277 16.179 15.7762 16.3001 15.498 16.5296C15.2198 16.7591 15.0337 17.0816 14.974 17.4377L12.9803 29.1653L10.9935 20.7631C10.9227 20.4627 10.7611 20.1916 10.5308 19.9868C10.3005 19.782 10.0126 19.6534 9.70662 19.6188C9.40064 19.5842 9.09145 19.6451 8.82132 19.7932C8.55118 19.9414 8.3333 20.1695 8.19746 20.4464L5.63482 25.6476H2.76985C2.72818 25.104 2.70712 24.5551 2.70666 24.0009C2.71962 18.8381 4.59912 13.8549 7.99703 9.97433C11.395 6.09377 16.081 3.57881 21.1873 2.89528C26.2936 2.21176 31.474 3.40598 35.7691 6.25675C40.0641 9.10753 43.1828 13.4217 44.5473 18.4001H47.3413C46.0758 13.1528 43.0855 8.48472 38.8517 5.14716C34.6178 1.8096 29.3867 -0.00336735 24 1.39469e-05Z" fill="#27EA84"/>
</svg>
